<svg width="18" height="18" viewBox="0 0 18 18" fill="none" xmlns="http://www.w3.org/2000/svg">
<path fill-rule="evenodd" clip-rule="evenodd" d="M14 1.6875V16.3125C14 17.2441 13.2609 18 12.35 18H4.65C3.73906 18 3 17.2441 3 16.3125V1.6875C3 0.755859 3.73906 0 4.65 0H12.35C13.2609 0 14 0.755859 14 1.6875ZM9.6 14.625C9.6 15.2473 9.10844 15.75 8.5 15.75C7.89156 15.75 7.4 15.2473 7.4 14.625C7.4 14.0027 7.89156 13.5 8.5 13.5C9.10844 13.5 9.6 14.0027 9.6 14.625ZM12.35 1.125C12.6525 1.125 12.9 1.37812 12.9 1.6875V16.3125C12.9 16.6219 12.6525 16.875 12.35 16.875H4.65C4.3475 16.875 4.1 16.6219 4.1 16.3125V1.6875C4.1 1.37812 4.3475 1.125 4.65 1.125H12.35Z" fill="#B38E6A"/>
</svg>
