<svg width="10" height="10" viewBox="0 0 10 10" fill="none" xmlns="http://www.w3.org/2000/svg">
<path d="M9.79167 4.375H5.625V0.208333C5.625 0.0932292 5.53177 0 5.41667 0H4.58333C4.46823 0 4.375 0.0932292 4.375 0.208333V4.375H0.208333C0.0932292 4.375 0 4.46823 0 4.58333V5.41667C0 5.53177 0.0932292 5.625 0.208333 5.625H4.375V9.79167C4.375 9.90677 4.46823 10 4.58333 10H5.41667C5.53177 10 5.625 9.90677 5.625 9.79167V5.625H9.79167C9.90677 5.625 10 5.53177 10 5.41667V4.58333C10 4.46823 9.90677 4.375 9.79167 4.375Z" fill="#B38E6A"/>
</svg>
