<svg width="60" height="53" viewBox="0 0 60 53" fill="#534931" xmlns="http://www.w3.org/2000/svg">
<path d="M58.56 -15.8C58.56 -14.1467 57.9467 -12.2267 56.72 -10.04C55.5467 -7.90667 53.7867 -5.64 51.44 -3.24C49.1467 -0.839999 46.32 1.64 42.96 4.2C39.6 6.70667 35.7867 9.16 31.52 11.56C30.0267 14.28 28.6933 16.76 27.52 19C26.4 21.1867 25.3067 23.5067 24.24 25.96C24.1333 26.2267 24.1067 26.3867 24.16 26.44C24.2133 26.44 24.32 26.36 24.48 26.2C25.8133 24.6 27.3867 22.9733 29.2 21.32C31.0133 19.6133 32.8533 18.3333 34.72 17.48C35.04 17.3733 35.28 17.32 35.44 17.32C35.8667 17.32 36.1867 17.5067 36.4 17.88C36.6667 18.2533 36.8 18.5467 36.8 18.76C36.8 18.9733 36.6667 19.4533 36.4 20.2C36.1333 20.9467 35.7867 21.8 35.36 22.76C34.9333 23.72 34.4533 24.76 33.92 25.88C33.44 26.9467 32.96 27.96 32.48 28.92C32 29.8267 31.44 30.8933 30.8 32.12C30.16 33.2933 29.4933 34.4667 28.8 35.64C28.1067 36.8667 27.4133 38.0133 26.72 39.08C26.08 40.2 25.4667 41.16 24.88 41.96C22.5867 45.16 20.24 47.72 17.84 49.64C15.4933 51.6133 12.9867 53.0533 10.32 53.96C7.86667 54.8133 5.52 55.24 3.28 55.24C1.78667 55.24 0.346667 55.0533 -1.04 54.68C-2.48 54.36 -3.78667 53.8267 -4.96 53.08C-5.33333 52.8133 -5.54667 52.52 -5.6 52.2C-5.70667 51.9333 -5.78667 51.5867 -5.84 51.16C-5.84 50.9467 -5.86667 50.6267 -5.92 50.2C-5.97333 49.8267 -6.02667 49.4267 -6.08 49C-6.13333 48.6267 -6.18667 48.2533 -6.24 47.88C-6.29333 47.5067 -6.32 47.24 -6.32 47.08C-6.32 46.6 -6.10667 46.4133 -5.68 46.52C-5.68 47.1067 -5.52 47.8267 -5.2 48.68C-4.93333 49.5333 -4.4 50.3867 -3.6 51.24C-2.85333 52.0933 -1.81333 52.8133 -0.48 53.4C0.8 53.9867 2.42667 54.28 4.4 54.28C6.05333 54.28 7.94667 53.96 10.08 53.32C12.6933 52.5733 15.04 51.16 17.12 49.08C19.2 47 21.2 44.52 23.12 41.64C24.08 40.2 25.04 38.5733 26 36.76C26.96 35 27.84 33.2667 28.64 31.56C29.44 29.8533 30.1067 28.3333 30.64 27C31.2267 25.6133 31.6 24.6533 31.76 24.12C32.1333 23.0533 32.3733 22.2533 32.48 21.72C32.5867 21.1333 32.64 20.7067 32.64 20.44C32.64 20.0667 32.5067 19.88 32.24 19.88C32.0267 19.88 31.3867 20.3067 30.32 21.16C29.3067 21.96 28.2133 22.9733 27.04 24.2C25.92 25.3733 24.9067 26.68 24 28.12C23.0933 29.5067 22.64 30.8133 22.64 32.04C22.64 32.4667 22.6667 32.84 22.72 33.16C22.7733 33.48 22.8 33.6933 22.8 33.8C22.8 34.0667 22.4 34.3067 21.6 34.52C20.8533 34.7333 20.1067 35.0533 19.36 35.48C19.1467 35.48 19.04 35.2667 19.04 34.84C19.04 34.2 19.04 33.6933 19.04 33.32C19.04 32.8933 19.0933 32.4133 19.2 31.88C19.36 31.2933 19.6 30.6 19.92 29.8C20.2933 29 20.8533 27.9067 21.6 26.52C22.3467 25.08 23.3067 23.2667 24.48 21.08C25.6533 18.84 27.12 16.0933 28.88 12.84C26.6933 13.96 24.32 15 21.76 15.96C19.2 16.92 16.48 17.72 13.6 18.36C13.12 19.16 12.5333 20.1733 11.84 21.4C11.1467 22.5733 10.48 23.8267 9.84 25.16C9.25333 26.44 8.74667 27.72 8.32 29C7.89333 30.28 7.68 31.4 7.68 32.36C7.68 33.2667 7.78667 33.9333 8 34.36C8.21333 34.7867 8.66667 35 9.36 35C10.1067 35 10.8533 34.84 11.6 34.52C12.4 34.2 13.4133 33.6933 14.64 33C14.8 32.8933 14.9333 32.92 15.04 33.08C15.1467 33.1867 15.1467 33.32 15.04 33.48C11.52 35.6133 8.69333 36.68 6.56 36.68C5.92 36.68 5.36 36.52 4.88 36.2C4.4 35.88 4.16 35 4.16 33.56C4.16 32.92 4.37333 32.04 4.8 30.92C5.28 29.7467 5.84 28.4667 6.48 27.08C7.17333 25.6933 7.89333 24.28 8.64 22.84C9.38667 21.3467 10.0533 19.96 10.64 18.68C9.52 18.9467 8.13333 19.16 6.48 19.32C4.82667 19.4267 3.33333 19.5067 2 19.56C1.78667 19.56 1.68 19.48 1.68 19.32C1.68 19 2 18.84 2.64 18.84C3.22667 18.84 3.94667 18.84 4.8 18.84C5.65333 18.7867 6.48 18.7333 7.28 18.68C8.13333 18.5733 8.90667 18.4667 9.6 18.36C10.3467 18.2533 10.8267 18.1467 11.04 18.04C11.52 17.2933 12.0533 16.4667 12.64 15.56C13.2267 14.6533 13.8133 13.7733 14.4 12.92C14.9867 12.0133 15.52 11.2133 16 10.52C16.5333 9.82667 16.9333 9.37333 17.2 9.16C17.6267 8.89333 18.24 8.65333 19.04 8.44C19.8933 8.17333 20.6667 7.93333 21.36 7.72C21.6267 7.72 21.7333 7.8 21.68 7.96C21.6267 8.12 21.52 8.25333 21.36 8.36C20.9867 8.46667 20.56 8.68 20.08 9C19.6533 9.26667 19.3067 9.58667 19.04 9.96C18.4 10.76 17.6533 11.8 16.8 13.08C16 14.3067 15.0667 15.8267 14 17.64C16.24 17.2133 18.6667 16.52 21.28 15.56C23.9467 14.6 26.5867 13.4267 29.2 12.04C29.9467 10.7067 30.7733 9.18667 31.68 7.48C32.5867 5.77333 33.52 4.04 34.48 2.28C35.4933 0.52 36.4533 -1.18667 37.36 -2.84C38.32 -4.49333 39.2 -5.90667 40 -7.08C41.12 -8.78667 42.32 -10.3867 43.6 -11.88C44.88 -13.3733 46.1867 -14.6533 47.52 -15.72C48.9067 -16.84 50.2667 -17.72 51.6 -18.36C52.9867 -19 54.32 -19.32 55.6 -19.32C56.2933 -19.32 56.96 -19.1333 57.6 -18.76C58.24 -18.44 58.56 -17.48 58.56 -15.88V-15.8ZM56.4 -15C56.4 -15.6933 56.2933 -16.2267 56.08 -16.6C55.8667 -16.9733 55.5733 -17.24 55.2 -17.4C54.88 -17.6133 54.5067 -17.7467 54.08 -17.8C53.7067 -17.8533 53.3333 -17.88 52.96 -17.88C52.48 -17.88 51.8933 -17.7467 51.2 -17.48C50.5067 -17.2133 49.68 -16.6533 48.72 -15.8C47.76 -15 46.6133 -13.8267 45.28 -12.28C44 -10.7333 42.5333 -8.68 40.88 -6.12C40.4 -5.32 39.8133 -4.28 39.12 -3C38.4267 -1.72 37.68 -0.306665 36.88 1.24C36.08 2.73333 35.2533 4.30667 34.4 5.96C33.5467 7.61333 32.72 9.21333 31.92 10.76C34.32 9.48 36.9333 7.88 39.76 5.96C42.5867 3.98667 45.2267 1.85333 47.68 -0.439999C50.1867 -2.73333 52.2667 -5.13333 53.92 -7.64C55.5733 -10.1467 56.4 -12.6 56.4 -15ZM59.6737 25.48C58.7671 26.6 57.6737 27.7733 56.3937 29C55.1671 30.1733 53.8071 31.2667 52.3137 32.28C50.8737 33.24 49.3537 34.04 47.7537 34.68C46.2071 35.2667 44.6604 35.56 43.1137 35.56C40.6071 35.56 39.3537 34.44 39.3537 32.2C39.3537 30.7067 39.7271 29.1067 40.4738 27.4C41.2737 25.64 42.2871 24.04 43.5137 22.6C44.7404 21.1067 46.0738 19.88 47.5138 18.92C49.0071 17.9067 50.4204 17.4 51.7537 17.4C52.5004 17.4 53.0071 17.5333 53.2738 17.8C53.5938 18.0667 53.7537 18.4133 53.7537 18.84C53.7537 19.48 53.5404 20.1733 53.1138 20.92C52.7404 21.6667 52.1537 22.3867 51.3537 23.08C50.5537 23.72 49.5404 24.28 48.3137 24.76C47.0871 25.1867 45.6204 25.4 43.9137 25.4C43.6471 25.88 43.3537 26.6533 43.0338 27.72C42.7138 28.7333 42.5538 29.7733 42.5538 30.84C42.5538 33.0267 43.5404 34.12 45.5138 34.12C46.7404 34.12 47.9937 33.8267 49.2737 33.24C50.6071 32.6533 51.8871 31.9333 53.1138 31.08C54.3404 30.1733 55.4604 29.2133 56.4737 28.2C57.5404 27.1333 58.4204 26.1467 59.1137 25.24C59.2204 25.1333 59.3271 25.1067 59.4338 25.16C59.5938 25.2133 59.6737 25.32 59.6737 25.48ZM51.2737 19.24C51.2737 18.5467 50.9271 18.2 50.2337 18.2C49.7004 18.2 49.1404 18.4133 48.5538 18.84C48.0204 19.2133 47.4871 19.72 46.9537 20.36C46.4204 21 45.9137 21.6933 45.4338 22.44C44.9537 23.1867 44.5537 23.9067 44.2337 24.6C44.3404 24.6533 44.5271 24.7067 44.7937 24.76C45.0604 24.76 45.2737 24.76 45.4338 24.76C46.9804 24.76 48.3404 24.2267 49.5138 23.16C50.6871 22.04 51.2737 20.7333 51.2737 19.24Z" fill="#534931"/>
</svg>
