<svg width="368" height="610" viewBox="0 0 368 610" fill="none" xmlns="http://www.w3.org/2000/svg">
<path fill-rule="evenodd" clip-rule="evenodd" d="M75.3747 50.0996C71.2436 47.3882 67.127 45.0438 62.9922 49.6235C62.4318 49.3286 61.9355 49.0529 61.4776 48.7983C60.6089 48.3156 59.8781 47.9095 59.1096 47.5953C53.0298 45.1056 49.4872 47.5226 49.7431 54.0759C49.9734 60.073 52.1012 65.3033 56.7771 69.265C59.7055 71.7475 62.6924 74.1827 65.7999 76.4289C71.7261 80.7141 73.3713 85.9807 71.2582 93.1082C64.1328 117.166 53.0591 139.461 40.1976 160.829C39.7741 161.533 39.3505 162.236 38.9269 162.939C28.3549 180.495 17.8435 197.95 11.7765 217.736C3.80298 243.738 -2.43402 269.98 0.933075 297.404C3.67865 319.753 9.54276 341.245 21.9728 360.435C22.5933 361.393 23.2135 362.351 23.8338 363.309C31.0856 374.508 38.3476 385.723 46.2115 396.491C56.1849 410.143 67.3463 422.904 82.8328 430.711C88.3978 433.515 93.9102 436.418 99.4228 439.321C111.648 445.76 123.874 452.2 136.677 457.553C163.318 468.697 190.854 474.247 219.772 473.683C228.244 473.519 236.721 473.754 245.2 473.988C250.827 474.143 256.454 474.298 262.082 474.338C266.466 474.367 269.58 475.606 272.249 479.339C278.183 487.629 286.438 489.658 296.092 486.779C296.972 486.516 297.886 486.374 299.037 486.196C299.639 486.102 300.305 485.999 301.065 485.863C300.893 486.825 300.765 487.724 300.645 488.573C300.403 490.283 300.19 491.789 299.694 493.198C298.279 497.203 296.608 501.128 294.865 505.007C291.26 513.039 288.946 521.406 288.013 530.144C288.003 530.244 287.992 530.344 287.981 530.444C287.754 532.527 287.517 534.705 289.885 536.97C290.056 536.29 290.21 535.671 290.354 535.095C290.686 533.759 290.961 532.654 291.253 531.554C291.841 529.334 292.393 527.101 292.945 524.868C294.229 519.677 295.514 514.484 297.252 509.445C298.124 506.915 299.212 504.459 300.301 502.003C302.65 496.703 304.999 491.403 305.174 485.358C305.239 482.937 307.193 482.061 309.312 482.821C313.423 484.297 317.495 485.888 321.566 487.48C323.259 488.142 324.953 488.804 326.649 489.458C328.726 490.261 329.595 491.755 329.347 493.957C328.43 502.128 325.658 509.256 318.178 513.759C317.183 514.359 316.182 514.95 315.181 515.542C313.239 516.69 311.296 517.839 309.394 519.047C289.509 531.67 282.643 553.896 290.178 572.734C291.362 575.7 290.785 577.805 289.158 580.36C286.434 584.638 283.762 589.054 281.908 593.739C280.347 597.668 280.939 601.808 285.498 605.181C284.124 595.872 287.593 588.629 293.932 581.454C294.853 583.454 295.735 585.396 296.598 587.293C298.701 591.92 300.684 596.281 302.794 600.576C304.095 603.214 305.705 605.78 307.599 608.027C308.995 609.688 311.06 610.869 314.285 609.175C308.815 606.195 306.732 601.564 304.732 596.872C304.361 596.003 304.028 595.111 303.694 594.219C302.975 592.297 302.257 590.375 301.164 588.694C295.881 580.56 297.446 574.195 303.629 566.683C306.59 563.083 309.342 559.312 312.097 555.536C316.614 549.345 321.139 543.143 326.609 537.675C326.942 537.342 327.276 537.009 327.611 536.676C330.306 533.994 333.03 531.282 335.215 528.217C342.157 518.48 345.049 507.813 339.806 496.447C338.084 492.703 336.963 489.047 336.235 485.071C335.756 482.456 334.977 479.896 334.134 477.122C333.746 475.846 333.344 474.526 332.952 473.135C336.739 474.647 338.322 477.136 339.646 479.797C340.619 481.76 341.634 483.704 342.65 485.649C346.456 492.935 350.263 500.222 351.798 508.485C352.321 511.327 354.017 513.246 356.942 512.505C356.589 511.608 356.223 510.758 355.869 509.937C355.11 508.177 354.406 506.544 354.003 504.839C353.026 500.707 352.302 496.498 351.769 492.282C350.964 485.979 348.138 480.502 344.903 475.235C341.803 470.19 337.291 467.286 331.058 467.603C330.92 467.609 330.778 467.618 330.633 467.626C329.474 467.695 328.125 467.774 327.388 467.199C324.88 465.252 322.495 463.15 320.065 461.009C319.157 460.209 318.244 459.404 317.315 458.6C330.115 448.793 347.268 453.675 351.864 467.999C353.124 471.917 353.87 475.996 354.618 480.079C355.059 482.488 355.5 484.898 356.047 487.277C356.137 487.672 356.203 488.084 356.27 488.507C356.578 490.455 356.924 492.639 359.962 494.568C359.554 491.539 359.177 488.616 358.809 485.77C357.964 479.218 357.17 473.07 356.164 466.956C355.381 462.209 352.916 458.011 348.76 455.408C340.542 450.265 331.866 447.052 322.072 451.149C321.244 451.497 320.368 451.729 319.41 451.983C318.948 452.105 318.466 452.233 317.962 452.381C318.507 450.771 319.008 449.217 319.496 447.705C320.531 444.494 321.503 441.478 322.693 438.547C323.018 437.748 323.34 436.946 323.663 436.144C325.716 431.035 327.781 425.897 330.524 421.167C336.326 411.168 341.064 400.747 344.969 389.916C352.848 368.05 358.261 345.544 363.218 322.868C369.072 296.099 369.028 269.242 365.895 242.281C364.377 229.168 360.248 216.689 356.115 204.199C355.43 202.128 354.745 200.056 354.071 197.982C346.201 173.753 331.611 154.039 312.984 137.32C288.478 115.327 258.953 102.402 227.355 94.2022C212.5 90.3496 197.51 87.0153 182.52 83.6809C175.802 82.1865 169.084 80.6922 162.378 79.1512C149.634 76.2217 138.311 70.8388 128.736 61.6359C123.205 56.3221 120.693 50.4921 121.227 43.0048C121.589 37.949 120.185 33.2058 116.705 29.4512C115.425 28.0773 113.129 26.7944 111.382 26.8961C108.757 27.056 108.72 29.7747 108.695 31.9301C108.68 33.0973 108.698 34.2653 108.715 35.4331C108.737 36.8179 108.758 38.2023 108.724 39.5846C108.673 41.9907 108.362 44.3533 105.964 47.0065C105.74 46.0566 105.559 45.2169 105.394 44.4535C105.072 42.9678 104.813 41.7717 104.432 40.6168C104.221 39.9797 104.019 39.3367 103.816 38.6927C103.058 36.2874 102.296 33.8694 101.09 31.7047C97.7599 25.7366 93.9029 24.8062 87.7792 27.9828C87.5193 28.1182 87.2593 28.2553 87.0102 28.3871C86.7442 28.5277 86.4904 28.6624 86.262 28.7825C85.7978 28.3176 85.3601 27.7825 84.929 27.2554C83.9681 26.0806 83.0393 24.945 81.9188 24.7117C80.7608 24.4672 79.4308 25.0348 77.8455 25.7114C77.0735 26.0408 76.2409 26.3962 75.3382 26.6962C75.3382 25.2448 75.3697 23.855 75.4003 22.5099C75.4673 19.5602 75.5294 16.825 75.2431 14.124C74.8739 10.5947 74.0586 7.00739 72.7644 3.70715C71.6786 0.941223 68.9001 -0.2146 65.8694 0.0325317C62.9922 0.257874 60.8535 1.92981 60.5427 4.73572C59.4203 14.8582 59.6177 24.6063 67.3792 32.7987C71.1959 36.8327 74.5725 41.2836 77.9426 45.7259C78.8174 46.8792 79.6919 48.0318 80.5734 49.1764C81.043 49.7863 81.2065 50.6294 81.4314 51.7897C81.555 52.4272 81.6972 53.1603 81.9188 54.0032C80.9452 53.426 80.0898 52.9282 79.317 52.4784C77.7681 51.577 76.5503 50.8682 75.3747 50.0996ZM220.375 102.885L220.381 102.887L220.382 102.888C225.679 105.081 230.599 107.118 235.336 109.507C256.31 120.091 274.375 134.013 286.883 154.155C298.653 173.108 311.527 191.267 325.765 208.563C335.923 220.902 344.092 234.629 349.785 249.623C350.679 251.975 351.489 254.358 352.336 256.849C352.74 258.038 353.153 259.253 353.587 260.5C353.773 260.191 353.936 259.955 354.068 259.762C354.289 259.441 354.426 259.243 354.442 259.037C354.512 257.986 354.519 256.924 354.46 255.869C353.415 237.284 348.797 219.494 340.768 202.74C338.362 197.712 334.917 193.155 331.481 188.611L331.481 188.611C330.273 187.014 329.067 185.418 327.908 183.804C326.972 182.5 325.415 181.431 323.907 180.766C319.342 178.754 316.566 175.16 313.983 171.158C312.928 169.523 311.887 167.875 310.845 166.226L310.844 166.225C307.121 160.331 303.388 154.423 298.987 149.058C277.759 123.154 250.768 106.166 217.356 99.606C216.636 99.4662 215.881 99.4922 214.788 99.5299H214.787H214.787H214.787H214.787C214.156 99.5516 213.413 99.5771 212.5 99.5771C215.212 100.747 217.818 101.826 220.339 102.87L220.34 102.87L220.345 102.872L220.364 102.88L220.372 102.883L220.375 102.885ZM335.76 503.5C332.59 515.433 324.127 522.197 314.314 528.232C308.924 531.547 303.943 535.867 299.656 540.525C292.061 548.786 289.932 558.785 292.597 569.686C292.769 570.389 293.13 571.048 293.597 571.9C293.851 572.363 294.136 572.884 294.44 573.5C295.44 572.193 296.382 570.955 297.287 569.765L297.288 569.764C299.015 567.494 300.611 565.395 302.236 563.316C303.507 561.69 304.776 560.063 306.046 558.436L306.046 558.436C311.202 551.829 316.359 545.22 321.601 538.678C322.98 536.96 324.465 535.322 325.949 533.684L325.95 533.684L325.95 533.684L325.95 533.684L325.95 533.684L325.95 533.684L325.95 533.684L325.95 533.684L325.95 533.684L325.95 533.684L325.95 533.683L325.95 533.683L325.95 533.683L325.951 533.683C327.627 531.834 329.303 529.985 330.826 528.021C336.469 520.74 337.431 512.388 335.76 503.5ZM333.024 346.023L333 346.016C332.983 346.01 332.967 346.004 332.95 346V349.991C332.963 349.993 332.975 349.994 332.988 349.996L332.989 349.996C333.001 349.997 333.013 349.998 333.025 350C333.03 349.31 333.034 348.621 333.038 347.931L333.038 347.929L333.038 347.927L333.05 346.031L333.039 346.028L333.024 346.023ZM79.5003 36.3629L79.8256 36.2308L80.0896 36.1237L80.3195 36.0301L80.5 35.9564C80.1981 34.1866 79.8989 32.4169 79.5342 30.2595L79.5318 30.2447L79.4059 29.5L78.3792 30.029L77.7037 30.3769L77.6989 30.3795C77.0314 30.7231 76.4371 31.0291 75.8493 31.3323C75.4054 31.5613 74.9652 31.7887 74.5 32.0295C74.6028 32.1487 74.702 32.2648 74.7979 32.3779C74.8993 32.4977 74.9972 32.6141 75.092 32.7276C75.201 32.8579 75.3059 32.9842 75.4079 33.1068L75.4088 33.1079C75.9771 33.7916 76.4508 34.3613 76.9898 34.8787C77.4357 35.3099 77.962 35.6693 78.4887 36.0288L78.4891 36.0292C78.7162 36.1841 78.9432 36.3392 79.1639 36.5C79.2761 36.4541 79.3882 36.4084 79.5003 36.3629ZM89.7592 59.8547C88.4849 58.1236 88.3484 55.5551 88 49C88.4958 50.1945 88.9196 51.2236 89.299 52.1451L89.3015 52.1513C89.9906 53.8248 90.5337 55.1436 91.0974 56.4547C91.7507 57.9758 92.4279 59.4875 93.1477 61.0941L93.1511 61.1017C93.4275 61.7185 93.7101 62.3493 94 63C91.8734 61.7377 90.5801 60.97 89.7592 59.8547ZM304.823 451.5C309.569 447.72 310.494 444.234 308.538 437.5C304.675 443.761 303.97 446.421 304.823 451.5ZM326.892 484.347C321.222 482.923 316.557 481.751 311.5 478.491C315.542 476.47 318.431 475.023 321.47 473.5C324.916 476.068 325.98 479.539 327.351 484.015L327.5 484.5L326.892 484.347ZM250.5 464.5C240.261 460.771 229.514 459.487 218.5 459.5C228.72 463.334 239.576 464.068 250.5 464.5ZM66.2613 22.597C64.4095 16.7593 63.952 10.7036 65.204 4.5C69.8473 6.01117 71.5538 14.2321 69.8597 27.5C69.348 26.8236 68.8327 26.2367 68.3542 25.6915C67.4131 24.6196 66.6137 23.709 66.2613 22.597ZM317.237 469.026L317.202 468.988L317.192 468.978L317.174 468.957L317.169 468.952L317.162 468.944L317.15 468.931L317.142 468.922C315.945 467.606 314.907 466.466 313.868 465.329C311.771 463.038 310.659 461.822 309.354 461.556C307.881 461.256 306.161 462.165 302.5 464.099C302.552 464.36 302.603 464.622 302.655 464.884L302.655 464.887L302.656 464.89L302.657 464.894L302.657 464.897L302.658 464.9L302.659 464.904C303.571 469.553 304.493 474.247 309.48 477.5L309.742 477.343C312.729 475.556 315.799 473.719 319.5 471.513C318.672 470.603 317.927 469.785 317.237 469.026ZM273 473.938C279.332 471.101 285.589 468.301 292.967 465L294.242 467.919C296.19 472.383 298.095 476.747 300 481.103C287.708 486.706 279.703 484.11 273 473.938ZM302.5 183.733L302.118 183.995C301.871 184.164 301.625 184.333 301.383 184.5C301.148 184.178 300.92 183.849 300.692 183.52C300.227 182.849 299.761 182.178 299.234 181.559C285.193 164.989 268.509 151.443 249.995 140.036C241.986 135.101 233.903 130.278 225.787 125.517C216.353 119.989 206.461 115.47 196.093 111.823C185.753 108.191 175.997 103.343 167.327 96.4905C165.113 94.7396 162.755 93.1675 160.394 91.5936L160.392 91.5927C158.402 90.2659 156.41 88.9378 154.5 87.5C158.766 88.4771 163.04 89.416 167.311 90.3542L167.33 90.3583L167.331 90.3585C187.978 94.894 208.569 99.4168 227.948 108.18C243.956 115.423 257.906 125.438 270.63 137.322C276.695 142.988 281.15 149.79 285.608 156.598L285.608 156.598L285.611 156.602L285.612 156.604L285.613 156.605L285.614 156.607L285.615 156.608L285.616 156.61L285.617 156.611L285.618 156.613L285.619 156.614L285.62 156.616L285.621 156.618L285.622 156.619C286.395 157.798 287.167 158.978 287.948 160.151C291.435 165.392 294.779 170.728 298.123 176.063L298.125 176.065C299.07 177.573 300.014 179.08 300.962 180.585C301.384 181.254 301.708 181.983 302.032 182.711C302.185 183.054 302.337 183.397 302.5 183.733ZM69.6578 361.534C70.0859 362.354 70.5141 363.174 70.9273 364C58.4546 352.359 49.5449 338.522 43.8329 322.603C35.0377 298.087 34.7386 273.075 37.6519 247.579C39.3762 232.515 43.8698 218.544 50.1726 204.894C59.481 184.73 67.8073 164.163 74.0399 142.857C75.4129 138.158 76.3606 133.335 77.3083 128.512C77.7981 126.02 78.2878 123.528 78.8363 121.052C79.1632 119.578 79.573 118.121 80.0851 116.3C80.3597 115.324 80.6637 114.244 81 113C80.8781 127.779 79.7114 140.986 75.7347 153.916C72.8399 163.328 70.058 172.773 67.2758 182.22L67.2755 182.221L67.2751 182.222L67.2747 182.223L67.2744 182.224L67.274 182.226L67.2737 182.227L67.2733 182.228L67.2729 182.229L67.2726 182.23L67.2722 182.231C64.0973 193.011 60.9222 203.791 57.5795 214.522C51.2286 234.896 48.4852 255.656 49.508 276.912C50.4311 296.074 51.7567 315.225 57.9192 333.604C59.8807 339.436 62.3162 345.116 64.75 350.792L64.7533 350.799L64.7558 350.805C65.5133 352.572 66.2706 354.338 67.0134 356.108C67.7906 357.957 68.7241 359.745 69.6578 361.534ZM243.976 442.681C243.97 442.569 243.978 442.445 243.987 442.32C244.005 442.045 244.024 441.764 243.895 441.596C242.462 439.721 241.018 437.854 239.486 436.063C225.929 420.217 213.459 403.629 202.554 385.842C190.878 366.805 182.742 346.573 178.219 324.752C175.08 309.64 170.087 295.047 162.288 281.565C160.704 278.817 158.883 275.999 156.535 273.927C152.373 270.269 148.034 272.023 147.351 277.461C146.956 280.622 146.897 283.882 147.162 287.062C147.344 289.292 147.52 291.523 147.696 293.755C148.478 303.669 149.261 313.59 150.56 323.44C151.867 333.365 153.584 343.317 156.18 352.976C159.773 366.344 166.103 378.331 176.494 388.122C183.355 394.587 190.18 401.366 195.597 408.997C205.803 423.366 220.581 431.057 235.402 438.77L235.402 438.77L235.402 438.771L235.402 438.771L235.403 438.771L235.403 438.771L235.403 438.771L235.403 438.771L235.403 438.771L235.404 438.772C238.08 440.165 240.758 441.558 243.411 442.992C243.476 443.029 243.619 442.928 243.768 442.821L243.769 442.821C243.839 442.771 243.91 442.72 243.976 442.681ZM336.981 322.946L335.81 323C335.722 322.375 335.629 321.751 335.536 321.126L335.536 321.126C335.33 319.738 335.123 318.351 334.979 316.96C330.746 276.448 316.052 240.049 290.98 207.854C278.577 191.929 263.783 178.4 246.374 167.96C227.619 156.714 210.159 143.794 193.48 129.739C183.5 121.328 172.85 113.897 160.604 108.899C150.616 104.826 141.801 98.8325 133.655 91.8192C132.898 91.1671 132.125 90.5338 131.348 89.8973L131.347 89.8965L131.345 89.8951L131.342 89.8929L131.338 89.8892L131.336 89.8878L131.335 89.8872C129.162 88.1068 126.958 86.3019 125 84C126.351 84.4859 127.725 84.9286 129.099 85.3713L129.1 85.3715C132.16 86.3574 135.219 87.3433 138.026 88.8062L139.05 89.3404C146.851 93.407 154.715 97.5068 161.867 102.546C171.049 109.022 180.732 114.38 191.349 117.8C203.665 121.764 215.116 127.416 226.334 133.641C241.86 142.259 256.911 151.588 270.717 162.809C290.728 179.075 306.635 198.441 317.589 221.837C329.432 247.132 337.915 273.21 338 301.401C338.014 306.329 337.698 311.255 337.383 316.18C337.238 318.435 337.094 320.691 336.981 322.946ZM84.3766 105.5C84.2477 105.711 84.1421 105.865 84.0601 105.985C83.926 106.181 83.8554 106.284 83.8509 106.39C83.7997 107.659 83.7523 108.924 83.745 110.192C83.6537 128.136 81.3939 145.706 76.0089 162.945C69.7332 183.019 64.0051 203.268 58.3464 223.523C54.6664 236.699 53.1294 250.245 53.5748 263.908C53.8568 272.517 54.4853 281.116 55.1137 289.714V289.714V289.715V289.715V289.716V289.716V289.717V289.717L55.114 289.721L55.1143 289.726C55.2913 292.147 55.4683 294.569 55.6375 296.99C57.8609 328.877 68.4372 357.503 89.338 382.062C90.2357 383.112 91.1982 384.11 92.1602 385.107L92.1633 385.11L92.1648 385.112L92.1662 385.113L92.1677 385.115L92.1692 385.116C92.6125 385.576 93.0559 386.035 93.4926 386.5C93.578 384.128 92.9098 382.234 92.2433 380.344L92.1929 380.201C91.5753 378.461 90.9305 376.729 90.2858 374.997L90.2853 374.996C88.8533 371.149 87.4212 367.301 86.2859 363.369C80.8974 344.68 78.7324 325.471 77.5861 306.135C74.7093 257.773 78.5828 209.737 84.4131 161.771C85.9975 148.716 86.651 135.533 87.268 122.383C87.5309 116.782 86.9285 111.057 84.3766 105.5ZM126 91.7065C126.189 91.471 126.374 91.2355 126.564 91C127.018 91.3489 127.482 91.6874 127.946 92.0259L127.946 92.0264L127.947 92.0268C128.957 92.7636 129.967 93.5004 130.876 94.3442C139.707 102.547 149.979 108.279 161.075 112.946C168.064 115.888 175.063 119.413 181.058 123.971C203.903 141.326 227.147 158.04 251.34 173.504C271.93 186.67 287.474 204.924 300.127 225.594C316.076 251.659 325.607 279.996 329.298 310.29C330.734 322.076 329.984 337.714 326.893 347C326.841 346.578 326.779 346.156 326.717 345.735C326.589 344.868 326.461 344.001 326.422 343.13C325.513 323.326 322.083 303.942 315.866 285.141C309.343 265.424 298.741 247.822 285.979 231.507C272.846 214.714 257.525 200.036 241.185 186.399C232.706 179.326 224.187 172.275 215.345 165.667C209.771 161.496 203.699 157.913 197.569 154.587C195.358 153.388 192.271 153.246 189.668 153.489C187.312 153.707 185.672 153.301 183.902 151.826C180.473 148.978 176.921 146.275 173.303 143.67C159.719 133.895 148.321 121.993 138.478 108.547C135.703 104.756 132.899 100.986 130.094 97.2169L130.091 97.2125C128.726 95.3779 127.361 93.5434 126 91.7065ZM62.3755 164.936L61.4084 164.5C61.0479 165.181 60.686 165.862 60.3241 166.544C59.649 167.814 58.9736 169.085 58.306 170.361C56.8897 173.081 55.5386 175.843 54.1874 178.606C51.2262 184.66 48.2648 190.715 44.6177 196.327C32.6363 214.76 24.8086 234.953 18.1055 255.6C15.2411 264.427 12.5671 273.796 12.5049 282.94C12.3803 300.784 14.622 318.53 20.7355 335.603C24.2184 345.33 29.6992 353.915 35.1761 362.494L35.1801 362.501C36.2221 364.133 37.2639 365.765 38.2918 367.405C44.5298 377.345 51.5662 386.67 60.8114 394.236C70.2251 401.936 79.6351 409.709 88.4554 418.064C115.927 444.081 148.194 460.435 185.607 466.775C194.826 468.339 204.086 469.193 213.5 467.79C211.372 466.834 209.167 466.259 206.936 465.765C187.259 461.409 168.875 453.858 152.509 442.216C142.898 435.379 133.651 428.033 124.406 420.688L124.405 420.688C120.776 417.805 117.146 414.921 113.495 412.069C111.91 410.829 110.381 409.517 108.852 408.204L108.852 408.204L108.85 408.203L108.85 408.202C107.3 406.872 105.75 405.54 104.14 404.285C89.2503 392.669 76.0491 379.359 63.8956 364.987C52.1303 351.069 43.6287 335.414 39.6654 317.672C36.9842 305.66 34.8889 293.469 33.3652 281.26C30.6876 259.846 32.5923 238.774 40.5738 218.534C43.9732 209.91 47.5354 201.35 51.0979 192.788L51.0985 192.787L51.099 192.786L51.0996 192.785L51.1001 192.783L51.1007 192.782C53.015 188.182 54.9294 183.581 56.8188 178.97C58.1204 175.796 59.3709 172.6 60.6214 169.404C61.2044 167.914 61.7874 166.424 62.3755 164.936ZM258.422 459.751C258.267 459.999 258.112 460.248 257.958 460.5C257.117 460.316 256.276 460.132 255.435 459.948L255.43 459.946L255.424 459.945L255.424 459.945L255.424 459.945L255.424 459.945L255.423 459.945C253.816 459.592 252.21 459.24 250.602 458.894L250.597 458.893L250.592 458.892L250.587 458.891L250.582 458.89L250.577 458.889C242.496 457.149 234.415 455.41 226.331 453.678C210.276 450.244 194.522 445.429 180.242 437.442C161.277 426.828 145.516 412.187 134.32 393.259C126.953 380.795 123.509 366.816 121.861 352.601C118.026 319.461 118.12 286.321 122.322 253.141C125.817 225.552 126.311 197.893 120.544 170.442C120.192 168.764 119.792 167.095 119.391 165.425C118.748 162.744 118.106 160.063 117.663 157.349C117.403 155.753 117.506 154.096 117.618 152.269V152.269L117.619 152.264C117.633 152.038 117.647 151.81 117.661 151.578C117.118 152.575 116.722 153.891 116.744 154.815C116.85 159.243 117.307 163.707 118.13 168.062C122.214 189.707 122.616 211.534 121.082 233.387C120.465 242.182 119.575 250.958 118.685 259.735C117.756 268.902 116.827 278.07 116.208 287.259C114.521 312.321 115.551 337.299 120.469 362.031C124.995 384.775 135.447 404.176 152.17 420.353C164.947 432.715 178.504 443.736 195.528 449.763C196.71 450.18 197.82 450.803 198.788 452.065C198.327 451.96 197.864 451.861 197.4 451.763L197.399 451.762C196.413 451.553 195.425 451.343 194.461 451.065C178.685 446.506 163.649 440.215 149.711 431.501C146.143 429.27 142.737 426.612 139.745 423.653C123.635 407.741 111.663 389.275 104.813 367.503C94.3169 334.126 91.071 300.3 97.1421 265.708C98.0768 260.374 98.9416 255.027 99.8063 249.679L99.8069 249.676C101.143 241.415 102.479 233.154 104.073 224.941C107.304 208.307 106.902 191.615 105.668 174.836C105.649 175.122 105.62 175.409 105.59 175.696C105.529 176.281 105.469 176.865 105.498 177.447C106.492 197.946 103.605 218.033 99.6119 238.079C95.2634 259.924 91.1399 281.863 91.4699 304.289C91.8507 329.481 95.9924 354.144 103.246 378.219C104.75 383.215 107.05 387.974 109.348 392.73C110.291 394.682 111.233 396.632 112.12 398.599C112.276 398.942 112.44 399.282 112.605 399.623C113.339 401.141 114.089 402.693 114.137 404.789C113.62 404.182 113.087 403.587 112.553 402.991L112.553 402.991C111.391 401.694 110.229 400.396 109.237 398.98C102.579 389.489 98.4005 378.795 95.0132 367.84C88.8333 347.881 85.3516 327.403 84.7133 306.512C84.6087 303.109 84.4969 299.706 84.3851 296.303L84.3845 296.286L84.3844 296.284C83.8413 279.753 83.2979 263.214 83.5745 246.695C84.0424 218.464 87.0815 190.382 90.4145 162.347C90.4715 161.867 90.5287 161.388 90.5858 160.908L90.6923 160.016C91.6802 151.733 92.6687 143.446 93.3086 135.135C94.1827 123.817 93.3993 112.662 88.7861 102.03C88.294 100.9 88.1323 99.6239 87.9394 98.1009C87.8394 97.3118 87.731 96.4564 87.5639 95.5206C88.8716 95.7926 90.0895 96.263 91.2361 96.7058L91.2365 96.706C93.8197 97.7037 96.0407 98.5616 98.1104 96.6956C99.6303 95.3251 100.787 93.5566 102.099 91.5494C102.732 90.5824 103.4 89.56 104.163 88.5C104.85 88.7462 105.583 89.0145 106.352 89.2955C108.199 89.9709 110.246 90.7195 112.313 91.4083C113.65 91.8533 115.013 92.2164 116.376 92.5795C117.001 92.7462 117.627 92.9128 118.25 93.0873C118.478 93.236 118.696 93.3956 118.91 93.566C119.583 93.9512 120.293 94.3002 121.003 94.6494C122.573 95.4209 124.144 96.1932 125.325 97.3591C128.629 100.623 131.719 104.177 134.468 107.926C147.096 125.162 161.516 140.6 178.964 153.078C180.861 154.43 182.638 155.964 184.379 157.509C186.874 159.728 189.145 161.52 192.742 159.014C193.856 158.242 196.529 158.898 198.063 159.707C198.796 160.093 199.533 160.477 200.271 160.862C204.62 163.128 209.009 165.415 212.838 168.388C233.634 184.511 254.404 200.644 272.577 219.864C287.741 235.9 300.59 253.462 309.57 273.603C320.048 297.098 325.858 321.855 326.474 347.576C326.823 362.056 323.609 376.264 320.132 390.273C318.271 397.758 315.994 405.143 313.719 412.525L313.719 412.525C313.058 414.67 312.397 416.814 311.746 418.961C310.956 421.564 309.787 424.048 307.801 426.424C307.879 425.973 307.943 425.519 308.008 425.065L308.008 425.064C308.149 424.081 308.289 423.097 308.561 422.152C310.018 417.114 311.496 412.083 312.975 407.052L312.975 407.051L312.975 407.05C314.784 400.895 316.593 394.741 318.361 388.576C323.254 371.525 322.619 354.209 321.073 336.777C319.174 315.363 310.759 296.177 301.338 277.367C289.891 254.517 276.69 232.69 258.604 214.417C251.926 207.672 244.68 201.489 237.434 195.308L237.433 195.307C234.337 192.666 231.241 190.024 228.19 187.339C227.613 186.832 227.037 186.323 226.461 185.814C223.54 183.232 220.616 180.648 217.52 178.292C213.835 175.478 210.002 172.805 205.991 170.495C202.226 168.334 198.146 166.72 193.845 165.328C196.257 170.053 199.876 173.686 203.775 176.939C226.83 196.155 241.551 220.27 249.791 249.234C257.606 276.714 260.671 304.499 260.859 332.839C260.884 336.403 260.886 339.97 260.889 343.537V343.541C260.898 356.543 260.907 369.555 261.966 382.472C262.947 394.407 265.07 406.256 267.19 418.091L267.19 418.091L267.191 418.093C267.765 421.296 268.338 424.498 268.889 427.7C269.663 432.208 270.867 436.644 272.07 441.078L272.07 441.079L272.07 441.08C272.48 442.589 272.889 444.097 273.281 445.607C273.727 447.337 274.46 448.998 275.729 450.495C275.203 448.077 274.665 445.66 274.128 443.244L274.127 443.243C272.973 438.06 271.82 432.877 270.786 427.671C265.973 403.418 264.86 378.842 264.66 354.202C264.53 338.072 264.464 321.942 264.443 305.808C264.399 275.742 256.667 247.537 243.995 220.495C243.338 219.095 242.818 217.629 242.297 216.163L242.297 216.163C242.051 215.469 241.805 214.775 241.544 214.087C240.757 212.945 239.971 211.801 239.184 210.658C238.393 209.508 237.602 208.357 236.811 207.208C236.712 206.908 236.612 206.61 236.513 206.313C236.433 206.075 236.353 205.837 236.274 205.598C236.289 205.322 236.335 205.03 236.382 204.737C236.486 204.073 236.591 203.401 236.35 202.893C236.043 202.251 235.679 201.635 235.312 201.014C234.748 200.06 234.176 199.093 233.79 197.997L234.089 198.238C244.572 206.672 255.033 215.088 263.228 225.804C281.459 249.651 297.479 274.781 308.815 302.78C316.41 321.532 318.586 340.86 317.386 360.791C316.551 374.687 312.739 387.912 308.403 401.043C305.276 410.5 302.219 419.998 299.582 429.6C297.312 437.872 296.854 446.321 299.69 454.8C295.828 457.984 291.988 460.812 286.99 461.53C285.641 465.057 282.873 465.847 279.946 466.681L279.946 466.681C278.372 467.13 276.752 467.592 275.283 468.5C274.831 467.063 274.406 465.716 274.001 464.43L274 464.428C273.161 461.767 272.403 459.365 271.66 456.957C269.655 450.458 267.592 443.975 265.528 437.491L265.528 437.491C260.784 422.582 256.039 407.673 252.003 392.575C246.033 370.252 240.717 347.696 236.484 324.984C228.941 284.489 210.698 249.361 185.362 217.463C174 203.161 162.822 188.714 154.451 172.384C148.547 160.871 142.759 149.296 137.257 137.586C132.524 127.516 126.283 118.483 119.533 109.729C115.921 105.043 111.243 102.588 105.273 102.704C100.41 102.799 98.299 104.256 96.8773 108.898C95.8183 112.343 94.8717 115.828 96.1302 119.502C96.495 120.561 96.7354 121.663 96.976 122.766L96.9761 122.767C97.1421 123.528 97.3083 124.29 97.5156 125.039C98.027 126.863 98.6508 128.658 99.7243 130.359C99.5267 129.446 99.3311 128.532 99.1355 127.617L99.1341 127.611C98.6984 125.574 98.2623 123.535 97.8021 121.507C96.8773 117.413 97.6027 113.543 99.0715 109.681C100.319 106.407 102.597 105.199 105.951 105.225C111.051 105.272 115.098 107.455 117.836 111.534C118.681 112.795 119.533 114.053 120.386 115.312L120.388 115.315C124.649 121.607 128.922 127.915 132.412 134.62C135.937 141.393 139.2 148.305 142.463 155.217C146.266 163.272 150.068 171.326 154.285 179.158C160.599 190.89 167.225 202.726 175.534 213.054C198.618 241.745 214.825 273.744 226.362 308.571C235.052 334.812 241.797 361.49 247.85 388.398C252.609 409.532 258.274 430.398 266.811 450.379C267.308 451.54 267.721 452.744 268.066 453.958C268.125 454.169 268.036 454.422 267.884 454.854C267.793 455.112 267.68 455.435 267.562 455.851C267.033 455.061 266.522 454.318 266.031 453.604L266.031 453.603C265.002 452.107 264.057 450.733 263.206 449.302C255.14 435.747 249.265 421.271 244.271 406.312C233.927 375.307 225.173 343.852 216.693 312.307C211.471 292.895 201.16 276.141 189.264 260.269C185.326 255.014 181.115 249.912 176.589 245.161C162.354 230.217 151.467 213.159 143.579 194.15C141.876 190.045 140.222 185.921 138.568 181.796L138.567 181.793C136.116 175.682 133.666 169.571 131.059 163.529C129.315 159.489 127.019 155.602 124.404 152.062C123.456 150.778 120.866 149.909 119.194 150.143C123.213 152.224 124.621 155.648 125.966 158.922L125.966 158.922C129.036 166.4 131.881 173.972 134.679 181.558C144.068 206.984 157.081 230.156 175.375 250.351C187.856 264.126 198.26 279.532 205.584 296.705C209.405 305.672 212.301 315.087 214.997 324.48C217.077 331.726 218.984 339.023 220.892 346.319C223.509 356.33 226.125 366.338 229.183 376.21C236.677 400.412 244.814 424.432 257.504 446.565L257.707 446.917C259.1 449.342 260.496 451.773 261.5 454.625C261.125 454.373 260.751 454.122 260.377 453.871L260.375 453.87C256.671 451.388 253.03 448.948 249.985 445.571C226.545 419.559 208.527 390.021 194.392 358.119C190.022 348.26 187.007 337.712 184.216 327.252C183.493 324.548 182.798 321.837 182.103 319.126L182.103 319.126C178.673 305.75 175.249 292.395 168.538 280.13C166.909 277.158 165.105 274.24 163.062 271.549C160.928 268.737 157.985 267.145 154.305 267.04C148.354 266.872 144.942 269.247 144.031 275.162C143.451 278.917 143.24 282.868 143.716 286.624C144.098 289.631 144.474 292.64 144.85 295.649C146.718 310.603 148.587 325.563 151.26 340.374C152.543 347.481 155.158 354.367 157.758 361.215L157.758 361.216L157.758 361.216L157.758 361.216L157.758 361.216C158.418 362.953 159.077 364.688 159.712 366.423C162.525 374.104 167.37 380.526 172.828 386.637C180.75 395.509 188.367 404.677 195.713 414.037C201.846 421.853 208.748 428.5 217.549 433.257C225.467 437.531 233.225 442.095 240.984 446.66C242.383 447.482 243.781 448.305 245.18 449.126C250.068 451.996 254.841 455.08 258.756 459.211C258.645 459.391 258.534 459.571 258.422 459.751ZM119.194 150.143C119.133 150.152 119.073 150.162 119.015 150.173C118.558 150.262 118.068 150.83 117.661 151.578C117.7 150.911 117.735 150.22 117.75 149.5C118.266 149.696 118.746 149.911 119.194 150.143ZM307.687 193.288C307.716 193.366 307.744 193.444 307.772 193.522C307.934 193.599 308.104 193.671 308.274 193.742C308.806 193.965 309.337 194.187 309.638 194.583C311.974 197.657 314.351 200.704 316.729 203.751L316.73 203.751L316.731 203.753C322.51 211.158 328.29 218.563 333.467 226.362C351.3 253.226 355.093 283.006 349.793 314.157C344.836 343.32 334.55 370.954 324.179 398.533C323.812 399.5 323.181 400.369 321.759 401C321.969 400.215 322.175 399.43 322.382 398.646L322.383 398.645C322.742 397.281 323.102 395.918 323.475 394.556C324.817 389.673 326.269 384.81 327.721 379.947C330.977 369.045 334.233 358.142 336.248 347.017C339.996 326.29 342.571 305.272 340.297 284.013C338.002 262.549 331.697 242.272 322.615 222.815C319.949 217.108 316.92 211.566 313.892 206.024L313.892 206.023C312.312 203.132 310.733 200.241 309.204 197.327C308.754 196.467 308.445 195.532 308.135 194.595C308.017 194.236 307.898 193.878 307.772 193.522C307.697 193.487 307.623 193.45 307.552 193.412L307.256 192.878L306.185 191.86C305.457 191.168 304.729 190.476 304 189.785C304.318 189.559 304.634 189.334 304.945 189.112L304.963 189.099L305.102 189C305.693 190.062 306.282 191.124 306.871 192.185L307.256 192.878L307.687 193.288ZM107.305 49.9639L107.28 49.9401L107.289 49.9687L107.305 49.9639ZM110.658 44.7645C110.317 46.9045 109.958 49.162 107.305 49.9639C107.939 50.5768 108.595 51.1717 109.252 51.7666C110.767 53.139 112.282 54.512 113.522 56.1074C115.044 58.0673 116.229 60.3059 117.406 62.5305L117.406 62.531L117.408 62.5358C117.65 62.9914 117.89 63.4464 118.134 63.8984C121.324 69.8205 126.255 73.8256 131.841 77.2176C134.064 78.5737 136.185 78.7706 138.5 78.1984C137.132 76.8653 135.69 76.0286 134.246 75.1911L134.159 75.1407C126.075 70.4298 120.467 63.5565 116.954 54.8591C115.65 51.6194 114.936 48.4354 115.767 44.7684C116.665 40.8116 115.877 36.9292 112.016 33.5C111.881 34.7286 111.771 35.8866 111.665 36.9937C111.43 39.4519 111.219 41.6588 110.815 43.8284C110.758 44.1345 110.708 44.4482 110.658 44.7645ZM113.815 70.597C111.628 63.7073 109.44 56.814 107.289 49.9687L107.273 49.9735C104.145 52.7823 103.112 52.8008 101.379 49.2787C100.486 47.4626 99.7617 45.5611 99.0377 43.6595C98.2983 41.7176 97.559 39.7757 96.6392 37.9249C93.837 32.274 91.1813 32.1068 86.5 37.2562C91.8919 40.637 94.5659 46.0093 96.7747 51.7308C97.2925 53.0718 97.9892 54.3445 98.6837 55.6131L98.6848 55.6151L98.6853 55.6158C98.8157 55.854 98.946 56.092 99.0751 56.3303C99.1552 56.475 99.4062 56.5226 99.6634 56.5714C99.7828 56.594 99.9035 56.6169 100.009 56.6498C99.9615 55.6245 99.9139 54.6548 99.8663 53.6851L100.094 53.5839C100.213 53.5306 100.332 53.4774 100.452 53.4246C100.581 53.3673 100.711 53.3104 100.841 53.2541C104.523 58.4542 108.211 63.6544 111.897 68.8521L113.456 71.0502C113.537 70.9453 113.619 70.8422 113.702 70.7383C113.74 70.6915 113.777 70.6444 113.815 70.597Z" fill="#534931"/>
</svg>
