<svg width="505" height="836" viewBox="0 0 505 836" fill="none" xmlns="http://www.w3.org/2000/svg">
<path fill-rule="evenodd" clip-rule="evenodd" d="M103.731 69.0789C98.0727 65.3674 92.4348 62.1583 86.7719 68.4272C86.0046 68.0237 85.3251 67.6462 84.698 67.2979C83.508 66.637 82.507 66.0811 81.4544 65.651C73.1278 62.2429 68.276 65.5515 68.6265 74.5219C68.9419 82.7311 71.856 89.8906 78.2599 95.3136C82.2706 98.7117 86.3613 102.045 90.6172 105.12C98.7336 110.986 100.987 118.195 98.0927 127.951C88.334 160.883 73.1678 191.401 55.5532 220.651C54.9731 221.614 54.3928 222.578 53.8126 223.541C39.3336 247.571 24.9378 271.464 16.6287 298.549C5.7084 334.142 -2.83353 370.063 1.77792 407.602C5.53818 438.195 13.5694 467.613 30.5933 493.883C31.4435 495.194 32.2933 496.506 33.1433 497.818C43.0746 513.147 53.02 528.499 63.7897 543.238C77.4488 561.925 92.7352 579.393 113.945 590.08C121.567 593.918 129.116 597.892 136.666 601.866C153.409 610.68 170.154 619.494 187.688 626.822C224.174 642.077 261.887 649.674 301.492 648.903C313.095 648.678 324.705 648.999 336.317 649.319C344.024 649.532 351.731 649.745 359.438 649.798C365.442 649.838 369.708 651.535 373.363 656.644C381.489 667.993 392.795 670.769 406.018 666.829C407.222 666.469 408.474 666.275 410.051 666.03C410.875 665.902 411.787 665.761 412.828 665.575C412.592 666.892 412.418 668.123 412.253 669.284C411.922 671.625 411.63 673.687 410.951 675.615C409.012 681.098 406.724 686.471 404.336 691.78C399.399 702.775 396.23 714.228 394.953 726.189C394.939 726.325 394.924 726.462 394.909 726.6C394.598 729.451 394.273 732.433 397.517 735.532C397.751 734.601 397.962 733.754 398.158 732.965C398.614 731.137 398.991 729.624 399.389 728.119C400.195 725.08 400.951 722.024 401.708 718.967C403.466 711.861 405.225 704.753 407.606 697.854C408.8 694.391 410.291 691.03 411.782 687.668C414.999 680.413 418.216 673.158 418.455 664.883C418.545 661.57 421.221 660.371 424.124 661.41C429.753 663.431 435.33 665.61 440.905 667.788C443.225 668.694 445.544 669.601 447.867 670.495C450.711 671.595 451.902 673.64 451.562 676.655C450.307 687.839 446.51 697.596 436.266 703.76C434.903 704.581 433.532 705.391 432.16 706.201C429.501 707.773 426.84 709.345 424.235 710.999C397.001 728.278 387.598 758.702 397.917 784.489C399.54 788.549 398.749 791.429 396.52 794.927C392.79 800.783 389.13 806.828 386.591 813.241C384.453 818.619 385.265 824.286 391.508 828.903C389.626 816.161 394.377 806.246 403.06 796.425C404.32 799.163 405.529 801.82 406.71 804.417C409.591 810.751 412.306 816.72 415.197 822.599C416.979 826.212 419.183 829.724 421.776 832.799C423.689 835.072 426.517 836.689 430.934 834.371C423.443 830.291 420.589 823.953 417.851 817.53C417.343 816.341 416.886 815.12 416.429 813.898C415.445 811.267 414.461 808.636 412.963 806.335C405.728 795.201 407.872 786.489 416.339 776.205C420.396 771.278 424.164 766.115 427.937 760.947C434.123 752.472 440.32 743.983 447.813 736.497C448.268 736.042 448.726 735.586 449.184 735.13C452.875 731.459 456.606 727.747 459.599 723.552C469.106 710.223 473.067 695.62 465.887 680.063C463.528 674.938 461.993 669.933 460.995 664.49C460.34 660.911 459.273 657.407 458.118 653.609C457.586 651.864 457.036 650.056 456.499 648.151C461.686 650.221 463.855 653.629 465.668 657.271C467 659.958 468.391 662.62 469.782 665.281C474.995 675.256 480.207 685.23 482.31 696.541C483.026 700.432 485.35 703.059 489.355 702.044C488.872 700.816 488.371 699.653 487.885 698.528C486.846 696.12 485.882 693.884 485.33 691.551C483.992 685.894 483 680.132 482.271 674.361C481.168 665.734 477.297 658.236 472.867 651.027C468.621 644.121 462.443 640.146 453.905 640.579C453.717 640.588 453.522 640.6 453.323 640.612C451.737 640.705 449.889 640.814 448.879 640.027C445.444 637.361 442.177 634.484 438.85 631.553C437.607 630.459 436.356 629.357 435.084 628.255C452.614 614.832 476.106 621.514 482.4 641.121C484.126 646.485 485.149 652.068 486.172 657.657C486.776 660.955 487.38 664.254 488.129 667.51C488.253 668.052 488.343 668.615 488.434 669.194C488.857 671.86 489.331 674.85 493.492 677.491C492.932 673.344 492.416 669.344 491.913 665.448C490.755 656.479 489.668 648.063 488.289 639.693C487.217 633.196 483.842 627.449 478.15 623.887C466.894 616.847 455.012 612.449 441.599 618.056C440.465 618.532 439.264 618.85 437.953 619.197C437.32 619.365 436.66 619.54 435.97 619.743C436.716 617.54 437.402 615.411 438.07 613.342C439.488 608.947 440.82 604.818 442.45 600.807C442.894 599.712 443.335 598.615 443.777 597.517C446.589 590.524 449.418 583.49 453.174 577.015C461.12 563.328 467.61 549.064 472.957 534.237C483.748 504.306 491.162 473.499 497.951 442.458C505.969 405.816 505.907 369.053 501.616 332.147C499.538 314.197 493.883 297.115 488.223 280.017C487.285 277.183 486.346 274.348 485.424 271.508C474.645 238.343 454.662 211.357 429.152 188.471C395.589 158.365 355.152 140.673 311.877 129.449C291.533 124.175 271.003 119.611 250.473 115.047C241.272 113.001 232.071 110.956 222.887 108.846C205.433 104.836 189.926 97.4679 176.813 84.8705C169.237 77.5966 165.797 69.6163 166.529 59.3672C167.024 52.4466 165.102 45.9539 160.335 40.8144C158.582 38.9337 155.438 37.1775 153.045 37.3168C149.45 37.5357 149.4 41.2572 149.364 44.2075C149.344 45.8055 149.368 47.4045 149.393 49.0032C149.422 50.8986 149.451 52.7935 149.405 54.6855C149.334 57.9791 148.909 61.213 145.624 64.845C145.318 63.5445 145.069 62.3948 144.843 61.3498C144.403 59.3164 144.049 57.6792 143.526 56.0984C143.238 55.2264 142.96 54.3463 142.682 53.4648C141.644 50.1721 140.601 46.8622 138.95 43.899C134.389 35.7296 129.106 34.456 120.719 38.8044C119.983 39.1875 119.247 39.5805 118.641 39.8989C118.006 39.2625 117.406 38.5302 116.816 37.8087C115.5 36.2006 114.228 34.6461 112.693 34.3267C111.107 33.9921 109.286 34.769 107.115 35.6951C106.057 36.1461 104.917 36.6325 103.681 37.0432C103.681 35.0565 103.724 33.1542 103.766 31.313C103.857 27.2752 103.942 23.5309 103.55 19.8337C103.045 15.0027 101.928 10.0921 100.156 5.57452C98.6685 1.78833 94.8632 0.206177 90.7124 0.544495C86.7719 0.852966 83.8428 3.1416 83.4172 6.98254C81.88 20.8387 82.1504 34.1823 92.7803 45.3966C98.0076 50.9186 102.632 57.0114 107.248 63.0923C108.446 64.6708 109.643 66.2485 110.851 67.8152C111.494 68.6501 111.718 69.8041 112.026 71.3923C112.195 72.2649 112.39 73.2686 112.693 74.4224C111.359 73.6322 110.188 72.9507 109.129 72.3348C107.008 71.1011 105.34 70.131 103.731 69.0789ZM303.264 140.148L303.267 140.149C310.503 143.16 317.227 145.957 323.698 149.237C352.354 163.765 377.033 182.875 394.121 210.523C410.202 236.54 427.791 261.466 447.242 285.207C461.121 302.145 472.281 320.988 480.059 341.57C481.279 344.798 482.386 348.068 483.543 351.487L483.543 351.487C484.096 353.121 484.66 354.788 485.253 356.5C485.506 356.076 485.729 355.752 485.91 355.487C486.212 355.046 486.398 354.774 486.42 354.492C486.517 353.049 486.526 351.591 486.446 350.143C485.018 324.632 478.709 300.212 467.739 277.214C464.452 270.313 459.745 264.058 455.051 257.82L455.049 257.817L455.049 257.816C453.4 255.625 451.753 253.436 450.17 251.222C448.891 249.432 446.764 247.964 444.703 247.052C438.467 244.29 434.675 239.357 431.146 233.863C429.704 231.618 428.281 229.356 426.858 227.092C421.77 219.001 416.671 210.892 410.658 203.527C381.656 167.97 344.782 144.65 299.134 135.646C298.151 135.454 297.119 135.489 295.624 135.541C294.763 135.571 293.748 135.606 292.5 135.606C296.225 137.22 299.803 138.708 303.264 140.148ZM460.997 689C456.7 705.194 445.228 714.374 431.926 722.565C424.62 727.063 417.867 732.926 412.055 739.248C401.76 750.46 398.874 764.029 402.488 778.824C402.72 779.778 403.209 780.672 403.842 781.828L403.843 781.828C404.187 782.457 404.574 783.164 404.985 784C406.341 782.226 407.617 780.546 408.845 778.93L408.846 778.929L408.849 778.925L408.849 778.925C411.189 775.845 413.352 772.998 415.554 770.179C417.276 767.973 418.996 765.765 420.717 763.557C427.706 754.59 434.697 745.62 441.804 736.742C443.673 734.409 445.686 732.187 447.698 729.965C449.971 727.454 452.244 724.945 454.308 722.278C461.958 712.397 463.263 701.062 460.997 689ZM456.487 473.514L456.478 473.51C456.469 473.507 456.459 473.503 456.45 473.5V478.489C456.463 478.492 456.475 478.493 456.488 478.494L456.505 478.497C456.512 478.497 456.519 478.499 456.525 478.5L456.531 477.425L456.538 475.909L456.55 473.539C456.529 473.532 456.508 473.522 456.487 473.514ZM110.219 51C110.812 50.7396 111.406 50.4838 112 50.2234C111.551 47.4047 111.107 44.5861 110.541 41C109.694 41.4678 108.947 41.8801 108.258 42.2603C106.699 43.1202 105.44 43.8152 104 44.6135C104.449 45.171 104.844 45.6806 105.21 46.1522L105.211 46.1533C105.969 47.1304 106.601 47.9446 107.32 48.6839C107.914 49.3001 108.617 49.8137 109.319 50.3276C109.622 50.549 109.924 50.7703 110.219 51ZM123.869 82.2636C122.148 79.9139 121.967 76.437 121.5 67.5C122.153 69.1004 122.712 70.4819 123.213 71.7203L123.229 71.7607L123.232 71.769L123.234 71.7741L123.242 71.7926C124.158 74.0563 124.88 75.8418 125.63 77.6171C126.502 79.6832 127.405 81.7363 128.366 83.9185L128.368 83.9244C128.572 84.3875 128.779 84.8565 128.988 85.3326C129.157 85.7169 129.327 86.1057 129.5 86.5C126.685 84.7991 124.965 83.7599 123.869 82.2636ZM419.452 618C426.097 612.87 427.391 608.14 424.654 599C419.244 607.498 418.258 611.107 419.452 618ZM448.165 664.778L448.164 664.778C440.368 662.706 433.954 661.001 427 656.26C432.558 653.32 436.53 651.216 440.709 649C445.447 652.735 446.91 657.784 448.796 664.295L448.869 664.549L449 665L448.165 664.778ZM343.5 636.5C329.422 631.279 314.645 629.482 299.5 629.5C313.552 634.868 328.48 635.895 343.5 636.5ZM91.8484 31.8917C89.3794 24.0234 88.7693 15.8613 90.4387 7.5C96.6297 9.5368 98.905 20.6171 96.6462 38.5C95.9642 37.5887 95.2776 36.798 94.6396 36.0635L94.6389 36.0626C93.3842 34.6177 92.3183 33.3903 91.8484 31.8917ZM439 646.767C437.812 645.497 436.746 644.357 435.758 643.299L435.757 643.298C434.031 641.45 432.541 639.856 431.048 638.265C428.1 635.126 426.531 633.456 424.698 633.082C422.613 632.656 420.186 633.905 415 636.574C415.075 636.942 415.15 637.311 415.224 637.68C416.512 644.073 417.813 650.527 424.854 655L425.273 654.756C429.475 652.308 433.795 649.79 439 646.767ZM375.5 648.731C384.177 644.849 392.751 641.018 402.863 636.5L404.606 640.488C407.277 646.599 409.889 652.572 412.5 658.536C395.656 666.203 384.686 662.651 375.5 648.731ZM413.984 252.804L413.971 252.813C413.637 253.043 413.304 253.273 412.976 253.5C412.655 253.058 412.344 252.607 412.033 252.157C411.397 251.237 410.762 250.316 410.042 249.467C390.878 226.747 368.107 208.175 342.838 192.534C331.906 185.767 320.874 179.155 309.796 172.627C296.921 165.047 283.42 158.851 269.268 153.85C255.156 148.87 241.841 142.223 230.007 132.827C226.989 130.429 223.773 128.275 220.553 126.119L220.552 126.119L220.551 126.118L220.551 126.118L220.55 126.117L220.549 126.117L220.548 126.116L220.548 126.116L220.547 126.115L220.546 126.114L220.546 126.114L220.545 126.113L220.544 126.113C217.827 124.293 215.107 122.472 212.5 120.5C218.329 121.841 224.17 123.13 230.006 124.418L230.011 124.419L230.012 124.419L230.012 124.419L230.012 124.42L230.013 124.42L230.013 124.42L230.014 124.42L230.014 124.42L230.015 124.421L230.015 124.421L230.016 124.421L230.016 124.421L230.017 124.421C258.197 130.639 286.298 136.84 312.746 148.855C334.595 158.786 353.635 172.517 371.002 188.813C379.279 196.582 385.36 205.909 391.445 215.243C392.506 216.869 393.566 218.496 394.639 220.115C399.398 227.302 403.963 234.618 408.528 241.935C409.818 244.002 411.107 246.069 412.401 248.133C412.977 249.05 413.42 250.049 413.862 251.047C414.07 251.518 414.278 251.988 414.5 252.448L413.984 252.804ZM96.6253 495.63C97.2056 496.751 97.7859 497.871 98.3459 499C81.4384 483.092 69.3609 464.184 61.6179 442.43C49.6956 408.927 49.2902 374.748 53.2392 339.906C55.5767 319.322 61.6679 300.23 70.2118 281.576C82.8298 254.022 94.1165 225.916 102.565 196.801C104.426 190.379 105.711 183.789 106.996 177.198C107.66 173.792 108.323 170.386 109.067 167.004C109.51 164.989 110.066 162.998 110.76 160.51C111.132 159.176 111.544 157.7 112 156C111.835 176.196 110.253 194.244 104.863 211.913C100.937 224.78 97.164 237.694 93.3911 250.608L93.3904 250.61C89.0869 265.34 84.7832 280.07 80.2522 294.733C71.6432 322.575 67.9244 350.945 69.3109 379.991C70.5621 406.176 72.359 432.347 80.7126 457.463C83.3715 465.432 86.6728 473.194 89.9719 480.949L89.9726 480.951L89.9736 480.953L89.9746 480.956C91.0033 483.374 92.0317 485.792 93.0404 488.215C94.094 490.743 95.3594 493.186 96.6252 495.63L96.6253 495.63ZM335.967 605.566C335.959 605.413 335.971 605.244 335.982 605.073C336.007 604.698 336.033 604.316 335.856 604.087C333.891 601.532 331.911 598.988 329.81 596.548C311.223 574.956 294.124 552.354 279.172 528.118C263.162 502.179 252.007 474.611 245.805 444.878C241.501 424.287 234.656 404.403 223.962 386.033C221.79 382.289 219.294 378.449 216.073 375.626C210.367 370.641 204.418 373.032 203.481 380.441C202.939 384.749 202.858 389.191 203.223 393.523C203.471 396.545 203.711 399.568 203.951 402.592L203.953 402.617L203.955 402.642L203.955 402.643L203.955 402.644L203.955 402.645L203.955 402.645L203.955 402.646L203.955 402.647L203.955 402.648L203.955 402.649L203.955 402.65C205.027 416.156 206.1 429.671 207.881 443.09C209.673 456.615 212.028 470.174 215.587 483.336C220.514 501.551 229.192 517.884 243.44 531.225C252.848 540.034 262.205 549.271 269.633 559.669C283.626 579.247 303.89 589.727 324.21 600.237C327.881 602.135 331.554 604.035 335.192 605.989C335.282 606.04 335.477 605.902 335.683 605.756C335.779 605.688 335.877 605.618 335.967 605.566ZM462.108 442.425L460.508 442.5C460.389 441.642 460.261 440.786 460.134 439.929L460.134 439.928C459.852 438.024 459.57 436.121 459.373 434.21C453.589 378.613 433.514 328.66 399.262 284.476C382.316 262.62 362.104 244.053 338.321 229.725C312.698 214.291 288.845 196.561 266.057 177.271C252.422 165.728 237.872 155.531 221.142 148.671C207.497 143.081 195.453 134.856 184.324 125.231C183.285 124.332 182.224 123.459 181.157 122.581L181.156 122.58C178.186 120.137 175.175 117.659 172.5 114.5C174.346 115.167 176.223 115.775 178.1 116.382L178.101 116.382L178.102 116.383C182.282 117.736 186.462 119.088 190.296 121.096L191.697 121.83L191.697 121.83C202.354 127.411 213.097 133.037 222.867 139.952C235.411 148.84 248.641 156.193 263.146 160.886C279.971 166.326 295.617 174.083 310.942 182.627C332.154 194.454 352.716 207.257 371.578 222.656C398.917 244.98 420.649 271.558 435.615 303.666C451.794 338.379 463.384 374.169 463.499 412.858C463.519 419.621 463.088 426.381 462.657 433.141C462.459 436.236 462.262 439.33 462.108 442.425ZM117.455 145C117.278 145.289 117.133 145.501 117.02 145.665C116.836 145.933 116.739 146.075 116.732 146.22C116.662 147.958 116.597 149.691 116.587 151.429C116.461 176.014 113.354 200.087 105.95 223.706C97.3207 251.21 89.4446 278.952 81.6638 306.705C76.6038 324.757 74.4905 343.316 75.1029 362.036C75.4906 373.834 76.3548 385.616 77.219 397.398C77.4626 400.72 77.7062 404.041 77.9391 407.362C80.9962 451.05 95.5387 490.271 124.277 523.92C125.512 525.358 126.835 526.725 128.158 528.091C128.771 528.725 129.385 529.359 129.99 530C130.107 526.751 129.189 524.155 128.272 521.566L128.203 521.37C127.354 518.986 126.467 516.613 125.581 514.24C123.611 508.968 121.642 503.696 120.081 498.308C112.671 472.702 109.695 446.384 108.118 419.891C104.163 353.63 109.489 287.816 117.505 222.098C119.684 204.21 120.583 186.148 121.431 168.131C121.792 160.457 120.964 152.614 117.455 145ZM174.358 125.521L174.391 125.481C174.518 125.32 174.645 125.16 174.774 125C175.397 125.48 176.034 125.945 176.671 126.411C178.057 127.424 179.444 128.438 180.692 129.598C192.814 140.877 206.912 148.759 222.143 155.175C231.734 159.221 241.341 164.068 249.57 170.335C280.925 194.198 312.829 217.18 346.035 238.443C374.296 256.547 395.63 281.645 412.998 310.067C434.889 345.907 447.97 384.87 453.037 426.524C455.007 442.73 453.978 464.231 449.736 477C449.665 476.42 449.579 475.84 449.494 475.261C449.465 475.063 449.436 474.866 449.407 474.669C449.429 475.348 449.448 476.027 449.464 476.707C449.943 496.56 445.527 516.04 440.747 535.246C438.189 545.509 435.06 555.634 431.933 565.754L431.932 565.755C431.024 568.696 430.115 571.636 429.221 574.579C428.135 578.149 426.528 581.555 423.798 584.811C423.905 584.194 423.994 583.571 424.083 582.948C424.276 581.599 424.469 580.25 424.844 578.954C426.846 572.047 428.878 565.148 430.91 558.25L430.91 558.25C433.396 549.811 435.882 541.373 438.313 532.919C445.038 509.542 444.166 485.801 442.041 461.901C439.43 432.542 427.864 406.236 414.915 380.446C399.182 349.118 381.037 319.193 356.177 294.139C347 284.891 337.039 276.415 327.081 267.94L327.08 267.939L327.077 267.937C322.822 264.315 318.567 260.695 314.374 257.014C313.584 256.321 312.795 255.625 312.006 254.93L311.998 254.923C307.983 251.383 303.964 247.84 299.709 244.609C294.644 240.751 289.375 237.087 283.862 233.92C278.688 230.956 273.08 228.744 267.167 226.835C270.482 233.313 275.457 238.295 280.816 242.755C312.505 269.101 332.739 302.164 344.064 341.874C354.807 379.551 359.019 417.646 359.278 456.501C359.311 461.387 359.315 466.277 359.318 471.167V471.174V471.175C359.331 489.001 359.343 506.841 360.798 524.552C362.148 540.915 365.066 557.161 367.98 573.387L367.98 573.387L367.98 573.39C368.769 577.781 369.557 582.171 370.314 586.561C371.378 592.741 373.033 598.825 374.687 604.904L374.687 604.904L374.687 604.905C375.25 606.973 375.812 609.041 376.351 611.112C376.964 613.484 377.971 615.761 379.716 617.815C378.993 614.498 378.254 611.184 377.514 607.871L377.514 607.871C375.928 600.764 374.343 593.659 372.922 586.521C366.307 553.269 364.776 519.575 364.502 485.791C364.323 463.676 364.233 441.561 364.203 419.441C364.143 378.219 353.515 339.547 336.098 302.472C335.195 300.552 334.48 298.543 333.765 296.533C333.426 295.581 333.087 294.629 332.729 293.687C331.644 292.116 330.56 290.543 329.476 288.971C328.392 287.398 327.307 285.826 326.223 284.255C326.088 283.844 325.95 283.435 325.813 283.028L325.813 283.026C325.703 282.7 325.594 282.374 325.486 282.047C325.507 281.669 325.57 281.269 325.633 280.866C325.777 279.956 325.922 279.035 325.59 278.339C325.168 277.458 324.668 276.615 324.163 275.763L324.163 275.763C323.388 274.455 322.602 273.129 322.071 271.626L322.481 271.956C336.89 283.519 351.27 295.059 362.533 309.751C387.592 342.446 409.611 376.901 425.192 415.289C435.631 440.999 438.622 467.499 436.973 494.825C435.826 513.877 430.586 532.01 424.626 550.013C420.328 562.979 416.126 576.001 412.502 589.166C409.381 600.507 408.752 612.092 412.65 623.716C407.342 628.081 402.063 631.96 395.194 632.944C393.34 637.78 389.535 638.862 385.513 640.006C383.349 640.621 381.122 641.255 379.103 642.5C378.483 640.533 377.9 638.689 377.343 636.928L377.34 636.916L377.339 636.916C376.186 633.268 375.144 629.975 374.123 626.674C371.367 617.765 368.532 608.876 365.696 599.987L365.695 599.985L365.695 599.985C359.174 579.544 352.653 559.103 347.105 538.403C338.9 507.796 331.592 476.871 325.775 445.732C315.406 390.211 290.332 342.048 255.508 298.316C239.89 278.706 224.527 258.898 213.022 236.51C204.906 220.724 196.951 204.854 189.389 188.8C182.883 174.993 174.304 162.608 165.027 150.605C160.062 144.182 153.632 140.816 145.427 140.975C138.742 141.104 135.841 143.103 133.887 149.467C132.431 154.19 131.13 158.968 132.86 164.005C133.362 165.458 133.692 166.969 134.023 168.482C134.251 169.525 134.479 170.57 134.764 171.597C135.467 174.098 136.325 176.559 137.8 178.891C137.528 177.638 137.259 176.384 136.99 175.13C136.391 172.335 135.791 169.537 135.158 166.754C133.887 161.141 134.884 155.836 136.903 150.541C138.618 146.051 141.748 144.396 146.359 144.43C153.368 144.495 158.931 147.488 162.695 153.081C163.857 154.811 165.03 156.538 166.202 158.265C172.059 166.891 177.932 175.541 182.729 184.733C187.574 194.019 192.059 203.495 196.543 212.97L196.544 212.972L196.544 212.973C201.771 224.017 206.997 235.059 212.792 245.797C221.471 261.881 230.579 278.11 241.999 292.27C273.728 331.607 296.005 375.479 311.862 423.229C323.806 459.206 333.077 495.784 341.397 532.676C347.937 561.652 355.724 590.26 367.458 617.655C368.141 619.246 368.709 620.897 369.183 622.563C369.264 622.852 369.142 623.198 368.933 623.79L368.933 623.79L368.933 623.791C368.808 624.145 368.652 624.587 368.49 625.158C367.763 624.075 367.062 623.056 366.386 622.076L366.386 622.076C364.972 620.024 363.674 618.14 362.503 616.179C351.417 597.594 343.341 577.746 336.477 557.237C322.26 514.727 310.227 471.601 298.572 428.35C291.394 401.736 277.222 378.766 260.872 357.004C255.458 349.799 249.671 342.804 243.449 336.291C223.884 315.802 208.919 292.414 198.077 266.351C195.737 260.723 193.462 255.066 191.188 249.409C187.82 241.03 184.452 232.652 180.869 224.369C178.472 218.83 175.316 213.5 171.722 208.647C170.422 206.892 166.88 205.702 164.58 206.013C169.915 208.875 171.819 213.49 173.641 217.906L173.641 217.906C177.862 228.149 181.774 238.521 185.622 248.913C198.53 283.74 216.424 315.48 241.579 343.144C258.739 362.012 273.045 383.115 283.115 406.638C288.369 418.92 292.351 431.817 296.059 444.683C298.918 454.609 301.541 464.604 304.163 474.598L304.164 474.599C307.762 488.31 311.359 502.019 315.565 515.541C325.869 548.693 337.056 581.595 354.506 611.912L354.784 612.395L354.784 612.395C356.699 615.716 358.62 619.046 360 622.953C359.484 622.606 358.968 622.262 358.453 621.918C353.36 618.518 348.354 615.176 344.167 610.55C311.937 574.919 287.162 534.459 267.726 490.761C261.718 477.256 257.571 462.808 253.734 448.48C252.741 444.777 251.785 441.064 250.829 437.351L250.829 437.349C246.113 419.027 241.405 400.733 232.178 383.933C229.937 379.862 227.457 375.866 224.648 372.179C221.714 368.328 217.667 366.148 212.607 366.003C204.424 365.773 199.733 369.026 198.481 377.128C197.682 382.272 197.393 387.685 198.046 392.828C198.569 396.921 199.082 401.015 199.596 405.11L199.598 405.13L199.601 405.151L199.603 405.171L199.606 405.191C202.175 425.674 204.744 446.167 208.421 466.455C210.184 476.189 213.779 485.621 217.355 495.002L217.355 495.003L217.355 495.003L217.355 495.003L217.355 495.003C218.262 497.383 219.168 499.759 220.042 502.136C223.909 512.658 230.571 521.453 238.076 529.824C248.969 541.977 259.443 554.535 269.542 567.356C277.975 578.062 287.466 587.167 299.567 593.683C310.454 599.537 321.122 605.789 331.791 612.042C333.714 613.168 335.636 614.295 337.56 615.42C344.282 619.351 350.843 623.576 356.228 629.234C356.075 629.481 355.921 629.727 355.767 629.973L355.764 629.978C355.552 630.317 355.34 630.657 355.13 631C353.977 630.749 352.824 630.497 351.672 630.246L351.657 630.242L351.642 630.239C349.433 629.756 347.225 629.274 345.015 628.8L344.959 628.788L344.95 628.786L344.94 628.784L344.93 628.782L344.92 628.78C333.829 626.402 322.738 624.024 311.642 621.656C289.567 616.951 267.906 610.356 248.27 599.415C222.193 584.877 200.521 564.822 185.128 538.894C174.998 521.822 170.262 502.675 167.997 483.203C162.723 437.809 162.852 392.414 168.631 346.965C173.436 309.174 174.115 271.288 166.186 233.686C165.701 231.388 165.151 229.101 164.601 226.814C163.716 223.141 162.833 219.469 162.224 215.751C161.867 213.565 162.008 211.296 162.163 208.793V208.792L162.18 208.523C161.578 209.8 161.167 211.315 161.194 212.421C161.339 218.492 161.967 224.612 163.098 230.583C168.711 260.261 169.265 290.186 167.156 320.147C166.308 332.206 165.085 344.239 163.862 356.271V356.272C162.584 368.841 161.307 381.41 160.456 394.01C158.138 428.37 159.554 462.617 166.314 496.525C172.535 527.709 186.901 554.309 209.886 576.488C227.448 593.437 246.081 608.547 269.48 616.81C271.106 617.382 272.631 618.237 273.962 619.967C273.328 619.823 272.691 619.687 272.053 619.552C270.698 619.265 269.34 618.977 268.015 618.595C246.331 612.345 225.663 603.719 206.507 591.772C201.601 588.714 196.921 585.07 192.808 581.013C170.665 559.196 154.21 533.879 144.794 504.028C130.368 458.266 125.906 411.889 134.251 364.462C135.536 357.146 136.725 349.813 137.914 342.48C139.75 331.154 141.586 319.828 143.777 308.568C148.218 285.762 147.665 262.876 145.97 239.871C145.944 240.264 145.903 240.657 145.862 241.05C145.779 241.852 145.696 242.654 145.736 243.451C147.102 271.557 143.134 299.096 137.646 326.581C131.669 356.531 126.001 386.611 126.454 417.358C126.978 451.897 132.671 485.711 142.64 518.72C144.708 525.57 147.869 532.095 151.028 538.616L151.028 538.616C152.323 541.292 153.619 543.966 154.838 546.662C155.052 547.133 155.277 547.599 155.504 548.067L155.505 548.067C156.513 550.147 157.545 552.275 157.61 555.149C156.9 554.317 156.167 553.501 155.434 552.684L155.434 552.684C153.836 550.905 152.239 549.126 150.875 547.184C141.723 534.172 135.981 519.51 131.325 504.49C122.83 477.125 118.045 449.048 117.168 420.405C117.024 415.732 116.87 411.058 116.716 406.383C115.969 383.719 115.222 361.043 115.602 338.394C116.245 299.688 120.423 261.185 125.004 222.748C125.129 221.7 125.254 220.652 125.379 219.604L125.386 219.551L125.386 219.55C126.744 208.195 128.102 196.833 128.982 185.439C130.183 169.921 129.106 154.628 122.766 140.05C122.089 138.501 121.867 136.752 121.602 134.664C121.464 133.581 121.315 132.409 121.086 131.126C122.883 131.499 124.557 132.144 126.134 132.751C129.684 134.119 132.737 135.295 135.582 132.736C137.671 130.857 139.261 128.433 141.065 125.681L141.066 125.679C141.935 124.354 142.853 122.953 143.902 121.5C144.845 121.838 145.854 122.206 146.911 122.591C149.449 123.517 152.262 124.543 155.103 125.487C156.94 126.097 158.812 126.595 160.685 127.092L160.687 127.093C161.547 127.322 162.407 127.55 163.263 127.789C163.577 127.993 163.876 128.212 164.17 128.446C165.096 128.974 166.072 129.452 167.048 129.931C169.205 130.989 171.365 132.048 172.988 133.646C177.53 138.121 181.777 142.994 185.555 148.134C202.912 171.766 222.732 192.931 246.715 210.04C249.322 211.894 251.764 213.997 254.157 216.115C257.587 219.158 260.707 221.614 265.652 218.179C267.182 217.12 270.856 218.019 272.965 219.128C273.972 219.658 274.985 220.185 276 220.712C281.978 223.819 288.01 226.955 293.273 231.031C321.857 253.136 350.405 275.256 375.384 301.607C396.226 323.593 413.887 347.672 426.23 375.285C436.063 397.28 442.906 420.082 446.527 443.56C444.115 426.055 440.174 408.828 434.601 391.944C425.647 364.833 411.095 340.631 393.579 318.197C375.554 295.106 354.524 274.925 332.097 256.173C320.459 246.448 308.767 236.754 296.63 227.667C288.98 221.932 280.646 217.005 272.232 212.432C269.198 210.783 264.961 210.589 261.388 210.923C258.154 211.221 255.903 210.664 253.473 208.636C248.767 204.72 243.891 201.004 238.926 197.422C220.281 183.981 204.636 167.615 191.127 149.127C187.319 143.915 183.47 138.732 179.621 133.55L179.62 133.549L179.62 133.548L179.619 133.547L179.618 133.546L179.618 133.545L179.617 133.545C177.743 131.021 175.869 128.498 174 125.971C174.12 125.821 174.239 125.672 174.358 125.521ZM162.18 208.523C162.249 207.401 162.318 206.231 162.343 205C163.151 205.306 163.894 205.645 164.58 206.013C164.49 206.026 164.401 206.04 164.315 206.057C163.58 206.199 162.784 207.241 162.18 208.523ZM446.527 443.56C448.107 453.805 449.073 464.178 449.407 474.669C449.264 473.674 449.134 472.678 449.089 471.679C448.656 462.234 447.807 452.858 446.527 443.56ZM86.2376 226.598L84.9146 226C84.4208 226.936 83.9252 227.871 83.4294 228.806C82.5063 230.548 81.5828 232.29 80.6699 234.039C78.7323 237.771 76.8837 241.56 75.0351 245.349L75.0349 245.349L75.0346 245.35L75.0343 245.351L75.034 245.351L75.0338 245.352C70.9827 253.655 66.9315 261.96 61.9421 269.657C45.5496 294.942 34.8401 322.64 25.6692 350.962C21.7502 363.071 18.0919 375.923 18.0067 388.465C17.8363 412.942 20.9033 437.284 29.2674 460.704C34.0327 474.046 41.5312 485.823 49.0247 497.591L49.0265 497.594L49.0283 497.597C50.4545 499.837 51.8804 502.076 53.2873 504.326C61.8218 517.961 71.4488 530.753 84.0977 541.131C96.9771 551.694 109.852 562.356 121.919 573.817C159.505 609.505 203.651 631.937 254.838 640.634C267.452 642.779 280.121 643.951 293 642.026C290.088 640.714 287.071 639.926 284.019 639.248C257.098 633.273 231.945 622.915 209.554 606.946C196.405 597.567 183.753 587.491 171.104 577.415C166.138 573.46 161.173 569.506 156.177 565.593C154.007 563.892 151.915 562.091 149.823 560.29C147.702 558.464 145.581 556.638 143.378 554.916C123.007 538.982 104.945 520.724 88.3173 501.01C72.2206 481.919 60.589 460.445 55.1666 436.107C51.4982 419.63 48.6317 402.908 46.5469 386.161C42.8835 356.787 45.4895 327.882 56.4094 300.119C61.0608 288.289 65.9348 276.545 70.8094 264.8L70.8099 264.799L70.8104 264.798L70.8108 264.797L70.8113 264.796L70.8117 264.795C73.4309 258.484 76.0502 252.174 78.6352 245.849C80.4161 241.495 82.1271 237.11 83.838 232.726C84.6355 230.682 85.433 228.639 86.2376 226.598ZM423.06 267.032C423.076 267.076 423.092 267.121 423.108 267.165C423.328 267.27 423.558 267.367 423.788 267.464L423.788 267.464C424.509 267.768 425.228 268.072 425.634 268.611C428.796 272.8 432.015 276.952 435.234 281.104L435.235 281.105L435.236 281.106L435.24 281.112C443.066 291.206 450.892 301.301 457.904 311.932C482.052 348.554 487.188 389.149 480.012 431.615C473.298 471.37 459.37 509.041 445.326 546.637C444.828 547.956 443.974 549.139 442.049 550C442.332 548.93 442.613 547.861 442.893 546.791C443.38 544.931 443.866 543.072 444.372 541.215C446.189 534.559 448.156 527.93 450.122 521.301C454.531 506.439 458.94 491.576 461.669 476.409C466.745 448.155 470.231 419.503 467.152 390.522C464.044 361.263 455.507 333.621 443.208 307.097C439.597 299.317 435.497 291.763 431.396 284.208L431.396 284.207C429.257 280.266 427.117 276.325 425.048 272.351C424.437 271.179 424.019 269.904 423.6 268.627C423.44 268.138 423.279 267.649 423.108 267.165C423.006 267.117 422.906 267.067 422.81 267.014L422.409 266.287L421.277 265.204L421.138 265.071L420.927 264.869L420.799 264.746L420.771 264.72C419.848 263.836 418.925 262.953 418 262.069C418.242 261.897 418.482 261.725 418.721 261.554C418.906 261.422 419.089 261.289 419.272 261.158L419.492 261C420.294 262.449 421.092 263.898 421.891 265.347L422.409 266.287L422.992 266.845L423.011 266.897C423.028 266.942 423.044 266.987 423.06 267.032ZM147.307 67.8178L147.273 67.7855L147.285 67.8242L147.307 67.8178ZM151.949 60.7698C151.478 63.6705 150.98 66.7307 147.307 67.8178C148.184 68.6484 149.093 69.4546 150.003 70.261C152.1 72.1215 154.199 73.9828 155.915 76.1456C158.023 78.8026 159.663 81.8373 161.293 84.853C161.628 85.4728 161.962 86.0919 162.301 86.7067C166.718 94.7344 173.545 100.164 181.279 104.762C184.358 106.6 187.295 106.867 190.5 106.091C188.605 104.284 186.609 103.15 184.61 102.014L184.49 101.946C173.296 95.5604 165.531 86.2433 160.667 74.4534C158.862 70.0618 157.873 65.7457 159.024 60.775C160.267 55.4114 159.176 50.1484 153.831 45.5C153.643 47.1652 153.49 48.7348 153.344 50.2352L153.344 50.2358L153.343 50.2365C153.018 53.5685 152.726 56.5598 152.167 59.5008C152.088 59.9157 152.019 60.341 151.949 60.7698ZM156.321 95.787C153.292 86.4477 150.263 77.1033 147.285 67.8242L147.262 67.8307C142.931 71.6382 141.501 71.6633 139.102 66.889C137.865 64.4271 136.862 61.8494 135.86 59.2717C134.836 56.6394 133.812 54.0071 132.539 51.4982C128.659 43.838 124.982 43.6114 118.5 50.5917C125.966 55.1746 129.668 62.4571 132.727 70.2129C133.444 72.0317 134.409 73.7578 135.371 75.4783L135.372 75.4788C135.552 75.8018 135.733 76.1246 135.912 76.4478C136.023 76.6439 136.37 76.7084 136.726 76.7745L136.728 76.7747C136.892 76.8054 137.059 76.8364 137.205 76.8809C137.139 75.4909 137.073 74.1765 137.007 72.862L137.223 72.7678L137.446 72.6707C137.749 72.5385 138.052 72.407 138.356 72.2778C143.458 79.3306 148.567 86.3834 153.673 93.4327L155.824 96.4014C155.986 96.1949 156.153 95.9935 156.321 95.787Z" fill="#EBEBEB"/>
</svg>
