<svg width="480" height="480" viewBox="0 0 480 480" fill="none" xmlns="http://www.w3.org/2000/svg">
<rect width="480" height="480" fill="#F7F7F7"/>
<mask id="mask0_6_766" style="mask-type:alpha" maskUnits="userSpaceOnUse" x="0" y="0" width="480" height="480">
<rect width="480" height="480" fill="white"/>
</mask>
<g mask="url(#mask0_6_766)">
<path fill-rule="evenodd" clip-rule="evenodd" d="M276.389 100.334C276.003 97.1846 275.617 94.0349 275.204 90.8885C276.652 70.9743 272.532 51.9724 267.93 32.8592C261.695 7.02264 246.886 -11.7976 225.026 -25.8896C220.848 -28.5917 216.69 -31.3378 212.531 -34.0849C204.314 -39.5116 196.092 -44.9424 187.689 -50.0462C176.036 -57.1071 164.122 -63.8008 151.986 -69.9011C142.893 -74.4625 132.835 -76.8247 122.591 -75.7382C100.805 -73.4204 79.0566 -70.6873 57.3449 -67.7576C52.3967 -67.0905 47.4724 -66.1607 42.5505 -65.2315C35.2159 -63.8467 27.8865 -62.4629 20.4906 -61.9503C10.5069 -61.2568 1.33976 -58.4198 -5.74903 -52.4307C-18.108 -41.9359 -29.7247 -30.3471 -40.4878 -18.1909C-45.9575 -12.0035 -50.6019 -5.08884 -55.2466 1.82614C-57.567 5.2807 -59.8875 8.73535 -62.3109 12.0995C-74.5214 28.9728 -80.7195 47.7151 -80.9792 68.5824C-81.2762 91.7823 -78.4926 114.133 -65.7625 134.284C-61.3088 141.323 -60.2696 149.218 -60.8634 157.395C-61.9397 171.877 -57.783 184.867 -49.989 196.964C-43.0116 207.8 -34.5867 217.312 -24.4174 225.2C0.0778809 244.191 27.134 257.652 57.8274 263.53C63.6734 264.651 69.358 266.775 75.0186 268.89C76.0063 269.259 76.9933 269.627 77.9803 269.99C80.3388 270.863 82.685 271.797 85.0314 272.732C96.1997 277.18 107.375 281.632 119.919 279.41C121.149 279.192 122.378 278.975 123.608 278.758C141.65 275.577 159.723 272.39 176.852 265.588C188.803 260.842 200.42 254.99 208.176 244.402C215.839 233.935 225.178 225.188 234.51 216.448C235.754 215.282 236.999 214.117 238.239 212.947C257.019 195.243 270.528 174.614 277.468 149.559C280.141 139.847 280.697 130.431 279.139 120.597C278.049 113.87 277.22 107.103 276.389 100.334ZM123.742 274.262L86.1083 267.443C97.7621 274.574 110.232 277.24 123.742 274.262ZM267.782 100.92C268.524 75.5209 263.365 54.8909 258.058 34.1609C252.12 10.9869 238.684 -6.17191 218.791 -18.6619C202.98 -28.593 187.059 -38.3758 171.025 -47.9398C164.419 -51.8782 157.442 -55.2306 150.501 -58.5645C137.251 -64.9318 123.222 -66.2594 108.822 -64.3422C95.9334 -62.6306 83.0564 -60.8838 70.1779 -59.1368C60.1753 -57.7799 50.1717 -56.4229 40.1611 -55.0822C26.5402 -53.2577 13.5132 -49.7162 1.82224 -42.0397C-5.60058 -37.1632 -13.0605 -32.2792 -20.8173 -27.9366C-27.8319 -23.9797 -32.434 -18.0945 -36.4053 -11.3563L-36.6773 -10.8955L-37.3174 -9.81079C-42.1331 -1.64999 -46.951 6.51465 -52.3272 14.3282C-66.4676 34.9989 -72.9626 58.0505 -74.8554 82.7263C-76.1173 99.6107 -72.6657 115.149 -62.4593 128.87C-56.0757 137.437 -52.4756 147.038 -51.6591 157.61C-50.6942 169.492 -46.2405 179.954 -39.5971 189.681C-29.3165 204.819 -16.3265 217.275 -1.66648 228.1C8.13164 235.335 18.0782 242.526 30.066 245.6C44.3921 249.264 58.8295 252.653 73.3039 255.572C79.4224 256.803 85.5976 257.682 91.7668 258.56L91.767 258.56C96.7495 259.27 101.728 259.978 106.669 260.871C121.664 263.571 136.546 264.632 151.726 261.706C174.996 257.215 196.3 249.59 211.368 229.784C215.674 224.151 220.573 218.81 225.954 214.234C241.208 201.292 250.004 184.367 256.833 166.166C265.175 143.943 266.591 120.57 267.778 100.984L267.782 100.92Z" fill="#EBEBEB"/>
<path fill-rule="evenodd" clip-rule="evenodd" d="M214.378 78.6977C214.3 78.7716 214.222 78.846 214.144 78.9209L213.959 78.7388C214.095 78.7191 214.236 78.7073 214.378 78.6977ZM242.805 76.4379C232.712 68.4972 224.3 69.2553 214.378 78.6977C214.43 78.6941 214.484 78.6908 214.537 78.6875C214.957 78.6613 215.374 78.6354 215.704 78.46C229.768 71.1931 231.846 73.6379 239.895 83.1078C240.451 83.7618 241.036 84.4493 241.654 85.1694C241.84 85.3924 242.026 85.6488 242.174 85.883C248.485 94.1238 251.084 102.257 242.545 112.449C237.533 118.434 234.006 125.083 231.668 132.644C228.178 143.899 220.901 145.486 212.511 137.476C212.474 137.442 212.438 137.408 212.401 137.375C211.993 136.997 211.589 136.625 211.249 136.205C197.4 119.566 178.11 112.067 158.922 104.607C157.689 104.128 156.457 103.649 155.226 103.167C151.332 101.652 146.684 101.799 142.323 101.936C141.944 101.948 141.567 101.96 141.193 101.971C137.666 102.071 134.844 104.665 134.585 108.148C134.468 109.88 135.543 111.748 136.568 113.527C136.847 114.012 137.122 114.491 137.369 114.958C137.941 115.998 138.628 116.967 139.313 117.934C139.918 118.788 140.522 119.64 141.044 120.537C141.702 121.638 142.287 122.796 142.871 123.952C143.903 125.994 144.931 128.031 146.353 129.737C156.971 142.487 170.299 150.943 186.857 153.634C195.322 155.013 203.861 156.032 212.399 156.861C219.119 157.508 222.312 161.738 224.205 167.399C226.804 175.134 226.321 182.787 221.755 189.627C219.509 193 216.783 196.067 214.062 199.128C213.231 200.063 212.4 200.998 211.583 201.942C210.904 202.739 210.109 203.46 209.315 204.18C208.11 205.274 206.909 206.364 206.125 207.71C200.519 217.527 191.943 223.14 181.622 227.255C180.23 227.813 178.787 228.319 177.335 228.828C170.777 231.128 164.037 233.49 160.907 241.056C160.662 241.608 159.862 241.962 159.131 242.286C158.975 242.356 158.823 242.423 158.679 242.491C139.931 251.665 125.081 246.535 121.813 224.207C121.61 222.808 121.633 221.38 121.656 219.951C121.666 219.292 121.677 218.633 121.665 217.977C121.405 204.685 124.635 191.861 128.942 179.624C135.587 160.827 130.946 143.241 125.637 125.563C123.521 118.56 118.843 117.434 112.384 121.043C108.56 123.195 106.815 126.648 107.112 130.633C107.425 135.334 108.294 140.009 109.161 144.668C109.321 145.528 109.48 146.386 109.636 147.245C110.042 149.526 110.657 151.819 111.27 154.108C112.451 158.517 113.629 162.915 113.312 167.202C111.864 184.951 109.265 202.618 106.629 220.252C105.107 230.771 99.9095 234.815 89.3659 233.552C83.2416 232.817 77.1863 231.566 70.6944 230.224C67.6626 229.598 64.5357 228.952 61.2619 228.329C61.8139 227.932 62.3591 227.547 62.8953 227.169C67.8773 223.651 72.0757 220.686 73.5505 213.873C72.5014 214.767 71.5864 215.595 70.7488 216.352C68.9777 217.953 67.5529 219.241 65.9398 220.185C64.0835 221.27 61.2619 222.449 59.5913 221.791C56.3614 220.527 57.438 217.245 58.4033 214.795C59.7865 211.377 61.2982 208.02 62.8093 204.664C63.4478 203.246 64.0861 201.828 64.7146 200.406C60.7793 203.551 57.141 207.175 55.4333 211.554C54.2501 214.639 53.9375 218.059 53.5927 221.831C53.4289 223.622 53.2579 225.493 52.983 227.444C51.0978 226.795 49.137 226.195 47.1467 225.587C42.5914 224.194 37.8811 222.754 33.5664 220.553C26.1042 216.736 18.7162 213.416 10.2517 212.405C5.12835 211.788 0.487673 209.223 -2.22248 204.555C0.428051 204.065 2.92602 203.603 5.36814 203.15C7.09918 202.83 8.80216 202.514 10.5115 202.198C6.88389 201.85 5.12187 201.681 3.47321 201.156C1.91611 200.66 0.460125 199.847 -2.37098 198.265C-1.05444 187.96 6.38299 183.416 13.8505 178.852C17.1224 176.853 20.4001 174.85 23.1713 172.357C21.9015 171.619 21.0256 171.104 20.0224 170.515C19.7937 170.381 19.5584 170.243 19.3102 170.097C22.4962 167.899 25.4686 165.834 28.4351 163.773C29.9279 162.736 31.4191 161.7 32.9353 160.648C33.8119 161.95 33.9291 163.524 34.0452 165.082C34.2485 167.813 34.4482 170.494 38.7268 171.573C36.9819 163.86 40.249 158.296 45.8178 153.872C46.9033 153.014 48.0777 152.268 49.2519 151.523C50.0856 150.994 50.9192 150.464 51.7207 149.895C58.7374 144.94 64.6404 139.03 67.8703 130.834C66.8174 131.332 65.785 132.221 64.8263 133.046C63.5539 134.142 62.4111 135.126 61.5218 134.937C56.4707 133.869 53.6787 136.629 50.9139 139.363C49.7161 140.547 48.5234 141.726 47.1543 142.587C44.2257 144.431 41.5126 146.604 38.8003 148.776C36.8707 150.321 34.9415 151.866 32.9353 153.292C20.0899 162.407 6.57624 170.305 -8.31105 175.654C-16.5158 178.609 -19.263 183.509 -17.481 192.299C-15.105 203.993 -0.180584 217.55 11.6624 219.568C15.5958 220.238 19.3942 221.612 23.1827 222.983C24.6506 223.514 26.117 224.045 27.5892 224.534C29.6359 225.213 31.6702 225.965 33.7059 226.717C37.7629 228.216 41.8256 229.717 46.0034 230.652C54.7102 232.595 63.4973 234.165 72.2761 235.732C75.4382 236.297 78.5993 236.862 81.7552 237.443C82.3031 237.544 82.851 237.647 83.3992 237.75C86.3426 238.303 89.2943 238.857 92.2988 239.124C101.32 239.93 107.743 235.994 111.641 227.883C112.363 226.411 113.027 224.911 113.799 223.165C114.099 222.486 114.416 221.769 114.76 221.003C115.266 222.885 115.698 224.682 116.113 226.407C116.976 229.993 117.764 233.27 118.992 236.369C124.449 250.078 136.218 255.133 150.103 250.085C151.453 249.596 152.754 249.021 154.066 248.442C154.378 248.304 154.69 248.167 155.004 248.03L155.006 248.029C161.205 245.312 167.404 242.595 173.566 239.848C175.357 239.053 177.161 238.283 178.963 237.513C183.437 235.603 187.905 233.695 192.166 231.411C199.331 227.567 205.234 222.278 208.576 214.457C209.541 212.145 211.211 209.688 213.29 208.346C219.03 204.558 224.942 201.025 230.304 197.82C231.983 196.817 233.608 195.846 235.157 194.909C235.157 193.613 235.127 192.456 235.098 191.391C235.044 189.358 235 187.664 235.194 185.995C235.383 184.371 235.715 182.763 236.046 181.155C236.432 179.285 236.817 177.417 236.976 175.528C237.682 166.622 234.749 158.623 230.294 151.887C231.378 150.478 232.555 149.159 233.703 147.873C236.174 145.105 238.513 142.487 239.501 139.431C242.312 130.633 247.252 123.322 252.273 115.89C252.558 115.469 252.842 115.049 253.126 114.627C260.106 104.305 259.549 94.8598 251.715 85.095C249.116 81.8872 246.035 78.9879 242.805 76.4379ZM-3.64004 190.018L-3.64034 190.018C-5.27471 192.285 -6.90464 194.545 -8.57092 196.857C-12.5062 189.181 -12.0607 187.17 -4.85838 183.219C-2.82926 182.094 -0.730827 181.057 1.53163 179.94C2.58075 179.421 3.66513 178.886 4.79422 178.316C1.84289 182.415 -0.904793 186.225 -3.64004 190.018ZM110.23 134.056C109.673 126.02 111.307 124.533 120.7 121.671C129.573 144.672 129.981 167.324 118.138 189.995C118.101 188.508 118.035 187.02 117.969 185.532C117.837 182.556 117.705 179.58 117.804 176.613C118.138 167.882 116.356 159.608 113.72 151.337C111.901 145.769 110.639 139.877 110.23 134.056ZM203.898 141.792C192.315 127.15 156.154 109.483 143.309 111.706C142.752 127.827 175.942 144.594 203.898 141.792Z" fill="#EBEBEB"/>
<path d="M214.403 78.8881C203.094 88.3813 189.144 91.5742 175.306 94.808C165.783 97.0371 156.111 99.3592 146.215 97.0334C143.909 96.4938 141.528 96.0398 139.37 95.0834C131.67 91.6374 129.029 82.896 134.758 76.7595C138.85 72.3721 144.355 68.4163 150.01 66.604C157.785 64.0995 166.229 63.2362 174.487 62.6631C187.21 61.7774 199.56 59.459 212.469 55.2092C210.46 53.9812 209.344 53.3002 207.744 52.3326C210.274 50.818 212.506 49.4746 214.961 47.9824C215.891 49.3779 216.672 50.5427 217.23 51.3949C218.57 50.9446 219.165 50.8478 219.648 50.565C233.896 42.1883 230.808 18.2042 219.053 9.5521C216.933 7.97053 214.664 6.35175 212.246 5.39536C205.475 2.76437 201.048 -2.00267 197.663 -8.29546C195.468 -12.3629 192.269 -15.8907 188.623 -20.8438C187.805 -16.5792 187.284 -13.9035 186.801 -11.2279C186.317 -11.1423 185.871 -11.0567 185.424 -10.9711C184.68 -13.5165 183.639 -16.0247 183.341 -18.6222C183.118 -20.3526 176.719 -22.377 183.527 -23.8023C174.264 -35.1933 155.143 -32.6442 150.084 -19.5748C149.452 -17.9114 148.708 -16.2256 148.447 -14.484C145.657 4.01102 137.064 20.4966 130.368 37.6296C128.917 41.3733 126.202 44.7783 123.486 47.8298C121.217 50.3603 118.055 51.3614 114 48.1126C121.18 43.941 123.04 36.9114 125.606 30.1721C128.136 23.5146 131.447 17.1622 134.088 10.542C136.952 3.39328 139.408 -3.90799 142.012 -11.1497C142.309 -11.9833 142.458 -12.8764 142.644 -13.7435C147.108 -31.9409 156.743 -38.4272 175.306 -35.2082C178.654 -34.6314 182.337 -32.9754 184.717 -30.6347C190.595 -24.8182 196.398 -18.745 201.086 -11.9684C204.954 -6.36407 208.898 -2.03988 215.556 0.341782C228.056 4.81483 235.458 14.1331 237.504 27.288C240.22 44.89 231.701 58.9269 213.734 65.2755C201.681 69.5364 189.107 71.8771 176.161 72.0483C169.354 72.1376 162.435 72.5321 155.813 73.9127C151.014 74.91 146.178 77.1577 142.123 79.9487C137.064 83.4393 137.771 88.7943 143.425 90.8746C147.815 92.4673 152.688 93.3455 157.338 93.2972C174.487 93.126 190.893 89.3265 206.442 81.9471C209.046 80.7227 211.836 80.0082 214.589 79.063C214.589 79.0705 214.403 78.8881 214.403 78.8881Z" fill="#EBEBEB"/>
<path d="M66 119.705C62.8196 123.05 59.935 126.695 56.4587 129.68C42.5166 141.649 28.5006 153.645 12.0438 161.968C3.68591 166.193 -5.22667 169.575 -14.2502 172.081C-22.9039 174.476 -31.2618 172.018 -38.5841 166.716C-44.1684 162.673 -47.5337 157.272 -47.6076 150.192C-47.6446 140.112 -47.9405 130.014 -47.4227 119.961C-47.0159 112.046 -49.1609 105.448 -54.1904 99.4712C-56.8531 96.3156 -59.4048 92.9409 -61.2909 89.2877C-67.1709 77.8643 -57.001 62.3422 -44.1683 63.0216C-42.948 63.0847 -41.8015 64.3061 -41.1359 64.6922C-45.6476 67.6771 -50.3813 70.0642 -54.1534 73.5243C-59.1459 78.1056 -59.072 82.2376 -55.2259 87.6951C-54.5232 88.6566 -53.8206 89.6367 -52.97 90.4275C-42.0974 100.407 -38.769 113.148 -38.88 127.43C-38.917 133.916 -37.6226 140.398 -37.2158 146.903C-36.6981 155.553 -31.4836 160.234 -24.0503 163.011C-13.7324 166.876 -3.41456 165.465 6.08972 160.966C15.1132 156.704 23.8409 151.528 31.8289 145.547C43.1453 137.031 53.6111 127.408 64.4837 118.26C65.0015 118.739 65.4823 119.222 66 119.705Z" fill="#EBEBEB"/>
<path d="M20.0783 -23.5205C17.4484 -21.0172 14.7815 -18.5102 12.2998 -16.1591C11.2257 -22.878 12.5962 -24.9133 23.7823 -32.583C23.7083 -34.4697 23.5971 -36.2971 23.5231 -38.1281C24.8936 -37.7604 26.3011 -37.4745 27.6345 -36.9991C28.8198 -36.5794 29.931 -35.48 31.0793 -35.4948C36.0797 -35.5617 41.1172 -35.9591 46.1177 -36.1745C51.5626 -36.4085 55.7111 -39.1607 58.9707 -43.2091C71.6014 -58.9087 89.2326 -61.8354 107.642 -61.9988C117.717 -62.088 125.791 -57.1593 131.088 -48.2566C141.163 -31.335 141.237 -13.8266 133.459 3.76715C129.421 12.9373 124.273 21.6247 118.013 30C118.42 28.1207 118.754 26.2227 119.272 24.3731C122.458 12.9707 125.866 1.62782 128.829 -9.82653C131.533 -20.2966 129.347 -30.4808 125.754 -40.3492C122.161 -50.2028 115.272 -55.8742 104.419 -56.1491C87.6028 -56.5836 71.9718 -53.6198 59.9708 -40.4012C54.5629 -34.4363 47.5993 -32.7315 39.969 -32.4307C32.0423 -32.115 25.0417 -29.5634 19.782 -23.2345L20.0783 -23.5205Z" fill="#EBEBEB"/>
<path d="M-15.008 61.5217C-25.1395 62.3371 -35.1221 62.4488 -44.9556 59.0719C-54.1187 55.9222 -56.5026 51.6854 -54.1559 42.1469C-53.1875 38.1446 -52.1818 34.0455 -52.0328 29.9613C-51.772 22.2248 -49.3136 15.4711 -44.7321 9.32806C-37.506 -0.377968 -28.5291 -8.05865 -17.7644 -13.5018C-9.01104 -17.9397 -1.18891 -16.4504 6 -9.14951C2.53591 -9.14951 -0.220459 -9.34311 -2.97683 -9.10111C-6.7389 -8.76976 -10.9852 -9.07133 -14.1513 -7.40712C-25.1023 -1.64009 -34.2654 6.39429 -40.2623 17.4034C-42.0502 20.7169 -42.9069 24.6001 -43.8382 28.3157C-45.1791 33.7402 -46.0731 39.2764 -47.3395 44.7158C-48.5687 49.8983 -48.0472 51.421 -43.0559 53.9006C-36.314 57.2625 -29.1996 59.0124 -21.601 59.0608C-19.3661 59.0719 -15.9392 57.3668 -15.0825 61.5217H-15.008Z" fill="#EBEBEB"/>
<path d="M94.2936 71C88.8896 61.9473 83.3752 52.8648 78.0447 43.6853C73.9641 36.7168 70.6922 29.4501 71.0231 21.0424C71.1701 17.9739 71.4275 14.9389 74.6625 13.5818C78.1917 12.1165 81.2062 13.5594 83.2282 16.3408C86.6838 21.1021 90.1027 25.9677 92.8599 31.1652C97.7861 40.5087 99.036 50.7918 98.9992 61.3619C93.9995 45.7994 90.5071 29.5247 77.7506 17.1425C74.0743 22.6568 75.6919 27.7052 77.6035 32.0376C80.5445 38.7824 84.5516 45.0574 88.1176 51.53C90.5439 55.9333 93.154 60.2509 95.3597 64.7623C96.5361 67.1895 96.2788 67.3349 94.2936 71" fill="#EBEBEB"/>
<path d="M24 3C55.7908 12.8665 74.9908 34.6351 84 66C81.4523 62.9468 78.7569 60.012 76.4308 56.807C74.0308 53.4688 71.7785 49.9715 69.7477 46.3669C60.7015 30.1163 46.3754 19.2505 31.68 8.77707C29.0585 6.92293 26.5477 4.92816 24 3Z" fill="#EBEBEB"/>
<path d="M164.584 55.9086C172.095 52.8221 179.607 49.7652 187.081 46.5679C187.451 46.3942 187.34 45.0043 187.525 43.67C174.463 39.1567 165.62 49.1516 155 52.7667C161.994 45.9802 169.505 40.2176 179.533 39.1752C185.083 38.5949 190.486 38.7427 192.077 45.9506C200.735 44.4536 208.58 42.0584 215.426 37.2938C217.35 35.9742 219.681 33.0282 219.385 31.2539C218.719 27.5502 214.871 28.2821 212.021 28.4965C209.209 28.7072 206.397 29.3984 203.511 29.3836C207.581 25.8277 212.502 25.6355 217.35 26.3045C222.789 27.0512 224.75 31.7677 221.235 35.9816C219.052 38.6097 215.981 40.8164 212.909 42.3245C209.246 44.1098 205.176 45.1559 201.18 46.1317C196.036 47.3848 191.189 48.7746 186.489 51.5764C179.903 55.4946 172.095 56.3078 164.584 55.9086Z" fill="#EBEBEB"/>
<path d="M37.0872 112.055C30.7268 115.713 24.0337 117.827 16.8228 116.694C12.6812 116.045 8.50254 114.795 7.31921 109.948C6.24682 105.466 7.94785 101.532 11.3499 98.8245C14.0494 96.6729 17.2665 94.6966 20.5577 93.8911C24.4774 92.9291 28.73 92.8396 32.7977 93.1826C44.483 94.1633 56.0944 95.558 69 96.919C65.9308 97.8251 63.6381 99.0743 61.3454 99.0706C54.2824 99.0631 47.2194 98.6045 40.1934 98.2614C34.9055 98.0041 29.6175 97.4933 24.2925 97.3963C19.5592 97.3105 15.7874 99.5479 13.014 103.359C9.7968 107.789 10.8322 111.663 16.2681 112.558C21.4082 113.405 26.7701 112.722 32.0211 112.618C33.7221 112.584 35.4232 112.252 37.0872 112.055Z" fill="#EBEBEB"/>
<path d="M60.2884 195.234C59.427 196.369 58.6779 197.575 57.7042 198.62C55.0075 201.588 52.0113 204.037 47.5543 202.555C43.5843 201.23 41 197.176 41 191.822C41 183.789 43.4719 176.398 48.603 170.276C52.7978 165.266 57.7791 160.913 62.3858 156.232C68.7903 149.703 75.1574 143.137 81.1499 137C82.4233 141.677 82.7229 142.398 78.7529 146.478C73.3596 152.021 67.2173 156.867 61.5618 162.16C57.2173 166.218 52.7229 170.212 48.9775 174.789C45.3071 179.298 44.0712 184.939 44.5581 190.826C45.1948 199.102 49.4644 201.211 56.3558 196.634C57.3296 195.981 58.2285 195.171 59.1648 194.436C59.5394 194.701 59.9139 194.969 60.2884 195.234Z" fill="#EBEBEB"/>
<path d="M-3.65878 83.4369C-9.64522 80.6249 -11.5415 77.9202 -10.8723 73.3175C-10.203 68.6555 -6.67059 67.3272 -2.84076 66.4466C4.1868 64.826 11.2515 63.6494 17.7585 68.1634C18.874 69.1143 19.9895 70.0615 21.105 71.0087C31.07 75.8778 41.035 80.7544 51 85.6273C50.8513 86.0861 50.7025 86.5449 50.591 87C46.8727 85.9418 43.0429 85.1944 39.4733 83.7588C32.9291 81.1096 26.6452 77.6686 19.9895 75.2895C13.6684 73.0178 7.04988 71.2788 0.39415 70.154C-1.98555 69.747 -6.03848 71.1049 -7.0796 72.9327C-8.08354 74.6606 -6.18721 78.0793 -5.36919 80.71C-5.07173 81.7423 -4.32807 82.6488 -3.80751 83.6145L-3.65878 83.4369Z" fill="#EBEBEB"/>
<path d="M-1.0951 141.298C2.90707 142.628 6.6155 143.856 11.1684 145.354C8.37792 145.587 6.10146 146.362 4.2656 145.799C1.36495 144.937 -2.01303 143.786 -3.73873 141.616C-6.19878 138.562 -4.73009 134.506 -2.1599 132.062C0.924343 129.103 4.55934 126.012 8.52479 124.799C18.4384 121.763 28.6825 119.75 39 118C35.622 122.676 30.4816 123.488 25.5615 124.737C20.4579 126.034 15.1706 126.71 10.2505 128.46C4.99994 130.338 0.00641441 133.118 -1.0951 141.298Z" fill="#EBEBEB"/>
<path d="M155.183 -5.79594C157.263 -8.15247 159.052 -10.9593 161.535 -12.7117C163.141 -13.8524 166.719 -14.5016 167.777 -13.5184C169.274 -12.0813 169.822 -8.9855 169.858 -6.5877C169.858 -4.38128 168.653 -2.16735 167.668 0.973433C170.917 -0.583823 173.29 -2.23489 175.918 -2.794C177.89 -3.21803 180.664 -2.89907 182.088 -1.68328C183.147 -0.79396 183.22 2.29804 182.635 4.02791C181.869 6.42946 180.044 8.47453 177.707 10.2607C178.875 7.19495 180.044 4.12922 181.212 0.977185C174.02 -0.64011 174.02 -0.64011 161.498 15C159.271 12.5159 158.979 10.1631 161.097 7.21372C163.104 4.34311 164.82 1.12728 166.098 -2.1636C167.23 -5.01544 167.595 -8.18999 168.325 -11.267C161.243 -14.2502 159.417 -7.05301 155 -5.98356L155.183 -5.79594Z" fill="#EBEBEB"/>
<path d="M101.683 36C96.6126 25.1167 92.5636 13.9828 93.0378 1.7911C93.1108 -0.173279 94.6064 -3.02954 96.2114 -3.7261C97.8529 -4.45952 100.735 -3.60448 102.522 -2.52463C106.425 -0.173275 108.431 4.80585 110 14.1412C106.17 8.80463 105.623 1.10191 97.3422 -0.689247C93.9862 12.4938 102.559 23.6904 101.683 36" fill="#EBEBEB"/>
<path d="M151.08 42.9822C152.03 39.3128 152.981 35.6434 154.151 31.0512C145.961 31.6481 141.647 35.702 138.246 40.9131C135.687 44.8095 133.713 49.0832 131.007 52.8661C129.325 55.2208 126.839 56.9749 124.682 59C124.133 58.4873 123.548 57.9746 123 57.4619C128.411 49.7973 133.457 41.8359 139.416 34.6144C141.793 31.6957 145.924 29.6999 149.654 28.5061C155.284 26.7153 158.209 29.8207 156.527 35.5519C155.686 38.4632 153.566 41.0047 152.03 43.7109C151.738 43.4692 151.409 43.2239 151.08 42.9822Z" fill="#EBEBEB"/>
<path d="M165 39.0625C169.765 36.6285 174.529 34.1423 179.331 31.7718C182.507 30.2076 185.942 29.0839 188.971 27.2771C192.295 25.2762 195.065 22.566 194.364 17.7241C187.494 14.3979 182.064 19.4115 176.044 20.5165C180.291 16.6042 185.167 14.2859 190.781 14.0134C196.247 13.7446 199.535 17.5449 197.282 22.5025C195.693 26.0527 192.775 29.8642 189.451 31.5515C181.916 35.3593 173.754 37.9277 165.886 41C165.591 40.3542 165.295 39.7083 165 39.0625Z" fill="#EBEBEB"/>
<path d="M31 20.2412C37.729 17.7064 41.9533 19.3466 45.1682 22.5262C48.9065 26.2128 52.3832 30.3579 55.1869 34.8012C59.3738 41.4698 62.8878 48.5709 67 56C60.7944 51.7133 56.9813 45.9765 53.6542 39.9117C48.8318 31.1593 42.7383 23.8868 31 20.2412" fill="#EBEBEB"/>
<path d="M51.0438 -24.886C47.1137 -25.8188 44.8463 -26.3523 41.6342 -27.1172C41.1429 -24.6099 40.1982 -22.4085 40.3871 -20.2892C41.0295 -11.7262 44.4306 -4.15574 50.0235 2.38495C53.3112 6.23549 56.9012 9.81366 60 14C55.0873 12.1195 51.4973 8.37344 48.0962 4.5229C41.9743 -2.37598 38.3087 -10.3867 37.2884 -19.5542C36.8727 -23.1846 36.3814 -26.8336 39.9336 -29.2477C42.4278 -30.9267 44.9219 -29.9305 51.0438 -24.886Z" fill="#EBEBEB"/>
<path d="M63.03 69C60.1201 65.7348 57.061 62.6193 54.4122 59.1631C52.0619 56.1114 50.3085 52.6402 48.1447 49.4311C42.1756 40.4368 34.3039 34.1422 23 32.9103C29.6779 30.7459 35.4977 32.6182 40.1984 36.6548C44.414 40.2683 48.0701 44.6756 51.353 49.169C55.8672 55.2801 59.8217 61.803 64 68.1537C63.6642 68.4346 63.3658 68.7154 63.03 69" fill="#EBEBEB"/>
<path d="M142 239.71C129.222 241.779 123.714 232.818 126.872 212C128.23 217.09 128.818 222.657 131.241 227.138C133.812 231.787 138.181 235.38 142 239.71Z" fill="#EBEBEB"/>
<path d="M-9 12.3855C-8.47846 5.27579 -7.10012 3.45509 -1.40047 3.06386C4.15018 2.68392 9.36554 3.95917 13.3888 7.96922C16.8533 11.4639 19.7963 15.489 23 19.2809C22.4785 19.8527 21.9197 20.4244 21.3981 21C19.4983 19.2207 17.7101 17.2909 15.6612 15.7034C12.1967 12.9874 8.84401 9.76734 4.89523 8.06326C-1.66123 5.22312 -4.60419 6.53598 -9 12.3855" fill="#EBEBEB"/>
<path d="M123 109C127.851 110.221 131.036 113.436 132.955 117.67C135.633 123.677 137.661 129.979 139 137C136.864 134.544 134.149 132.39 132.629 129.569C129.19 123.065 126.33 116.235 123 109Z" fill="#EBEBEB"/>
<path d="M188 215C173.726 214.199 167.451 202.573 169.323 179C169.946 182.759 170.313 186.608 171.341 190.262C172.845 195.664 174.35 201.152 176.735 206.185C178.9 210.846 182.789 214.143 188 215Z" fill="#EBEBEB"/>
<path d="M21.3247 71.7499C20.2165 70.8345 19.1082 69.919 18 69C22.8763 69.6151 27.7895 70.0478 32.5919 70.8845C41.7904 72.4758 50.9519 74.296 61 76.1876C57.6383 78.7337 54.3875 78.0078 51.506 77.5C43.9699 76.1698 36.5447 74.4211 29.0455 72.9192C26.4966 72.4043 23.9107 72.1325 21.3247 71.7499Z" fill="#EBEBEB"/>
<path d="M207.312 102.018C209.872 101.861 212.243 102.717 211.98 105.446C211.829 107.072 210.023 109.36 208.479 109.884C199.294 112.949 190.072 112.845 181 108.512C186.27 108.512 191.578 108.755 196.848 108.429C200.386 108.213 204 107.577 207.312 106.403C209.759 105.54 210.211 103.513 207.35 102.033L207.312 102.018Z" fill="#EBEBEB"/>
<path d="M233 2C247.178 11.6289 252.111 23.8195 250.796 39C249.846 34.7776 249.188 30.4733 247.909 26.3626C246.593 22.1737 245.168 17.8768 242.939 14.1757C240.564 10.2921 237.202 7.05646 233 2Z" fill="#EBEBEB"/>
<path d="M167.575 211C171.361 214.554 172.708 219.019 171.652 224.086C170.669 228.721 167.029 230.465 163.352 227.625C160.803 225.66 159.129 222.584 158 219.157C160.621 221.437 163.279 223.713 166.155 226.213C171.398 220.908 167.32 216.03 167.575 211Z" fill="#EBEBEB"/>
<path d="M147 86.3176C157.25 85.1825 167.801 84.0183 177 83C169.641 89.3833 157.1 90.971 147 86.3176Z" fill="#EBEBEB"/>
<path d="M31 187C28.2744 195.048 19.0377 199.843 24.186 208.876C20.0977 209.455 18.1292 207.988 18.0156 204.863C17.7128 196.481 21.8012 190.675 31 187Z" fill="#EBEBEB"/>
<path d="M151.519 207C152.041 210.128 152.862 213.245 152.974 216.388C153.198 221.135 152.041 225.863 147.154 227.519C141.745 229.346 138.499 225.64 136 221.886C139.357 222.803 143.237 225.24 146.072 224.331C150.736 222.829 149.803 217.482 149.878 213.332C149.915 211.264 149.728 209.189 149.616 207.113C150.251 207.075 150.885 207.038 151.519 207Z" fill="#EBEBEB"/>
<path d="M207.037 102C207.66 100.801 208.064 98.932 209.054 98.5152C214.3 96.2882 219.95 94.8073 225.049 92.2988C228.167 90.7666 230.625 87.8413 234 85C232.679 87.8595 231.469 90.4521 230.295 93.0447L230.332 93.0813C225.636 94.7926 220.977 96.4674 216.318 98.2336C213.163 99.4184 210.118 100.731 207 101.989L207.037 102Z" fill="#EBEBEB"/>
<path d="M101.112 169C105.832 177.22 104.748 186.387 98 194C99.0139 185.67 100.098 177.169 101.112 169Z" fill="#EBEBEB"/>
<path d="M69 -13C74.5775 -4.46438 80.1551 4.06746 86 13C78.4742 8.89474 71.4067 -1.52341 69 -13Z" fill="#EBEBEB"/>
<path d="M230.629 93.2614C232.989 93.1733 235.387 93.0596 237.785 93.0045C241.007 92.9275 243.892 93.8117 244.791 97.1687C245.84 101.267 242.768 103.336 239.545 104.099C233.551 105.537 227.369 106.253 221 105.919C224.747 105.171 228.606 104.69 232.24 103.597C235.836 102.518 239.208 100.819 242.917 99.293C240.52 92.2084 234.637 94.8573 230.666 93.3017C230.666 93.298 230.629 93.2614 230.629 93.2614Z" fill="#EBEBEB"/>
<path d="M93.5305 202C94.3419 206.496 95.1533 210.948 96 215.619C92.966 218.142 90.9551 217.022 89.6498 213.769C87.9564 209.621 89.6851 204.429 93.5305 202Z" fill="#EBEBEB"/>
<path d="M186 174C191.547 180.42 197.543 186.067 208 186.451C197.993 190.453 191.959 186.836 186 174Z" fill="#EBEBEB"/>
<path d="M92 98C84.9644 107.888 82.895 109.249 73 111C77.2515 108.14 80.2238 106.177 83.1584 104.167C86.1307 102.135 89.0653 100.057 92 98Z" fill="#EBEBEB"/>
<path d="M75 78.4631C78.06 76.2669 79.896 74.6434 81.9998 73.5548C83.109 72.9744 85.1745 72.743 85.9395 73.3879C86.8193 74.1124 87.2018 76.1303 86.8958 77.3593C85.7865 81.6646 82.6883 82.3019 75 78.4631" fill="#EBEBEB"/>
<path d="M194.002 194C198.652 196.23 202.502 198.086 207 200.252C205.971 203.129 203.074 203.421 200.329 202.604C196.365 201.432 193.925 198.747 194.002 194Z" fill="#EBEBEB"/>
<path d="M132.317 212C129.358 203.811 131.883 195.911 135 188C134.132 195.915 133.224 203.83 132.317 212Z" fill="#EBEBEB"/>
<path d="M214 217C214.037 225.798 204.607 227.013 201 233C202.202 225.324 209.867 222.557 214 217Z" fill="#EBEBEB"/>
<path d="M197 160C205.512 164.156 210.275 169.384 212 178C206.9 171.882 202.4 166.466 197 160Z" fill="#EBEBEB"/>
<path d="M74 185C80 193.253 81.9623 193.368 92 185.736C88.3019 191.754 85.6226 193.45 80.7547 192.904C76.7925 192.457 75.8868 191.468 74 185" fill="#EBEBEB"/>
<path d="M88 145C89.0387 138.97 90.1929 132.457 91.1162 127C94.194 133.215 93.7323 136.392 88 145Z" fill="#EBEBEB"/>
<path d="M167 156C170.614 161.107 174.193 166.213 179 173C170.506 166.541 168.807 164.283 167 156Z" fill="#EBEBEB"/>
<path d="M85 203C84.2644 208.332 83.5287 213.668 82.7563 219C79.3356 213.006 81.3586 207.871 85 203Z" fill="#EBEBEB"/>
<path d="M20.9818 49C25.9636 51.6944 30.9818 54.3849 36 57.0754C35.6727 57.7182 35.3818 58.361 35.0545 59C29.0182 58.4573 24.2545 55.2625 20 50.9707C20.3273 50.3125 20.6545 49.6582 20.9818 49Z" fill="#EBEBEB"/>
<path d="M-3 84.1875C4.35774 85.1173 11.6789 86.0392 19 86.9689C11.5324 87.2853 3.73544 90.391 -2.85358 84L-3 84.1875Z" fill="#EBEBEB"/>
<path d="M137 144.091C137.68 150.027 138.32 155.958 139 161.886C138.64 161.924 138.28 161.962 137.92 162C136.96 155.996 135.96 150 135 144C135.64 144.03 136.32 144.061 137 144.091Z" fill="#EBEBEB"/>
<path d="M101.015 154C100.022 150.332 98.9926 146.664 98 143C102.265 145.709 102.375 149.701 103 153.533C102.338 153.69 101.676 153.843 101.015 154Z" fill="#EBEBEB"/>
<path d="M154.799 -6C152.871 -1.00124 150.944 4.00124 149.016 9C148.815 3.19667 150.502 -1.87658 155 -5.80631C155 -5.81376 154.799 -6 154.799 -6Z" fill="#EBEBEB"/>
<path d="M157 194C158.886 189.336 160.192 185.993 161.788 182C162.477 186.841 161.642 190.372 157 194Z" fill="#EBEBEB"/>
<path d="M63 115.908C59.6667 117.937 56.3333 119.967 53 122C55.0974 117.685 58.4307 115.597 61.9888 114C62.3258 114.633 62.6629 115.27 63 115.908Z" fill="#EBEBEB"/>
<path d="M108.883 257C107.551 255.4 106.424 254.528 106.015 253.347C105.844 252.836 107.21 250.974 107.79 251C108.883 251.05 109.941 252.067 111 252.68C110.42 253.857 109.839 255.034 108.883 257Z" fill="#EBEBEB"/>
<path d="M216.151 108C220.113 108.573 224.038 109.146 228 109.718C227.925 110.148 227.887 110.574 227.811 111C223.887 110.464 219.925 109.928 216 109.388C216.038 108.925 216.113 108.463 216.151 108Z" fill="#EBEBEB"/>
<path d="M219 170C216.706 166.377 214.689 163.195 212 159C218.169 163.417 218.169 163.417 219 170Z" fill="#EBEBEB"/>
<path d="M53.0193 237C54.4056 238.64 55.5939 239.561 55.99 240.744C56.1485 241.264 54.366 243.11 54.1284 242.995C52.9401 242.395 51.6725 241.522 51.0388 240.402C50.7615 239.962 52.029 238.64 53.0193 237Z" fill="#EBEBEB"/>
<path d="M105 239.814C107.37 238.879 109.778 237.939 112.185 237C112.444 237.618 112.704 238.239 113 238.854C110.519 239.904 108.037 240.95 105.593 242C105.37 241.271 105.185 240.543 105 239.814Z" fill="#EBEBEB"/>
<path d="M168 250.14C170.817 249.425 173.671 248.711 176.524 248C176.671 248.482 176.854 248.967 177 249.449C174.183 250.299 171.402 251.15 168.585 252C168.402 251.379 168.183 250.757 168 250.14" fill="#EBEBEB"/>
<path d="M34 200.833C34.6702 199.555 35.3085 198.278 35.9787 197C36.3298 197.174 36.6489 197.345 37 197.52C36.4574 199.014 35.9468 200.509 35.4043 202C34.9255 201.612 34.4787 201.221 34 200.833" fill="#EBEBEB"/>
<path d="M175 132C170.435 129.593 167.595 128.11 164 126.226C169.859 125.67 169.859 125.663 175 132Z" fill="#EBEBEB"/>
</g>
</svg>
