<svg width="800" height="273" viewBox="0 0 800 273" fill="none" xmlns="http://www.w3.org/2000/svg">
<path d="M509.837 22.9983C511.834 26.0349 513.951 29.1787 516.581 31.6855C519.219 34.2026 522.096 36.423 525.207 38.3179C531.603 42.2394 538.597 44.8044 545.925 46.3637C561.042 49.5874 576.777 48.3069 592.008 46.6143C599.934 45.739 607.906 44.6036 615.385 41.6952C622.726 38.8293 629.015 34.0278 633.956 27.9223C643.271 16.4277 647.557 1.05026 647.817 -13.565C648.051 -27.937 644.51 -42.2963 637.163 -54.6692C629.632 -67.3545 618.849 -77.92 606.164 -85.4395C581.169 -100.269 550.858 -102.241 523.097 -94.781C516.047 -92.8872 509.069 -90.5036 502.468 -87.3995C495.31 -84.032 488.369 -79.5919 483.506 -73.2417C475.018 -62.1432 475.818 -47.616 480.038 -35.0209C481.062 -31.9155 482.347 -28.9531 483.846 -26.0441C485.387 -23.0835 490.011 -25.0318 488.648 -28.1536C483.998 -38.8262 479.973 -51.3063 484.115 -62.8206C489.015 -76.403 503.927 -82.5934 516.603 -86.785C541.579 -95.018 569.705 -95.4687 593.948 -84.6146C606.357 -79.044 617.53 -70.5567 625.955 -59.8779C634.162 -49.4678 639.398 -37.0789 641.021 -23.9034C642.649 -10.5951 640.661 3.36683 634.645 15.4234C631.55 21.608 627.207 27.2463 621.649 31.405C615.825 35.7443 608.792 37.9329 601.735 39.2679C594.437 40.6439 587.023 41.6011 579.647 42.3731C572.386 43.1381 565.087 43.5398 557.799 43.129C543.852 42.345 529.625 38.4007 518.552 29.5927C515.7 27.3181 513.016 25.1462 510.779 22.2358C510.296 21.6179 509.422 22.3591 509.837 22.9983Z" fill="#534931"/>
<path d="M514.175 26.6198C513.069 24.2816 511.547 22.1269 510.305 19.8311C509.134 17.6658 508.135 15.3954 507.165 13.1186C505.129 8.40365 503.596 3.48587 502.091 -1.41961C500.579 -6.35414 499.098 -11.3138 497.186 -16.1293C496.258 -18.4396 495.275 -20.7745 494.037 -22.9373C492.808 -25.0898 491.295 -27.8678 488.925 -28.8909C487.74 -29.4024 486.684 -28.2735 486.773 -27.148C486.952 -24.7268 488.861 -22.1155 489.951 -19.9871C491.095 -17.7488 492.162 -15.4997 493.108 -13.1687C495.061 -8.38673 496.66 -3.47148 498.309 1.4206C499.953 6.26491 501.653 11.1151 503.862 15.725C505.917 19.9974 508.825 25.0494 512.892 27.6588C513.573 28.0988 514.553 27.4254 514.175 26.6198Z" fill="#534931"/>
<path d="M298.895 -16.5551C309.341 -3.61275 327.549 0.888836 343.557 0.346203C361.9 -0.274271 379.749 -7.04725 396.273 -14.6113C412.946 -22.2449 428.99 -31.9871 442.605 -44.3289C455.759 -56.2646 467.242 -71.1746 472.81 -88.2059C475.764 -97.2525 476.83 -107.064 474.002 -116.269C471.386 -124.809 464.608 -134.597 455.112 -135.872C453.295 -136.128 452.24 -133.495 453.819 -132.498C457.107 -130.405 460.362 -128.353 462.973 -125.404C465.5 -122.557 467.371 -119.231 468.647 -115.646C471.238 -108.3 470.66 -100.065 468.57 -92.6591C464.055 -76.634 453.717 -62.172 441.86 -50.7062C429.359 -38.5983 414.593 -29.0536 399.07 -21.2905C383.579 -13.5526 367.192 -6.39042 349.861 -4.24551C341.022 -3.14386 331.909 -3.48013 323.293 -5.82662C314.823 -8.12006 307.022 -12.4436 300.334 -18.0792C299.405 -18.8666 298.159 -17.4643 298.895 -16.5551Z" fill="#534931"/>
<path d="M305.785 84.5136C311.381 85.9016 317.043 86.8425 322.823 87.1054C328.577 87.3559 334.347 87.0974 340.104 86.7807C346.459 86.4414 352.804 86.0253 359.165 85.6299C365.02 85.2856 371.188 85.2862 376.7 82.9954C379.352 81.8912 381.905 80.1146 383.67 77.83C384.469 76.8067 385.14 75.5619 385.58 74.3499C385.834 73.6481 386.111 72.8256 386.086 72.0758C386.057 71.2782 385.562 70.7725 385.373 70.0528C385.033 68.7026 383.249 68.4028 382.659 69.7696C382.596 69.9237 383.286 69.1255 382.681 69.838C382.455 70.0888 382.103 70.2885 381.884 70.5684C381.556 70.9881 381.376 71.4422 381.172 71.9318C380.729 72.9922 380.106 73.8731 379.352 74.7403C377.991 76.3387 376.278 77.5031 374.331 78.293C369.286 80.3771 363.431 80.2768 358.073 80.6635C346.87 81.49 335.69 82.4514 324.465 82.6797C318.445 82.7986 312.358 82.7497 306.375 81.9834C304.938 81.7956 304.31 84.1515 305.785 84.5136Z" fill="#534931"/>
<path d="M391.791 104.425C388.424 103.525 385.395 101.752 382.759 99.4904C381.527 98.4348 380.407 97.3059 379.397 96.037C378.838 95.326 378.259 94.6318 377.731 93.8957C377.095 93.0253 376.644 92.1079 375.557 91.7391C374.636 91.4066 373.315 91.8267 373.044 92.8673C372.485 94.9278 374.144 97.3142 375.399 98.8641C376.696 100.466 378.229 101.978 379.918 103.176C383.225 105.545 387.033 106.927 391.035 107.552C392.832 107.825 393.585 104.905 391.791 104.425Z" fill="#534931"/>
<path d="M219.472 97.2698C239.843 93.4842 260.239 90.4484 280.888 88.7822C283.807 88.5571 286.726 88.4172 289.646 88.1734C292.47 87.9573 295.718 87.9274 298.353 86.8026C299.562 86.2855 299.53 84.4471 298.282 83.9859C295.94 83.1455 293.202 83.2759 290.741 83.2839C288.108 83.3118 285.48 83.4726 282.852 83.6334C277.613 83.9757 272.401 84.5006 267.188 85.1294C256.658 86.3857 246.217 88.3228 235.878 90.6394C230.151 91.9239 224.538 93.6461 218.955 95.447C217.907 95.7823 218.43 97.4637 219.472 97.2698Z" fill="#534931"/>
<path d="M234.133 107.483C243.643 105.856 253.182 104.392 262.7 102.86C267.416 102.104 272.134 101.328 276.858 100.582C281.399 99.8646 286.627 99.6346 290.816 97.5936C291.703 97.1659 291.464 95.9397 290.536 95.7672C285.949 94.948 280.836 96.2492 276.305 96.9587C271.581 97.7048 266.867 98.5276 262.19 99.4583C252.661 101.358 243.303 103.701 233.956 106.292C233.226 106.49 233.344 107.609 234.133 107.483Z" fill="#534931"/>
<path d="M218.839 96.2768C211.664 95.7739 205.99 90.036 203.425 83.6105C200.57 76.4453 202.335 68.3436 205.819 61.7076C209.869 54.0146 216.246 47.5671 223.043 42.2512C230.451 36.4409 238.779 31.9376 247.502 28.4496C264.74 21.556 283.575 18.433 302.079 17.7159C319.701 17.0295 337.766 19.2177 354.009 26.3708C370.317 33.5401 384.927 45.9333 392.334 62.3799C398.549 76.1481 399.093 92.6444 393.039 106.579C385.745 123.383 369.172 132.219 352.245 136.809C342.661 139.403 332.798 141.06 322.999 142.562C313.364 144.035 303.679 145.171 293.95 145.745C276.308 146.807 257.325 146.765 240.808 139.697C227.186 133.877 215.635 121.727 214.312 106.427C214.163 104.699 214.321 103.032 214.372 101.297C214.41 99.7778 214.152 97.3862 214.463 96.3308C215.163 93.9162 211.473 92.4906 210.769 94.9426C210.211 96.8992 209.08 98.6539 208.739 100.709C208.433 102.616 208.536 104.689 208.654 106.612C208.899 110.638 209.916 114.623 211.402 118.363C214.439 125.963 219.676 132.705 226.084 137.763C240.715 149.335 260.504 151.855 278.588 151.992C299.505 152.161 320.456 149.514 340.958 145.487C360.433 141.674 381.499 135.085 393.463 118.04C403.065 104.362 405.373 86.2246 401.218 70.2405C396.454 51.8754 383.447 36.7645 367.442 27.0066C350.919 16.9489 331.692 12.6057 312.47 12.1413C292.814 11.6694 272.699 14.375 253.971 20.4226C235.419 26.4128 217.131 36.7912 205.473 52.818C200.336 59.8867 196.565 68.517 197.241 77.4127C197.794 84.8862 202.149 92.6335 208.89 96.1559C212.01 97.7868 215.368 98.5062 218.884 98.1733C219.975 98.0601 219.92 96.3423 218.839 96.2768Z" fill="#534931"/>
<path d="M503.949 -27.1147C508.55 -24.9035 513.34 -22.9658 518.229 -21.5191C523.201 -20.0542 528.485 -19.3892 533.651 -19.1243C538.79 -18.8718 543.968 -19.0786 549.072 -19.7566C551.606 -20.0975 554.133 -20.5527 556.634 -21.124C559.233 -21.723 561.971 -22.2979 564.205 -23.8335C566.081 -25.1133 564.408 -27.5392 562.602 -27.4628C560.084 -27.3567 557.59 -26.3117 555.145 -25.7346C552.826 -25.1915 550.47 -24.7374 548.106 -24.3976C543.303 -23.7071 538.46 -23.4464 533.609 -23.6407C523.897 -24.0394 513.828 -25.7052 504.812 -29.3704C503.361 -29.957 502.572 -27.7786 503.949 -27.1147Z" fill="#534931"/>
<path d="M520.002 -36.0426C524.688 -34.5509 529.288 -32.8695 534.029 -31.5423C538.576 -30.2637 543.128 -29.0224 547.692 -27.8083C556.94 -25.358 566.176 -22.8806 575.381 -20.2929C579.975 -19 584.543 -17.6529 589.126 -16.3516C592.985 -15.2679 596.912 -14.2053 600.916 -13.8725C608.505 -13.2602 615.41 -15.7555 620.491 -21.4776C622.865 -24.1526 624.645 -27.4761 625.558 -30.9184C626.446 -34.3065 627.296 -39.5622 624.557 -42.2884C623.521 -43.3141 621.573 -43.3281 621.033 -41.7103C620.094 -38.9139 620.85 -35.7797 620.134 -32.856C619.46 -30.1549 618.125 -27.6363 616.355 -25.4847C612.235 -20.438 606.204 -18.9582 599.932 -19.7641C596.263 -20.2321 592.744 -21.2995 589.195 -22.2752C584.949 -23.4561 580.671 -24.5932 576.409 -25.7096C567.656 -28.0136 558.893 -30.2241 550.085 -32.2785C545.266 -33.4057 540.458 -34.4562 535.611 -35.4067C530.549 -36.389 525.472 -36.9473 520.381 -37.649C519.457 -37.7737 519.086 -36.3274 520.002 -36.0426Z" fill="#534931"/>
<path d="M621.341 -32.9949C620.182 -27.2324 619.013 -21.4615 617.863 -15.6887C617.336 -13.1236 617.003 -10.4247 616.218 -7.92434C615.394 -5.324 613.694 -4.54609 611.088 -4.23168C602.666 -3.22837 594.4 -6.55987 586.616 -9.25467C582.5 -10.6775 578.347 -12.019 574.065 -12.8631C569.405 -13.7941 564.664 -13.8727 559.949 -13.3905C550.403 -12.4005 541.218 -9.10266 531.633 -8.37209C526.577 -7.97284 521.313 -8.46557 516.551 -10.2206C514.264 -11.0552 512.151 -12.1838 510.26 -13.7148C508.326 -15.2788 507.007 -17.3933 505.269 -19.1165C503.761 -20.5982 500.956 -19.7465 501.299 -17.3554C502.027 -12.3513 506.858 -8.65001 511.08 -6.44053C515.489 -4.12635 520.497 -2.99827 525.451 -2.69877C535.875 -2.05542 545.816 -5.43516 555.965 -7.2041C560.985 -8.07055 566.054 -8.49688 571.124 -7.77849C575.616 -7.13937 579.934 -5.74285 584.208 -4.29411C592.965 -1.30867 601.941 2.09705 611.365 1.1037C614.466 0.765236 617.582 -0.25269 619.53 -2.83972C621.402 -5.33067 621.755 -8.66125 622.315 -11.6296C623.646 -18.5754 624.969 -25.5315 626.3 -32.4773C626.909 -35.6393 621.964 -36.1175 621.341 -32.9949Z" fill="#534931"/>
<path d="M295.089 97.7086C305.608 99.5916 316.068 100.343 326.745 99.7545C332.007 99.4619 337.241 98.9015 342.443 98.0255C345.034 97.5866 347.644 97.1496 350.186 96.4596C351.431 96.1355 352.67 95.7824 353.896 95.3712C355.211 94.922 356.175 94.3131 357.33 93.5825C358.02 93.1437 357.607 91.956 356.844 91.9237C351.703 91.6898 346.611 93.2299 341.549 94.0447C336.545 94.8466 331.487 95.4349 326.427 95.7864C316.133 96.5092 305.613 96.4233 295.339 95.351C293.804 95.1908 293.612 97.4504 295.089 97.7086Z" fill="#534931"/>
<path d="M375.559 95.6553C374.698 95.5654 373.797 95.4052 372.937 95.4005C372.722 95.3687 372.721 95.3874 372.914 95.436C372.712 95.3771 372.5 95.3265 372.286 95.2947C372.117 95.2771 371.949 95.2596 371.789 95.2523C371.358 95.2074 370.909 95.1605 370.468 95.124C369.522 95.0347 368.56 95.0099 367.602 95.0329C367.155 95.0525 366.719 95.0637 366.274 95.0646C365.354 95.0915 364.691 95.4574 364.131 96.1841C364.38 95.983 364.628 95.7819 364.876 95.5808C364.598 95.7031 364.321 95.8255 364.034 95.9375C362.855 96.4481 362.969 98.1343 364.102 98.6025C364.384 98.717 364.683 98.8334 364.965 98.9479C364.71 98.7606 364.445 98.5816 364.191 98.3942C364.766 99.1258 365.464 99.4162 366.38 99.4267C366.815 99.4342 367.249 99.4417 367.694 99.4409C368.65 99.4366 369.628 99.3968 370.575 99.2971C372.26 99.1134 373.94 98.8821 375.624 98.6984C376.399 98.6185 376.942 97.8711 376.934 97.142C376.909 96.3921 376.328 95.7166 375.559 95.6553Z" fill="#534931"/>
<path d="M614.361 0.952925C616.232 2.31168 618.112 3.68076 619.983 5.03951L620.051 4.93311C618.18 3.57435 616.319 2.20722 614.448 0.848471L614.361 0.952925Z" fill="#534931"/>
<path d="M622.908 22.191C626.223 20.0021 629.329 17.4697 632.066 14.5866C633.364 13.2276 634.612 11.8066 635.755 10.299C636.853 8.86232 638.286 7.12012 638.324 5.24176C638.337 4.85525 637.952 4.46515 637.552 4.66933C635.988 5.50867 635.055 7.17067 634.027 8.56738C632.89 10.104 631.682 11.5954 630.397 13.0125C627.794 15.8906 624.917 18.4942 621.77 20.7859C620.817 21.4716 621.953 22.8103 622.908 22.191Z" fill="#534931"/>
<path d="M625.597 12.6912C628.659 10.9299 631.383 8.70753 633.682 6.02468C634.803 4.72291 635.764 3.32872 636.594 1.83568C637.296 0.565791 638.628 -1.38557 638.097 -2.88826C637.974 -3.25102 637.464 -3.43669 637.124 -3.26407C636.405 -2.90403 636.085 -2.19969 635.71 -1.51992C635.348 -0.86724 635.012 -0.202274 634.633 0.429742C633.807 1.80018 632.874 3.10277 631.873 4.34141C629.87 6.81869 627.412 8.94581 624.676 10.5803C624.131 10.9018 623.805 11.4732 624.07 12.0968C624.289 12.621 625.054 12.994 625.597 12.6912Z" fill="#534931"/>
<path d="M624.538 5.71353C628.764 4.66954 632.459 2.37838 635.391 -0.834299C636.836 -2.41452 638.038 -4.2092 638.969 -6.12674C639.769 -7.78371 640.916 -10.3031 640.191 -12.1286C639.997 -12.6218 639.38 -12.601 639.079 -12.2542C638.504 -11.5668 638.305 -10.6701 638.019 -9.83924C637.708 -8.95422 637.407 -8.07757 637.014 -7.2294C636.203 -5.46016 635.139 -3.81183 633.875 -2.32629C631.371 0.590601 627.966 2.8175 624.26 3.86844C623.119 4.19388 623.353 6.00603 624.538 5.71353Z" fill="#534931"/>
<path d="M626.875 0.433499C629.263 -1.65368 631.681 -3.68082 634.069 -5.768C636.311 -7.73787 638.704 -9.60694 640.802 -11.7338C642.371 -13.3293 643.721 -15.4491 643.316 -17.7899C642.975 -19.7551 641.559 -21.5677 639.425 -21.4309C638.702 -21.3929 638.677 -20.3456 639.276 -20.1128C640.938 -19.4569 641.524 -17.4851 640.882 -15.8873C640.117 -13.9335 638.223 -12.4853 636.724 -11.1C633.065 -7.72669 629.432 -4.32238 625.763 -0.94068C624.933 -0.166476 626.011 1.18508 626.875 0.433499Z" fill="#534931"/>
<path d="M502.155 2.80571C505.396 9.81253 509.281 16.4515 513.938 22.6034C518.462 28.5712 523.697 34.8875 530.013 39.0276C530.42 39.2971 530.976 38.7782 530.629 38.392C528.208 35.6138 525.487 33.0785 522.971 30.3944C520.36 27.6154 517.876 24.7171 515.527 21.7098C510.83 15.6767 506.635 9.18519 503.127 2.3775C502.831 1.77906 501.871 2.18017 502.155 2.80571Z" fill="#534931"/>
<path d="M509.133 6.05018C513.665 12.662 518.628 18.9593 524.08 24.8254C526.678 27.6316 529.369 30.3623 532.18 32.9447C535.101 35.6427 538.17 38.5642 541.652 40.5168C542.117 40.7734 542.759 40.2539 542.345 39.785C539.821 36.9015 536.712 34.4582 533.934 31.832C531.019 29.0778 528.147 26.2714 525.4 23.3458C519.992 17.5978 514.943 11.4901 510.334 5.07822C509.756 4.28012 508.585 5.24566 509.133 6.05018Z" fill="#534931"/>
<path d="M516.517 4.39933C522.084 10.9773 527.902 17.3167 534.11 23.29C537.038 26.1022 540.027 28.8829 543.083 31.5572C546.338 34.413 549.734 37.5483 553.519 39.6838C554.002 39.9424 554.685 39.3893 554.244 38.9082C551.464 35.856 548.053 33.315 544.963 30.5994C541.771 27.7785 538.56 24.9557 535.465 22.022C529.228 16.1403 523.155 10.0581 517.386 3.69549C516.903 3.16269 516.046 3.83943 516.517 4.39933Z" fill="#534931"/>
<path d="M529.456 9.24963C533.912 13.2713 538.358 17.3013 542.867 21.2623C545.093 23.2066 547.3 25.149 549.517 27.083C551.767 29.0584 554.026 31.3183 556.609 32.8364C557.126 33.1363 557.765 32.5504 557.355 32.0441C555.616 29.7911 553.193 27.9208 551.064 26.0527C548.761 24.034 546.456 22.0341 544.162 20.0258C539.573 16.0093 534.91 12.07 530.267 8.11406C529.58 7.54106 528.799 8.67021 529.456 9.24963Z" fill="#534931"/>
<path d="M541.205 10.5989C544.598 13.3083 547.862 16.1744 550.955 19.212C552.48 20.7143 553.945 22.2482 555.408 23.8008C556.77 25.2294 558.114 26.9303 559.79 27.985C560.163 28.2131 560.635 27.8651 560.462 27.4404C559.658 25.4741 558.001 23.7878 556.578 22.2203C555.136 20.651 553.63 19.1506 552.103 17.667C548.97 14.6442 545.696 11.7865 542.282 9.09378C541.358 8.35408 540.281 9.85915 541.205 10.5989Z" fill="#534931"/>
<path d="M550.681 11.6162C554.186 14.6116 557.643 17.6967 561.41 20.36C562.009 20.7819 562.873 19.9452 562.318 19.3858C559.029 16.0441 555.379 13.0809 551.811 10.0506C550.866 9.24244 549.743 10.8184 550.681 11.6162Z" fill="#534931"/>
<path d="M560.742 14.0757C561.936 15.5719 563.385 16.8961 565.03 17.8907C566.667 18.875 568.486 19.7458 570.415 19.8431C571.186 19.8858 571.415 18.8787 570.72 18.5696C569.151 17.8384 567.539 17.2445 566.092 16.2611C564.651 15.3066 563.381 14.162 562.304 12.8105C561.505 11.7812 559.922 13.0631 560.742 14.0757Z" fill="#534931"/>
<path d="M572.69 6.74359C574.865 8.09617 576.856 9.66604 578.952 11.1334C581.067 12.6027 582.951 14.4642 584.723 16.3139C585.2 16.8176 586.044 16.168 585.572 15.6268C583.867 13.5855 581.967 11.7886 580.082 9.92715C578.215 8.08638 575.977 6.61372 573.767 5.23852C572.754 4.62199 571.669 6.11673 572.69 6.74359Z" fill="#534931"/>
<path d="M527.241 -3.87409C531.769 -2.32316 536.418 -1.10959 541.132 -0.239247C543.441 0.200396 545.785 0.57748 548.128 0.784211C549.346 0.89246 550.55 0.961333 551.754 1.03021C552.77 1.07955 554.133 1.34473 554.927 0.54791C555.127 0.351288 555.209 0.0287263 554.998 -0.210867C554.278 -1.01426 553.151 -0.904964 552.144 -0.962684C550.997 -1.0257 549.862 -1.1158 548.71 -1.22657C546.358 -1.44363 544.017 -1.66907 541.69 -2.02549C536.968 -2.73581 532.318 -3.84549 527.788 -5.29254C526.864 -5.58765 526.31 -4.19824 527.241 -3.87409Z" fill="#534931"/>
<path d="M538.183 -3.75357C543.158 -2.94106 548.142 -2.11822 553.119 -1.32442C555.565 -0.927235 558.02 -0.519721 560.48 -0.168339C562.884 0.177182 565.414 0.59251 567.851 0.449589C568.555 0.409592 568.599 -0.635712 567.989 -0.860189C565.761 -1.70757 563.278 -2.02348 560.934 -2.40057C558.415 -2.82427 555.876 -3.14605 553.341 -3.50524C548.364 -4.21386 543.364 -4.88702 538.386 -5.57693C537.211 -5.7374 537.031 -3.94951 538.183 -3.75357Z" fill="#534931"/>
<path d="M550.226 -7.05585C555.137 -4.84057 560.218 -2.96713 565.431 -1.6285C567.926 -0.980263 570.454 -0.461047 572.989 -0.0166765C574.356 0.211085 575.727 0.401425 577.111 0.545964C578.328 0.672924 579.833 0.839514 581.031 0.519926C581.761 0.321861 581.896 -0.591078 581.183 -0.92083C580.102 -1.43096 578.734 -1.55483 577.561 -1.73402C576.267 -1.93526 574.971 -2.11778 573.669 -2.32935C571.036 -2.74607 568.425 -3.28343 565.833 -3.90401C560.722 -5.13737 555.726 -6.73713 550.869 -8.75749C549.79 -9.20115 549.169 -7.53498 550.226 -7.05585Z" fill="#534931"/>
<path d="M562.452 -8.60799C567.549 -7.15848 572.656 -5.71735 577.755 -4.28656C582.761 -2.86552 587.833 -1.44701 592.946 -0.506608C593.874 -0.334102 594.197 -1.77599 593.322 -2.09428C588.448 -3.86106 583.357 -5.19635 578.321 -6.50706C573.277 -7.82811 568.214 -9.15112 563.159 -10.4638C561.935 -10.7901 561.211 -8.95501 562.452 -8.60799Z" fill="#534931"/>
<path d="M559.91 -19.7226C567.091 -14.8112 574.885 -10.6871 583.074 -7.70414C587.109 -6.23304 591.229 -5.01802 595.411 -4.04235C597.571 -3.53316 599.751 -3.1259 601.947 -2.78315C603.809 -2.49427 606.215 -1.80804 608.011 -2.50972C608.712 -2.78654 608.802 -3.8176 608.184 -4.24148C606.658 -5.2805 604.316 -5.2317 602.523 -5.54181C600.422 -5.8935 598.329 -6.32004 596.249 -6.77367C592.117 -7.68734 588.041 -8.86941 584.046 -10.2701C576.003 -13.1149 568.313 -16.793 561.142 -21.4386C560.009 -22.181 558.78 -20.4838 559.91 -19.7226Z" fill="#534931"/>
<path d="M571.716 -16.1446C579.453 -13.0859 587.462 -10.727 595.676 -9.32109C599.718 -8.62495 603.8 -8.13268 607.904 -7.84624C611.989 -7.56174 616.491 -7.10135 620.547 -7.88868C621.861 -8.1488 621.856 -10.0601 620.493 -10.2401C616.461 -10.7556 612.271 -10.4078 608.203 -10.6716C604.199 -10.9193 600.206 -11.3643 596.244 -12.0049C588.143 -13.314 580.162 -15.3198 572.456 -18.1294C571.182 -18.6029 570.436 -16.6471 571.716 -16.1446Z" fill="#534931"/>
<path d="M585.791 -14.335C591.016 -12.6641 596.337 -11.3615 601.739 -10.4666C604.407 -10.0273 607.075 -9.67314 609.764 -9.42092C612.415 -9.17261 615.416 -8.66069 618.065 -9.19768C618.761 -9.33319 619.046 -10.5047 618.217 -10.7236C615.722 -11.3719 612.975 -11.2518 610.408 -11.482C607.719 -11.7342 605.041 -12.08 602.38 -12.509C597.014 -13.3812 591.696 -14.6173 586.486 -16.1637C585.285 -16.5256 584.584 -14.7259 585.791 -14.335Z" fill="#534931"/>
<path d="M589.167 34.3902C594.422 35.7805 599.873 36.2076 605.29 35.619C607.959 35.3394 610.594 34.7631 613.175 33.9731C615.737 33.1811 618.467 32.2364 620.544 30.4858C620.803 30.2763 620.63 29.7664 620.279 29.8622C617.912 30.5137 615.696 31.6066 613.364 32.3659C610.797 33.1953 608.144 33.7697 605.484 34.1447C600.174 34.8863 594.751 34.6419 589.547 33.3988C588.891 33.2452 588.506 34.2076 589.167 34.3902Z" fill="#534931"/>
<path d="M593.379 29.3719C599.494 30.7669 605.792 31.3296 612.049 30.9328C615.126 30.7337 618.187 30.3249 621.218 29.6669C624.209 29.0238 627.639 28.3507 630.343 26.8452C631.348 26.288 631.035 24.5055 629.74 24.7675C626.821 25.352 623.992 26.5135 621.076 27.1644C618.072 27.8346 615.003 28.3183 611.937 28.5942C605.786 29.1441 599.615 28.9067 593.545 27.8002C592.534 27.6096 592.409 29.1478 593.379 29.3719Z" fill="#534931"/>
<path d="M604.56 24.3718C609.356 26.2534 614.707 26.9159 619.83 26.1547C622.348 25.7744 624.833 25.0972 627.188 24.1134C628.395 23.6151 629.575 23.0193 630.697 22.3325C631.911 21.589 632.754 20.5986 633.73 19.6032C634.199 19.1036 633.753 18.0449 633.027 18.4611C632.02 19.037 630.902 19.4122 629.868 19.9758C628.824 20.5479 627.781 21.1012 626.699 21.5841C624.443 22.6067 622.078 23.3247 619.659 23.7438C614.784 24.5781 609.861 24.3387 605.167 22.7514C604.116 22.4052 603.525 23.9611 604.56 24.3718Z" fill="#534931"/>
<path d="M609.959 17.9641C617.291 20.3752 625.45 19.893 632.411 16.5144C633.965 15.7686 636.165 14.7401 637.119 13.2317C637.437 12.7351 637.373 12.0853 636.887 11.7603C636.163 11.2685 635.252 11.9207 634.6 12.2782C632.884 13.2058 631.226 14.2058 629.408 14.9429C627.587 15.6988 625.719 16.1849 623.784 16.5883C619.452 17.4793 614.922 17.2808 610.674 16.0334C609.425 15.6761 608.679 17.5467 609.959 17.9641Z" fill="#534931"/>
<path d="M613.206 11.6911C618.237 12.8689 623.502 13.0022 628.573 12.0087C631.075 11.5226 633.546 10.7873 635.9 9.82224C637.107 9.32392 638.293 8.75718 639.422 8.0994C640.501 7.46481 641.739 6.85618 642.49 5.83734C643.043 5.08159 642.357 3.78976 641.377 4.01857C640.26 4.28984 639.308 4.97552 638.288 5.49337C637.188 6.05955 636.06 6.61344 634.922 7.09052C632.674 8.03828 630.337 8.74978 627.952 9.21022C623.15 10.1562 618.266 10.1762 613.461 9.19223C611.859 8.86423 611.664 11.3316 613.206 11.6911Z" fill="#534931"/>
<path d="M223.305 120.939C232.576 118.255 241.884 115.765 251.332 113.828C255.934 112.89 260.552 112.076 265.193 111.397C269.913 110.688 274.747 110.332 279.405 109.314C279.792 109.241 279.83 108.611 279.387 108.593C274.706 108.483 269.906 109.24 265.281 109.94C260.437 110.664 255.624 111.533 250.826 112.527C241.404 114.494 232.061 116.962 223.002 120.226C222.529 120.404 222.847 121.071 223.305 120.939Z" fill="#534931"/>
<path d="M218.122 126.026C228.786 124.301 239.423 122.479 250.054 120.543C255.254 119.582 260.462 118.65 265.663 117.689C270.892 116.721 276.306 115.981 281.32 114.196C281.959 113.97 281.585 113.126 281.015 113.143C275.758 113.294 270.501 114.523 265.337 115.489C260.02 116.475 254.709 117.491 249.409 118.499C238.898 120.476 228.401 122.577 217.932 124.776C217.139 124.94 217.322 126.16 218.122 126.026Z" fill="#534931"/>
<path d="M223.702 130.78C233.232 129.854 242.683 128.599 252.116 126.982C256.779 126.182 261.413 125.304 266.038 124.33C268.303 123.848 270.559 123.355 272.801 122.823C275.043 122.29 277.67 121.959 279.709 120.838C280.362 120.481 280.366 119.28 279.46 119.261C277.242 119.209 274.927 119.989 272.758 120.463C270.404 120.983 268.041 121.493 265.689 121.995C261.054 122.977 256.424 123.904 251.782 124.772C242.392 126.525 232.944 128.017 223.482 129.281C222.504 129.406 222.746 130.869 223.702 130.78Z" fill="#534931"/>
<path d="M226.578 133.993C236.357 133.756 246.14 133.122 255.845 131.883C260.707 131.265 265.568 130.562 270.376 129.645C272.789 129.197 275.195 128.719 277.59 128.165C279.695 127.676 282.153 127.242 284.009 126.064C284.365 125.827 284.132 125.263 283.749 125.214C281.553 124.956 279.117 125.629 276.945 126.036C274.543 126.476 272.13 126.924 269.72 127.353C264.986 128.193 260.258 128.976 255.488 129.623C245.889 130.929 236.228 131.841 226.542 132.277C225.572 132.327 225.601 134.014 226.578 133.993Z" fill="#534931"/>
<path d="M230.828 139.516C241.055 139.6 251.274 139.314 261.452 138.257C266.511 137.735 271.537 137.087 276.558 136.306C279.164 135.906 281.76 135.43 284.348 134.924C286.755 134.447 289.411 134.11 291.643 133.037C292.242 132.74 292.183 131.694 291.42 131.661C288.959 131.584 286.429 132.247 284.008 132.685C281.619 133.098 279.212 133.49 276.805 133.882C271.799 134.702 266.759 135.397 261.722 135.968C251.508 137.106 241.248 137.955 230.974 138.132C230.102 138.154 229.92 139.516 230.828 139.516Z" fill="#534931"/>
<path d="M242.411 142.522C251.766 143.073 261.144 143.04 270.484 142.388C275.213 142.049 279.944 141.587 284.631 140.923C286.87 140.598 289.127 140.276 291.351 139.827C293.574 139.378 296.085 139.072 298.169 138.155C298.745 137.893 298.665 136.863 297.965 136.866C295.772 136.845 293.506 137.431 291.335 137.735C289.087 138.067 286.852 138.44 284.597 138.743C279.997 139.389 275.391 139.92 270.764 140.279C261.396 141.023 251.992 141.11 242.613 140.614C241.38 140.551 241.18 142.441 242.411 142.522Z" fill="#534931"/>
<path d="M267.19 145.979C274.63 146.216 282.088 146.096 289.519 145.604C297.037 145.093 304.733 144.421 312.076 142.614C312.689 142.461 312.576 141.56 311.926 141.624C304.571 142.379 297.274 143.566 289.902 144.131C282.396 144.7 274.857 144.868 267.327 144.688C266.487 144.666 266.34 145.966 267.19 145.979Z" fill="#534931"/>
<path d="M306.081 140.182C317.274 140.168 328.424 139.213 339.434 137.174C344.99 136.165 350.516 134.907 355.951 133.346C361.267 131.829 366.637 130.252 371.547 127.662C371.997 127.434 371.847 126.615 371.274 126.754C366.002 128.029 360.883 129.916 355.658 131.376C350.287 132.868 344.897 134.188 339.439 135.254C328.496 137.376 317.365 138.588 306.232 138.845C305.369 138.859 305.21 140.185 306.081 140.182Z" fill="#534931"/>
<path d="M298.169 136.187C320.515 137.337 342.93 134.72 364.242 127.76C367.3 126.755 370.335 125.7 373.326 124.527C374.747 123.976 376.151 123.403 377.523 122.771C378.835 122.17 380.215 121.652 381.19 120.571C381.457 120.287 381.192 119.749 380.816 119.728C378.465 119.682 375.92 121.109 373.745 121.913C371.158 122.844 368.58 123.786 365.972 124.649C360.678 126.404 355.311 127.944 349.904 129.243C339.236 131.809 328.326 133.442 317.388 134.173C311.043 134.589 304.699 134.731 298.349 134.485C297.256 134.446 297.077 136.13 298.169 136.187Z" fill="#534931"/>
<path d="M298.656 131.584C319.844 131.431 340.902 128.493 361.233 122.499C364.026 121.674 366.823 120.812 369.563 119.859C372.233 118.946 375.476 118.064 377.73 116.342C378.265 115.943 377.833 115.198 377.251 115.242C374.847 115.426 372.316 116.552 370.042 117.298C367.631 118.087 365.239 118.878 362.824 119.619C357.72 121.186 352.561 122.559 347.361 123.775C337.34 126.125 327.163 127.797 316.921 128.837C310.914 129.459 304.879 129.812 298.832 129.919C297.779 129.951 297.577 131.585 298.656 131.584Z" fill="#534931"/>
<path d="M296.989 126.69C318.054 124.926 338.902 122.003 359.601 117.713C362.572 117.086 365.528 116.421 368.486 115.736C371.163 115.107 374.442 114.693 376.833 113.287C377.409 112.941 377.431 111.931 376.614 111.874C374.236 111.73 371.651 112.557 369.336 113.063C366.692 113.648 364.032 114.193 361.371 114.757C356.254 115.821 351.139 116.867 346.015 117.817C335.632 119.742 325.227 121.427 314.775 122.928C308.79 123.788 302.792 124.591 296.771 125.258C295.832 125.368 296.062 126.773 296.989 126.69Z" fill="#534931"/>
<path d="M313.251 119.714C322.497 118.882 331.709 117.649 340.826 115.895C345.285 115.055 349.73 114.091 354.136 113.037C356.34 112.501 358.538 111.936 360.73 111.342C362.933 110.72 365.404 110.174 367.403 109.068C368.118 108.66 367.826 107.665 367.008 107.712C364.809 107.833 362.534 108.598 360.404 109.142C358.198 109.696 355.992 110.251 353.798 110.779C349.282 111.887 344.75 112.871 340.191 113.757C331.17 115.502 322.102 116.892 312.974 117.869C311.769 117.989 312.057 119.826 313.251 119.714Z" fill="#534931"/>
<path d="M311.43 115.201C317.392 114.376 323.365 113.543 329.327 112.718C332.313 112.301 335.299 111.885 338.279 111.439C341.104 111.034 344.047 110.754 346.792 109.934C347.554 109.711 347.335 108.383 346.549 108.386C343.692 108.39 340.792 108.977 337.967 109.382C334.987 109.828 332.006 110.292 329.034 110.748C323.081 111.669 317.127 112.589 311.166 113.499C310.069 113.669 310.325 115.36 311.43 115.201Z" fill="#534931"/>
<path d="M282.206 119.056C286.791 118.73 291.374 118.424 295.948 118.106C298.198 117.944 300.456 117.792 302.706 117.629C303.869 117.543 305.033 117.456 306.196 117.369C307.189 117.284 308.358 117.415 309.135 116.683C309.483 116.35 309.546 115.752 309.095 115.449C308.249 114.869 307.296 115.11 306.303 115.196C305.14 115.282 303.985 115.379 302.828 115.495C300.506 115.716 298.183 115.937 295.88 116.16C291.235 116.602 286.609 117.047 281.973 117.499C280.951 117.591 281.215 119.123 282.206 119.056Z" fill="#534931"/>
<path d="M281.26 126.562C286.804 126.743 292.316 126.59 297.827 126.012C303.308 125.439 308.83 124.663 314.032 122.794C314.671 122.567 314.348 121.597 313.715 121.682C308.38 122.393 303.138 123.558 297.794 124.173C292.361 124.826 286.878 125.143 281.423 125.113C280.496 125.111 280.327 126.531 281.26 126.562Z" fill="#534931"/>
<path d="M373.309 116.826C377.823 117.344 382.431 116.624 386.605 114.818C388.668 113.917 390.609 112.739 392.368 111.314C393.889 110.083 396.141 108.293 396.56 106.294C396.678 105.72 395.963 105.238 395.471 105.499C394.64 105.933 394.023 106.758 393.374 107.437C392.655 108.157 391.919 108.855 391.13 109.511C389.493 110.853 387.679 111.998 385.768 112.896C381.934 114.699 377.699 115.478 373.48 115.113C372.374 115.016 372.196 116.7 373.309 116.826Z" fill="#534931"/>
<path d="M373.848 111.822C378.131 112.647 382.602 112.054 386.589 110.314C388.534 109.457 390.39 108.28 391.996 106.877C392.821 106.14 393.656 105.31 394.291 104.402C394.902 103.548 395.621 102.658 395.565 101.574C395.545 100.957 394.798 100.69 394.296 100.874C393.466 101.204 392.941 102.142 392.336 102.77C391.685 103.468 391.025 104.156 390.314 104.8C388.849 106.123 387.22 107.22 385.452 108.105C381.917 109.855 377.964 110.558 374.038 110.025C372.871 109.875 372.716 111.609 373.848 111.822Z" fill="#534931"/>
<path d="M374.278 107.487C378.467 107.414 382.759 106.726 386.656 105.128C388.595 104.328 390.458 103.349 392.241 102.23C393.132 101.68 393.983 101.059 394.8 100.397C395.566 99.7772 396.589 99.1367 396.627 98.0624C396.643 97.5533 396.331 97.1045 395.799 97.0395C394.809 96.9173 394.181 97.58 393.434 98.1168C392.632 98.7143 391.808 99.262 390.978 99.7806C389.304 100.845 387.542 101.758 385.713 102.504C382.012 104.047 378.241 105.082 374.227 105.373C373.027 105.455 373.064 107.512 374.278 107.487Z" fill="#534931"/>
<path d="M373.699 101.609C379.733 102.334 385.952 101.592 391.592 99.334C394.033 98.3497 397.083 97.2491 398.312 94.7479C399.096 93.1554 398.62 90.3248 396.35 90.6744C395.677 90.7744 395.541 91.7912 396.207 92.0216C396.957 92.27 396.169 93.0959 395.914 93.5422C395.43 94.3619 394.825 94.8001 393.992 95.2523C391.991 96.3771 389.861 97.2805 387.683 98.0179C383.26 99.4954 378.549 100.025 373.907 99.6447C372.64 99.541 372.438 101.45 373.699 101.609Z" fill="#534931"/>
<path d="M367.956 97.1414C374.215 98.9675 380.823 98.56 386.873 96.1078C389.857 94.9058 392.668 93.194 395.105 91.0836C396.344 90.0117 397.502 88.8177 398.534 87.5539C399.445 86.4571 400.703 84.9426 400.726 83.4694C400.745 82.7525 400.008 81.9472 399.251 82.3885C398.025 83.0739 397.288 84.4064 396.425 85.4987C395.51 86.6329 394.52 87.6741 393.424 88.6474C391.2 90.6192 388.656 92.2172 385.938 93.409C380.46 95.8263 374.266 96.5136 368.424 95.1376C367.29 94.8584 366.818 96.8144 367.956 97.1414Z" fill="#534931"/>
<path d="M372.14 93.3594C378.034 93.634 383.799 91.8048 388.574 88.3493C390.909 86.6634 393.005 84.5553 394.647 82.1823C396.163 80.0136 398.146 76.9194 397.656 74.1346C397.512 73.344 396.589 73.2193 396.095 73.7731C394.465 75.5893 393.764 78.2782 392.395 80.3108C390.914 82.5021 389.1 84.4504 387.016 86.0868C382.845 89.3784 377.685 91.3842 372.346 91.4135C371.106 91.4259 370.86 93.3015 372.14 93.3594Z" fill="#534931"/>
<path d="M375.584 89.6988C382.687 86.1364 389.136 80.9827 393.89 74.5834C395.667 72.1866 397.593 69.7202 396.723 66.5931C396.25 64.8885 393.933 62.8305 392.627 65.0683C392.359 65.5417 392.663 66.3396 393.314 66.1711C394.003 66.0066 393.995 66.3557 394.094 67.0281C394.227 67.8271 394.234 68.7453 393.918 69.4974C393.4 70.7204 392.386 71.9009 391.604 72.9449C390.729 74.1495 389.821 75.3127 388.86 76.4326C384.909 81.0524 380.083 84.9092 374.761 87.8157C373.607 88.4425 374.394 90.3029 375.584 89.6988Z" fill="#534931"/>
<path d="M372.359 82.7978C382.233 78.0016 391.041 69.0553 394.325 58.4068C394.581 57.6011 394.121 56.6734 393.221 56.5984C391.073 56.4215 389.061 56.4764 386.929 56.5093C386.285 56.5177 385.887 57.5072 386.632 57.7079C388.753 58.3171 390.755 58.8855 392.939 59.2554C392.566 58.6678 392.195 58.0615 391.824 57.4553C389.807 62.3904 387.462 66.9413 383.984 71.0239C380.518 75.0795 376.286 78.5065 371.575 81.0038C370.472 81.5887 371.213 83.3497 372.359 82.7978Z" fill="#534931"/>
<path d="M373.576 73.8064C377.816 71.468 381.532 68.356 384.492 64.522C385.949 62.6404 387.196 60.6045 388.253 58.4825C388.784 57.4028 389.25 56.3069 389.618 55.1535C389.938 54.0897 390.416 52.7964 390.155 51.6908C390.002 51.0789 389.145 50.5071 388.591 51.0925C387.867 51.8493 387.584 52.8318 387.198 53.7942C386.775 54.8379 386.334 55.8796 385.865 56.909C384.953 58.9137 383.816 60.8097 382.512 62.5843C379.858 66.2044 376.493 69.3057 372.602 71.567C371.262 72.3446 372.179 74.5781 373.576 73.8064Z" fill="#534931"/>
<path d="M368.786 69.5418C371.681 66.24 374.637 62.9732 377.48 59.6281C378.894 57.9692 380.303 56.2812 381.711 54.5931C382.36 53.8284 383.019 53.0554 383.669 52.272C384.382 51.4383 385.263 50.6222 385.548 49.5358C385.787 48.6243 384.977 47.6033 383.992 48.0586C382.979 48.5203 382.385 49.3948 381.689 50.2491C381.057 51.0345 380.417 51.8095 379.766 52.5929C378.331 54.3538 376.888 56.1044 375.452 57.8653C372.644 61.3369 369.932 64.8846 367.186 68.3911C366.389 69.3957 367.968 70.478 368.786 69.5418Z" fill="#534931"/>
<path d="M369.493 59.7311C372.126 56.9317 374.759 54.1324 377.382 51.3414C378.682 49.9637 379.972 48.5943 381.245 47.2043C381.885 46.5145 382.526 45.8246 383.158 45.1244C383.83 44.4094 384.554 43.8229 384.607 42.7879C384.651 42.0169 384.036 41.3852 383.241 41.4819C382.205 41.6197 381.683 42.3503 381.011 43.0653C380.308 43.8054 379.624 44.5475 378.922 45.2876C377.632 46.657 376.351 48.0367 375.078 49.4267C372.428 52.2906 369.777 55.1731 367.118 58.0453C366.593 58.6243 366.881 59.657 367.461 60.077C368.164 60.5855 368.95 60.3081 369.493 59.7311Z" fill="#534931"/>
<path d="M367.125 52.3424C369.552 50.9593 371.693 49.1396 373.377 46.9034C374.201 45.8259 374.901 44.6599 375.431 43.4098C375.932 42.2514 376.551 40.6039 375.884 39.3992C375.655 38.9686 375.237 38.8966 374.833 39.1382C373.801 39.7683 373.36 41.1695 372.827 42.1827C372.312 43.1979 371.725 44.1865 371.061 45.1009C369.707 46.9839 368.018 48.6426 366.038 49.8358C365.41 50.2243 365.008 50.8918 365.326 51.6438C365.601 52.259 366.481 52.7103 367.125 52.3424Z" fill="#534931"/>
<path d="M361.178 47.3044C363.758 45.54 366.24 43.5478 368.416 41.3062C369.541 40.1561 370.649 38.9853 371.598 37.7033C372.281 36.7909 374.008 34.7767 372.984 33.6388C371.723 32.2302 370.197 34.5776 369.502 35.432C368.512 36.6435 367.538 37.8944 366.497 39.0627C364.414 41.3993 362.146 43.5272 359.655 45.4239C358.409 46.3816 359.905 48.1646 361.178 47.3044Z" fill="#534931"/>
<path d="M355.652 35.4242C356.885 35.1273 358.108 34.8387 359.33 34.5501C359.708 34.4666 359.628 33.8812 359.242 33.9544C358.013 34.214 356.776 34.4632 355.547 34.7227C355.364 34.751 355.222 34.9347 355.258 35.1277C355.278 35.3 355.478 35.4628 355.652 35.4242Z" fill="#534931"/>
<path d="M218.224 52.1246C219.17 49.083 220.589 46.2232 222.46 43.647C224.342 41.0625 226.738 38.9857 228.956 36.7106C229.464 36.1961 229.006 35.1645 228.239 35.529C225.206 37.0097 222.859 39.6118 220.905 42.3402C218.92 45.0937 217.401 48.1889 216.414 51.4344C216.052 52.6168 217.852 53.3154 218.224 52.1246Z" fill="#534931"/>
<path d="M229.5 47.0303C229.692 43.9667 230.856 41.2789 232.649 38.8176C233.5 37.6672 234.504 36.6654 235.611 35.7688C236.212 35.2829 236.852 34.8673 237.483 34.4413C238.123 34.0257 238.78 33.7159 239.286 33.135C239.718 32.6315 239.284 31.8199 238.675 31.7658C237.042 31.6333 235.299 32.908 234.072 33.8677C232.77 34.9048 231.63 36.2046 230.708 37.584C228.875 40.3343 228.018 43.7825 228.125 47.0664C228.145 47.8537 229.454 47.8201 229.5 47.0303Z" fill="#534931"/>
<path d="M237.985 44.539C239.342 40.9255 241.396 37.6023 243.841 34.6131C245.035 33.1675 246.348 31.8478 247.746 30.6128C249.043 29.4428 251.043 28.4219 251.881 26.854C252.2 26.2536 251.517 25.7283 250.986 25.7485C249.197 25.8455 247.324 27.7215 246.07 28.8393C244.558 30.1665 243.205 31.69 241.995 33.2853C239.535 36.5094 237.848 40.202 236.775 44.0817C236.559 44.8726 237.684 45.3305 237.985 44.539Z" fill="#534931"/>
<path d="M248.968 39.802C251.062 36.0194 253.715 32.6735 256.779 29.6449C258.268 28.1828 259.865 26.855 261.513 25.5892C263.214 24.2628 265.077 23.1992 266.644 21.7075C267.118 21.2556 266.838 20.2332 266.07 20.4274C261.838 21.4423 258.109 24.9408 255.181 28.0308C252.103 31.2756 249.682 35.1186 247.805 39.1698C247.497 39.8471 248.596 40.463 248.968 39.802Z" fill="#534931"/>
<path d="M260.523 37.3568C261.51 34.2817 262.962 31.378 264.884 28.7787C265.833 27.4968 266.866 26.3182 267.997 25.1971C269.074 24.1366 270.629 23.1166 271.383 21.8048C271.686 21.2689 271.353 20.3923 270.626 20.5529C269.045 20.927 267.695 22.3279 266.591 23.4613C265.392 24.6888 264.302 26.0506 263.329 27.4719C261.382 30.3144 259.923 33.4633 259.003 36.7914C258.727 37.7842 260.198 38.3728 260.523 37.3568Z" fill="#534931"/>
<path d="M269.329 32.2789C270.393 29.6375 271.889 27.2114 273.763 25.0611C274.666 24.0392 275.713 23.1742 276.643 22.1646C277.637 21.086 278.746 20.1707 279.926 19.3007C280.532 18.8438 279.912 17.8236 279.224 18.1586C277.847 18.8284 276.567 19.6596 275.294 20.5198C274.082 21.3298 273.05 22.5936 272.135 23.7278C270.238 26.1026 268.749 28.8133 267.746 31.6786C267.392 32.7011 268.91 33.2852 269.329 32.2789Z" fill="#534931"/>
<path d="M276.9 32.8706C277.681 29.159 279.64 25.8448 282.297 23.1804C283.568 21.8942 284.992 20.7753 286.554 19.8695C288.197 18.9154 290.01 18.3196 291.67 17.3861C292.205 17.073 292.21 16.1277 291.46 16.0683C287.439 15.8 283.269 18.8173 280.601 21.594C277.697 24.6299 275.787 28.5546 275.123 32.685C274.944 33.8393 276.669 33.9815 276.9 32.8706Z" fill="#534931"/>
<path d="M287.369 32.9984C288.891 29.1656 291.261 25.724 294.291 22.9282C295.757 21.5868 297.316 20.359 299.023 19.3359C299.911 18.8043 300.832 18.3329 301.771 17.8633C302.608 17.4589 303.492 17.1538 304.116 16.4433C304.504 15.992 304.079 15.3612 303.586 15.2813C301.737 14.9654 299.314 16.5853 297.797 17.5054C295.937 18.6355 294.18 19.956 292.635 21.4974C289.546 24.5802 287.161 28.2567 285.676 32.3677C285.277 33.4611 286.932 34.0879 287.369 32.9984Z" fill="#534931"/>
<path d="M296.978 29.6313C299.881 27.3142 302.795 24.9888 305.701 22.653C307.158 21.4903 308.613 20.3463 310.061 19.1732C311.344 18.1342 313.207 16.9854 314.014 15.5279C314.386 14.8668 313.834 14.1849 313.11 14.412C312.211 14.6776 311.477 15.3577 310.747 15.9152C310.066 16.4495 309.387 16.9651 308.723 17.5201C307.274 18.6931 305.844 19.8681 304.404 21.0515C301.523 23.4183 298.634 25.7747 295.764 28.1331C294.8 28.9311 296.005 30.4189 296.978 29.6313Z" fill="#534931"/>
<path d="M307.83 29.6194C310.212 27.6736 312.56 25.6864 314.841 23.6165C315.971 22.5993 317.09 21.5905 318.219 20.5733C319.33 19.5542 320.619 18.5442 321.498 17.3022C322.041 16.5549 321.182 15.2829 320.285 15.8041C318.963 16.5836 317.851 17.7066 316.73 18.7342C315.617 19.772 314.507 20.7912 313.394 21.829C311.129 23.9196 308.913 26.0908 306.759 28.2969C306.006 29.0602 306.95 30.3316 307.83 29.6194" fill="#534931"/>
<path d="M313.346 28.625C316.811 27.0002 320.197 25.2159 323.405 23.1482C325.01 22.105 326.572 21.0289 328.11 19.903C328.911 19.3056 329.685 18.6959 330.442 18.0655C331.117 17.5022 331.908 16.9983 332.134 16.1138C332.314 15.4894 331.883 14.9147 331.214 14.9773C330.287 15.0603 329.688 15.7166 328.987 16.2677C328.324 16.804 327.656 17.3112 326.985 17.8371C325.497 19.0249 323.978 20.1528 322.406 21.2373C319.281 23.4083 316.102 25.4696 312.76 27.2868C311.956 27.7326 312.49 29.0275 313.346 28.625Z" fill="#534931"/>
<path d="M321.898 30.9553C324.663 28.7846 327.409 26.6119 330.164 24.4496C331.507 23.379 332.859 22.3188 334.202 21.2483C334.883 20.714 335.537 20.1674 336.201 19.6124C336.805 19.089 337.536 18.6167 337.763 17.8174C337.922 17.2949 337.537 16.8196 336.985 16.8565C336.154 16.9306 335.55 17.5392 334.912 18.0213C334.283 18.5137 333.664 18.9977 333.052 19.5108C331.674 20.6439 330.296 21.777 328.926 22.9204C326.238 25.1654 323.542 27.4001 320.844 29.6535C320.014 30.3425 321.051 31.6237 321.898 30.9553Z" fill="#534931"/>
<path d="M328.017 30.4306C329.657 28.795 331.441 27.4016 333.315 26.0554C334.226 25.4032 335.151 24.7904 336.119 24.2293C336.604 23.9394 337.103 23.6888 337.588 23.3989C338.102 23.1025 338.517 22.5783 338.981 22.22C339.525 21.8133 339.125 20.7689 338.434 20.9521C338.112 21.0415 337.786 21.1684 337.469 21.2203C337.18 21.2659 336.966 21.2341 336.69 21.3377C336.128 21.5533 335.594 21.9516 335.078 22.2667C334.046 22.8968 333.038 23.5766 332.071 24.3081C330.167 25.7647 328.464 27.5544 326.925 29.3991C326.384 30.0425 327.405 31.0288 328.017 30.4306Z" fill="#534931"/>
<path d="M332.539 31.1485C334.758 29.8477 336.977 28.547 339.196 27.2462C340.294 26.6136 341.376 25.9603 342.44 25.2863C343.219 24.8095 344.992 24.0581 344.485 22.8607C343.957 21.5948 342.203 22.7928 341.471 23.1799C340.385 23.7854 339.299 24.391 338.23 25.0172C336.003 26.3076 333.784 27.6084 331.557 28.8988C330.973 29.2351 330.631 29.871 330.921 30.5256C331.157 31.0704 331.955 31.4848 332.539 31.1485Z" fill="#534931"/>
<path d="M334.631 36.5881C337.704 35.263 340.642 33.6022 343.365 31.6541C344.694 30.7145 345.965 29.7026 347.177 28.6184C347.792 28.0866 348.389 27.5342 348.954 26.9404C349.557 26.3318 350.251 25.7704 350.337 24.862C350.39 24.2716 349.86 23.7433 349.272 23.8427C348.454 23.9749 348.014 24.5533 347.456 25.0909C346.867 25.6537 346.277 26.2165 345.68 26.7689C344.519 27.8113 343.298 28.8 342.027 29.7267C339.441 31.6324 336.654 33.2049 333.725 34.5166C332.385 35.1051 333.284 37.1663 334.631 36.5881Z" fill="#534931"/>
<path d="M333.741 40.4396C337.927 38.9658 341.979 37.1564 345.786 34.8769C347.624 33.7823 349.449 32.6296 351.155 31.351C352.79 30.1123 354.764 28.8048 356.014 27.176C356.508 26.537 355.716 25.4329 354.969 25.8845C353.17 26.9643 351.61 28.5703 349.925 29.8321C348.281 31.0605 346.61 32.2766 344.885 33.3829C341.219 35.7528 337.358 37.8186 333.329 39.5074C332.724 39.7753 333.131 40.6597 333.741 40.4396Z" fill="#534931"/>
<path d="M344.791 40.8835C348.382 38.8652 352.03 36.9379 355.579 34.868C357.334 33.8404 359.078 32.8212 360.823 31.802C362.478 30.8208 364.323 29.9255 365.631 28.473C366.071 27.9797 365.501 27.1068 364.88 27.2501C363 27.6781 361.343 28.8484 359.709 29.8129C357.892 30.8907 356.085 31.9602 354.277 33.0484C350.802 35.1262 347.389 37.3427 343.946 39.4805C343.165 39.976 343.987 41.3293 344.791 40.8835Z" fill="#534931"/>
<path d="M233.835 97.3406C235.613 98.1411 237.394 98.9229 239.184 99.715C240.042 100.098 240.9 100.481 241.769 100.855C242.194 101.041 242.627 101.238 243.052 101.424C243.512 101.633 243.946 101.915 244.474 101.847C244.914 101.798 245.044 101.282 244.814 100.955C244.544 100.558 244.038 100.42 243.605 100.224C243.155 100.006 242.694 99.7976 242.244 99.5804C241.386 99.1976 240.53 98.7961 239.674 98.3946C237.907 97.567 236.138 96.7581 234.372 95.9305C233.488 95.5167 232.939 96.9539 233.835 97.3406Z" fill="#534931"/>
<path d="M233.906 95.4184C236.789 96.7787 239.691 98.141 242.585 99.493C244.01 100.152 245.422 100.839 246.849 101.48C248.157 102.08 249.834 103.135 251.293 103.117C251.974 103.112 252.536 102.367 252.032 101.765C251.057 100.604 249.171 100.01 247.819 99.3772C246.404 98.7093 244.967 98.0769 243.54 97.4361C240.578 96.1053 237.618 94.7559 234.666 93.4168C233.402 92.8497 232.67 94.8449 233.906 95.4184Z" fill="#534931"/>
<path d="M243.326 96.6002C248.693 98.7211 254.017 101.065 259.637 102.484C260.07 102.595 260.527 102.482 260.761 102.052C260.951 101.694 260.881 101.1 260.487 100.889C255.337 98.062 249.772 96.119 244.314 93.9697C242.633 93.3119 241.645 95.9424 243.326 96.6002Z" fill="#534931"/>
<path d="M255.409 95.5061C257.18 96.2963 258.948 97.1052 260.727 97.9057C261.585 98.2885 262.452 98.6816 263.31 99.0644C264.206 99.4511 265.349 100.185 266.357 99.95C266.999 99.7899 267.575 99.0839 267.212 98.4028C266.863 97.761 266.392 97.4754 265.753 97.1721C265.319 96.9756 264.896 96.7706 264.463 96.5741C263.58 96.1603 262.695 95.7652 261.811 95.3514C260.005 94.5386 258.191 93.7155 256.385 92.9027C255.699 92.5852 254.848 93.0355 254.587 93.7083C254.31 94.4455 254.713 95.197 255.409 95.5061Z" fill="#534931"/>
<path d="M266.283 95.2033C269.716 96.7345 273.15 98.247 276.645 99.6427C277.145 99.8368 277.742 99.5586 277.926 99.067C278.135 98.5213 277.827 98.0351 277.35 97.8056C273.985 96.0828 270.577 94.4975 267.15 92.9101C266.546 92.6295 265.793 93.0334 265.57 93.6249C265.322 94.2706 265.668 94.931 266.283 95.2033Z" fill="#534931"/>
<path d="M206.713 77.6635C209.754 81.6509 213.432 85.2414 217.624 88.0058C219.64 89.3324 221.754 90.5462 223.958 91.5329C225.16 92.0651 226.388 92.5244 227.631 92.9379C228.718 93.3067 229.853 93.7562 230.994 93.516C231.449 93.4215 231.828 92.7895 231.425 92.3975C230.627 91.6237 229.653 91.3518 228.635 90.9617C227.481 90.5102 226.34 90.0317 225.223 89.4989C223.069 88.489 220.991 87.383 219 86.0874C214.91 83.4283 211.232 80.2824 208.1 76.5407C207.37 75.6605 206.014 76.7582 206.713 77.6635Z" fill="#534931"/>
<path d="M210.739 72.2476C214.889 76.8426 219.371 81.1507 224.246 84.9701C229.033 88.7236 234.223 92.5949 240.04 94.5736C240.771 94.8201 241.269 93.8695 240.666 93.3998C235.989 89.6767 230.706 86.77 225.942 83.1514C221.064 79.4546 216.454 75.4548 212.188 71.0746C211.369 70.2324 209.926 71.3493 210.739 72.2476Z" fill="#534931"/>
<path d="M216.565 65.1182C219.803 70.8951 223.757 76.1791 228.511 80.7805C230.784 82.9946 233.176 85.0604 235.698 86.9695C238.071 88.7778 240.981 91.2287 243.97 91.8529C244.719 92.0162 245.227 90.972 244.744 90.4392C243.728 89.3116 242.384 88.6038 241.129 87.7728C239.767 86.8739 238.449 85.9229 237.143 84.9447C234.616 83.073 232.201 81.0426 229.945 78.8492C225.415 74.4603 221.372 69.5738 217.919 64.2948C217.431 63.5439 216.118 64.3338 216.565 65.1182Z" fill="#534931"/>
<path d="M221.721 60.9081C225.131 66.769 229.218 72.2183 234.019 77.0043C236.311 79.3055 238.739 81.4791 241.331 83.4522C243.862 85.3717 246.955 87.9647 250.087 88.7645C250.759 88.9387 251.559 88.1709 250.972 87.5516C248.916 85.3505 245.9 83.8062 243.511 81.9772C240.79 79.8865 238.15 77.6624 235.689 75.2584C230.973 70.661 226.804 65.5343 223.308 59.9481C222.749 59.0668 221.193 60.0016 221.721 60.9081Z" fill="#534931"/>
<path d="M227.027 56.9026C231.639 64.0998 237.006 70.7705 243.046 76.8113C245.92 79.6842 248.919 82.4565 252.052 85.0347C253.741 86.4217 255.483 87.748 257.26 89.0119C258.739 90.0553 260.351 91.4532 262.195 91.7214C262.586 91.7812 262.987 91.3027 262.781 90.9218C261.905 89.3737 260.231 88.3855 258.858 87.3247C257.205 86.0455 255.583 84.7412 253.974 83.4098C250.685 80.7017 247.492 77.8808 244.472 74.8697C238.566 68.9942 233.198 62.5978 228.372 55.8134C227.712 54.8932 226.442 55.9903 227.027 56.9026Z" fill="#534931"/>
<path d="M234.111 57.6326C239.213 63.9539 244.784 69.8608 250.895 75.228C253.889 77.8674 256.997 80.4146 260.218 82.7845C261.91 84.0488 263.625 85.2778 265.395 86.4273C267.007 87.4658 268.743 88.7631 270.608 89.2888C271.361 89.4999 272.171 88.6385 271.573 87.9424C270.348 86.5565 268.643 85.5934 267.15 84.5106C265.512 83.3559 263.873 82.22 262.258 81.0299C259.039 78.6414 255.884 76.1838 252.848 73.5779C246.68 68.3087 240.87 62.5946 235.529 56.4846C234.761 55.6006 233.375 56.7233 234.111 57.6326Z" fill="#534931"/>
<path d="M243.945 54.0146C248.972 60.7727 254.425 67.1686 260.367 73.152C263.223 76.0229 266.164 78.808 269.212 81.472C270.813 82.8782 272.435 84.2677 274.1 85.605C275.618 86.8227 277.198 88.2457 279.035 88.9482C279.845 89.2503 280.468 88.2843 279.988 87.6289C278.9 86.1153 277.225 84.9568 275.789 83.7759C274.242 82.4794 272.685 81.1913 271.151 79.8677C267.946 77.0739 264.799 74.1821 261.766 71.1981C255.933 65.4342 250.432 59.3171 245.321 52.9002C244.612 52.0033 243.275 53.1029 243.945 54.0146Z" fill="#534931"/>
<path d="M255.229 57.8787C260.027 63.6764 265.211 69.1267 270.768 74.1902C273.512 76.69 276.354 79.0582 279.292 81.3323C280.797 82.492 282.332 83.6265 283.911 84.7088C285.411 85.7355 286.961 86.9946 288.737 87.5583C289.378 87.7576 289.996 87.0181 289.536 86.4498C288.479 85.1667 287.022 84.2768 285.708 83.2883C284.195 82.1183 282.68 80.967 281.178 79.7886C278.271 77.4894 275.43 75.1024 272.663 72.6381C267.043 67.6437 261.798 62.2249 256.957 56.4794C256.022 55.3887 254.305 56.7796 255.229 57.8787Z" fill="#534931"/>
<path d="M255.596 44.5799C262.728 53.2603 270.437 61.4051 278.739 68.9496C282.89 72.7219 287.157 76.3832 291.548 79.8589C293.714 81.5606 295.915 83.1997 298.137 84.822C300.394 86.467 302.727 88.2049 305.297 89.3056C305.903 89.5675 306.541 88.726 306.073 88.2326C304.286 86.3435 302.112 84.8018 300.055 83.2345C297.866 81.5683 295.7 79.8666 293.555 78.1482C289.166 74.6538 284.873 71.0653 280.701 67.3098C272.365 59.8092 264.46 51.8236 257.003 43.4404C256.234 42.575 254.849 43.6791 255.596 44.5799Z" fill="#534931"/>
<path d="M269.211 44.3835C275.277 53.0378 282.361 61.0038 289.694 68.5984C293.225 72.2398 296.894 75.7348 300.639 79.1524C304.564 82.7309 308.575 86.6682 313.26 89.2382C313.804 89.5503 314.56 88.9387 314.081 88.3684C310.792 84.5821 306.671 81.5036 302.948 78.1544C298.923 74.5371 295.036 70.7735 291.21 66.9596C283.784 59.5442 276.953 51.5952 270.111 43.6546C269.614 43.0824 268.774 43.7798 269.211 44.3835Z" fill="#534931"/>
<path d="M281.638 49.4263C287.982 55.6313 294.326 61.8364 300.67 68.0414C303.799 71.1017 306.967 74.1471 310.117 77.1905C311.696 78.7174 313.257 80.2424 314.846 81.7609C316.438 83.2607 317.955 84.8379 319.885 85.9095C320.439 86.2133 321.419 85.7103 320.992 85.013C318.87 81.462 315.285 78.6853 312.325 75.813C309.109 72.6869 305.884 69.5504 302.646 66.4411C296.24 60.2863 289.824 54.1399 283.418 47.9851C282.369 46.9865 280.583 48.3987 281.638 49.4263Z" fill="#534931"/>
<path d="M290.942 46.1692C296.837 52.4125 302.776 58.6037 308.787 64.7361C311.714 67.7375 314.643 70.7201 317.601 73.6962C320.516 76.6395 323.421 80.206 326.937 82.4742C327.654 82.9369 328.348 82.1012 327.929 81.4143C325.739 77.9697 322.297 75.0944 319.443 72.2048C316.408 69.1543 313.362 66.1122 310.324 63.0805C304.31 57.0706 298.231 51.1297 292.101 45.2308C291.422 44.5829 290.269 45.4652 290.942 46.1692Z" fill="#534931"/>
<path d="M308.185 51.743C313.244 57.2086 318.306 62.6556 323.41 68.069C325.884 70.7015 328.369 73.3255 330.843 75.958C332.128 77.3123 333.393 78.6834 334.68 80.019C335.94 81.3424 337.151 82.7741 338.714 83.7318C339.256 84.0627 340.135 83.5396 339.78 82.8688C338.133 79.8403 335.075 77.3551 332.708 74.8756C330.135 72.1857 327.555 69.4854 324.982 66.7954C319.838 61.4155 314.633 56.0672 309.447 50.7207C308.73 49.9838 307.461 50.977 308.185 51.743Z" fill="#534931"/>
<path d="M317.189 53.1935C322.106 58.9282 327.149 64.5622 332.495 69.9159C335.096 72.5142 337.73 75.0687 340.395 77.5981C342.976 80.0242 345.531 82.9677 348.698 84.5942C349.469 84.9962 349.989 83.9249 349.606 83.3458C347.669 80.4667 344.525 78.2563 341.994 75.8922C339.221 73.3137 336.481 70.6913 333.792 68.0271C328.549 62.8639 323.328 57.6652 318.285 52.3054C317.665 51.6447 316.591 52.4974 317.189 53.1935Z" fill="#534931"/>
<path d="M329.81 58.0958C334.282 63.1312 338.89 68.0389 343.657 72.7835C345.882 75.0021 348.148 77.1872 350.456 79.3387C352.782 81.4922 355.212 84.2808 358.091 85.6786C358.874 86.0536 359.353 85.0158 358.978 84.4469C357.317 81.8236 354.342 79.716 352.099 77.5806C349.753 75.34 347.412 73.0619 345.12 70.7607C340.528 66.1478 336.064 61.3971 331.745 56.529C330.689 55.331 328.736 56.8959 329.81 58.0958Z" fill="#534931"/>
<path d="M335.682 55.5305C339.341 60.4716 343.37 65.1297 347.738 69.4448C349.785 71.4651 351.907 73.4081 354.105 75.255C356.328 77.1329 358.77 79.5349 361.607 80.3512C362.296 80.5461 362.776 79.849 362.403 79.2615C360.872 76.9261 358.253 75.3001 356.145 73.5004C353.829 71.5089 351.58 69.4297 349.414 67.2834C345.192 63.1065 341.307 58.6053 337.752 53.8547C336.724 52.48 334.663 54.1661 335.682 55.5305Z" fill="#534931"/>
<path d="M339.627 52.4046C343.174 55.8963 346.636 59.4736 350.214 62.9402C351.973 64.6466 353.732 66.3531 355.48 68.0679C356.355 68.916 357.231 69.764 358.114 70.6224C358.939 71.4085 359.703 72.33 360.783 72.7549C361.646 73.1003 362.511 72.1597 362.145 71.3269C361.649 70.2063 360.616 69.4174 359.739 68.5881C358.924 67.7936 358.108 67.0179 357.293 66.2234C355.532 64.5357 353.763 62.8376 351.994 61.1396C348.456 57.7434 344.812 54.4498 341.262 51.0807C340.299 50.1668 338.649 51.4513 339.627 52.4046Z" fill="#534931"/>
<path d="M343.809 49.4454C346.337 51.128 348.854 52.819 351.4 54.5036C352.637 55.3327 353.897 56.1262 355.177 56.9031C356.34 57.6204 357.706 58.567 359.085 58.7677C359.486 58.819 359.916 58.3342 359.681 57.9597C358.966 56.7595 357.613 55.8709 356.497 55.064C355.285 54.1807 354.079 53.3266 352.834 52.4872C350.307 50.8046 347.779 49.1219 345.243 47.4289C343.936 46.5547 342.475 48.5588 343.809 49.4454Z" fill="#534931"/>
<path d="M283.806 102.414C295.926 104.37 308.177 105.176 320.446 104.924C326.409 104.799 332.347 104.473 338.263 103.908C341.368 103.617 344.456 103.221 347.54 102.776C350.364 102.371 353.734 102.174 356.252 100.734C356.766 100.438 356.683 99.701 356.069 99.5991C353.23 99.0757 350.009 99.9219 347.17 100.288C344.273 100.666 341.365 100.968 338.457 101.27C332.367 101.874 326.261 102.267 320.135 102.404C308.064 102.667 295.968 102.095 283.971 100.861C282.96 100.756 282.82 102.255 283.806 102.414Z" fill="#534931"/>
<path d="M283.999 111.856C290.748 112.532 297.532 112.89 304.319 112.936C307.572 112.954 310.832 112.897 314.084 112.744C317.24 112.601 320.935 112.722 323.909 111.528C324.542 111.273 324.29 110.433 323.716 110.316C320.736 109.684 317.315 110.282 314.294 110.402C310.863 110.545 307.429 110.64 303.995 110.632C297.401 110.634 290.803 110.315 284.225 109.722C282.857 109.599 282.633 111.713 283.999 111.856Z" fill="#534931"/>
<path d="M278.834 115.611C287.08 116.084 295.329 116.453 303.591 116.776C307.671 116.927 311.75 117.098 315.834 117.212C317.815 117.267 319.796 117.323 321.787 117.37C323.797 117.419 326.028 117.699 327.991 117.204C328.778 117.012 329.075 115.813 328.178 115.53C326.338 114.95 324.277 115.028 322.373 114.962C320.383 114.896 318.405 114.822 316.415 114.757C312.231 114.604 308.031 114.515 303.841 114.418C295.564 114.226 287.29 114.1 279 114.039C277.996 114.048 277.798 115.559 278.834 115.611Z" fill="#534931"/>
<path d="M282.948 118.66C290.244 121.049 297.855 122.344 305.539 122.418C312.881 122.494 321.073 121.883 327.907 118.983C328.749 118.626 328.38 117.282 327.465 117.442C323.812 118.073 320.249 119.025 316.563 119.53C312.896 120.036 309.196 120.312 305.499 120.295C298.075 120.268 290.669 119.182 283.565 117.032C282.501 116.712 281.867 118.321 282.948 118.66Z" fill="#534931"/>
<path d="M278.448 96.369C299.223 99.4075 320.349 99.4936 341.131 96.3847C346.839 95.5427 352.974 94.698 358.339 92.4581C359.149 92.1265 358.726 91.0324 357.937 91.0729C352.826 91.3624 347.751 92.6489 342.697 93.3888C337.603 94.1436 332.509 94.8132 327.382 95.2523C317.05 96.1603 306.66 96.3623 296.304 95.8868C290.4 95.6206 284.523 95.1112 278.66 94.3669C277.363 94.2031 277.163 96.1781 278.448 96.369Z" fill="#534931"/>
<path d="M294.215 96.312C305.664 95.407 317.11 94.5207 328.554 93.568C334.281 93.0874 340.008 92.6068 345.724 92.1347C348.579 91.8934 351.437 91.6147 354.303 91.3464C357.026 91.0914 359.752 90.9881 362.354 90.0962C363.229 89.7808 362.884 88.5719 362.104 88.4338C359.369 87.9969 356.62 88.4099 353.89 88.6358C351.027 88.8668 348.165 89.0977 345.309 89.3577C339.586 89.886 333.874 90.4059 328.161 90.9259C316.726 91.9741 305.311 93.1095 293.89 94.1971C292.505 94.3269 292.851 96.425 294.215 96.312Z" fill="#534931"/>
<path d="M292.153 91.3105C304.429 92.5918 316.76 92.8195 329.077 92.0146C335.279 91.6119 341.447 90.8937 347.585 89.9263C350.644 89.451 353.709 88.9196 356.748 88.272C359.747 87.6392 362.6 87.0572 365.382 85.7112C366.269 85.2835 365.824 84.121 364.933 84.1414C361.783 84.2288 358.829 84.9611 355.74 85.5467C352.883 86.0809 350.026 86.6151 347.149 87.0809C341.114 88.0496 335.041 88.759 328.961 89.2689C316.78 90.3055 304.525 90.3412 292.351 89.4394C291.141 89.3415 290.944 91.1939 292.153 91.3105Z" fill="#534931"/>
<path d="M213.854 111.023C216.428 108.955 218.854 106.768 221.26 104.513C222.436 103.406 223.621 102.309 224.798 101.203C225.869 100.198 227.237 99.0735 227.826 97.7067C228.028 97.2358 227.508 96.8694 227.095 97.0155C225.691 97.5027 224.503 98.807 223.432 99.8113C222.195 100.95 220.977 102.09 219.748 103.239C217.376 105.451 215.075 107.708 212.882 110.099C212.358 110.678 213.276 111.474 213.854 111.023Z" fill="#534931"/>
<path d="M217.752 113.7C219.8 111.511 221.865 109.343 223.888 107.123C224.861 106.062 225.826 104.989 226.791 103.917C227.39 103.261 229.163 101.791 228.009 100.894C226.924 100.062 225.667 102.022 225.076 102.688C224.103 103.75 223.138 104.822 222.173 105.894C220.169 108.116 218.217 110.381 216.248 112.626C215.452 113.526 216.962 114.545 217.752 113.7Z" fill="#534931"/>
<path d="M220.951 112.7C222.712 111.257 224.481 109.824 226.251 108.392C227.132 107.661 228.02 106.959 228.877 106.197C229.679 105.496 230.627 104.762 231.179 103.836C231.422 103.417 231.054 102.962 230.594 103.113C229.563 103.469 228.658 104.235 227.806 104.874C226.882 105.554 226.011 106.276 225.113 106.986C223.344 108.419 221.574 109.852 219.796 111.274C218.886 112.012 220.041 113.438 220.951 112.7Z" fill="#534931"/>
<path d="M220.82 114.295C222.548 112.895 224.287 111.488 226.025 110.08C227.753 108.681 229.366 107.118 231.043 105.657C231.701 105.073 230.898 104.081 230.19 104.603C228.403 105.93 226.548 107.193 224.82 108.592C223.082 110 221.343 111.408 219.615 112.807C218.653 113.586 219.858 115.074 220.82 114.295" fill="#534931"/>
</svg>
